<?xml version="1.0" encoding="UTF-8" standalone="no"?>
<!-- Created with Inkscape (http://www.inkscape.org/) -->

<svg
   xmlns:dc="http://purl.org/dc/elements/1.1/"
   xmlns:cc="http://creativecommons.org/ns#"
   xmlns:rdf="http://www.w3.org/1999/02/22-rdf-syntax-ns#"
   xmlns:svg="http://www.w3.org/2000/svg"
   xmlns="http://www.w3.org/2000/svg"
   xmlns:sodipodi="http://sodipodi.sourceforge.net/DTD/sodipodi-0.dtd"
   xmlns:inkscape="http://www.inkscape.org/namespaces/inkscape"
   width="210mm"
   height="297mm"
   viewBox="0 0 744.09448819 1052.3622047"
   id="svg2"
   version="1.1"
   inkscape:version="0.91 r13725"
   sodipodi:docname="convertedtwo.svg">
  <defs
     id="defs4" />
  <sodipodi:namedview
     id="base"
     pagecolor="#ffffff"
     bordercolor="#666666"
     borderopacity="1.0"
     inkscape:pageopacity="0.0"
     inkscape:pageshadow="2"
     inkscape:zoom="0.52548447"
     inkscape:cx="372.04724"
     inkscape:cy="526.1811"
     inkscape:document-units="px"
     inkscape:current-layer="layer1"
     showgrid="false"
     inkscape:snap-page="true"
     inkscape:snap-text-baseline="true"
     inkscape:snap-others="true"
     inkscape:snap-bbox="true"
     inkscape:bbox-paths="true"
     inkscape:bbox-nodes="true"
     inkscape:snap-bbox-edge-midpoints="true"
     inkscape:snap-bbox-midpoints="true"
     inkscape:object-paths="true"
     inkscape:object-nodes="true"
     inkscape:snap-midpoints="true"
     inkscape:snap-center="true"
     inkscape:snap-object-midpoints="true"
     inkscape:snap-smooth-nodes="true"
     inkscape:snap-intersection-paths="true"
     inkscape:window-width="1366"
     inkscape:window-height="705"
     inkscape:window-x="-8"
     inkscape:window-y="-8"
     inkscape:window-maximized="1"
     showguides="true"
     inkscape:snap-to-guides="true"
     inkscape:snap-grids="true"
     inkscape:snap-nodes="true"
     inkscape:snap-global="false" />
  <metadata
     id="metadata7">
    <rdf:RDF>
      <cc:Work
         rdf:about="">
        <dc:format>image/svg+xml</dc:format>
        <dc:type
           rdf:resource="http://purl.org/dc/dcmitype/StillImage" />
        <dc:title />
      </cc:Work>
    </rdf:RDF>
  </metadata>
  <g
     inkscape:label="Layer 1"
     inkscape:groupmode="layer"
     id="layer1">
    <path
       style="fill:none;fill-rule:evenodd;stroke:#000000;stroke-width:5;stroke-linecap:butt;stroke-linejoin:miter;stroke-miterlimit:4;stroke-dasharray:none;stroke-opacity:1"
       d="m 0,263.09055 148.8189,0 148.81889,0 148.8189,0 148.81889,0 148.81891,0"
       id="path4379"
       inkscape:connector-curvature="0"
       sodipodi:nodetypes="cccccc" />
    <path
       style="fill:none;fill-rule:evenodd;stroke:#000000;stroke-width:5;stroke-linecap:butt;stroke-linejoin:miter;stroke-opacity:1;stroke-miterlimit:4;stroke-dasharray:none"
       d="m 0,263.09055 0,526.1811"
       id="path4383"
       inkscape:connector-curvature="0" />
    <path
       style="fill:none;fill-rule:evenodd;stroke:#000000;stroke-width:5;stroke-linecap:butt;stroke-linejoin:miter;stroke-miterlimit:4;stroke-dasharray:none;stroke-opacity:1"
       d="m 744.09449,789.27165 0,-526.1811"
       id="path4385"
       inkscape:connector-curvature="0"
       sodipodi:nodetypes="cc" />
    <path
       style="fill:none;fill-rule:evenodd;stroke:#000000;stroke-width:5;stroke-linecap:butt;stroke-linejoin:miter;stroke-miterlimit:4;stroke-dasharray:none;stroke-opacity:1"
       d="m 1.5,789.27165 148.81889,0 148.81889,0 148.8189,0 148.81889,0 148.81891,0"
       id="path4379-3"
       inkscape:connector-curvature="0"
       sodipodi:nodetypes="cccccc" />
    <path
       style="opacity:1;fill:#ffffff;fill-opacity:1;stroke:#000000;stroke-width:5;stroke-linecap:butt;stroke-linejoin:miter;stroke-miterlimit:4;stroke-dasharray:none;stroke-opacity:1"
       d="M 590.15002,261.59055 A 218.10278,218.10243 0 0 1 372.04724,479.69298 218.10278,218.10243 0 0 1 153.94446,261.59055 218.10278,218.10243 0 0 1 372.04724,43.488113 218.10278,218.10243 0 0 1 590.15002,261.59055 Z"
       id="path4479-8" />
    <path
       style="opacity:1;fill:#ffffff;fill-opacity:1;stroke:#000000;stroke-width:5;stroke-linecap:butt;stroke-linejoin:miter;stroke-miterlimit:4;stroke-dasharray:none;stroke-opacity:1"
       d="m 445.15544,264.59055 a 73.1082,73.108078 0 0 1 -73.1082,73.10807 73.1082,73.108078 0 0 1 -73.1082,-73.10807 73.1082,73.108078 0 0 1 73.1082,-73.10808 73.1082,73.108078 0 0 1 73.1082,73.10808 z"
       id="path4479" />
    <path
       style="opacity:1;fill:#ffffff;fill-opacity:1;stroke:#000000;stroke-width:5;stroke-linecap:butt;stroke-linejoin:miter;stroke-miterlimit:4;stroke-dasharray:none;stroke-opacity:1"
       d="m 297.83653,789.27167 a 73.1082,73.108078 0 0 1 -73.1082,73.10808 73.1082,73.108078 0 0 1 -73.1082,-73.10808 73.1082,73.108078 0 0 1 73.1082,-73.10808 73.1082,73.108078 0 0 1 73.1082,73.10808 z"
       id="path4479-5" />
    <path
       style="opacity:1;fill:#ffffff;fill-opacity:1;stroke:#000000;stroke-width:5;stroke-linecap:butt;stroke-linejoin:miter;stroke-miterlimit:4;stroke-dasharray:none;stroke-opacity:1"
       d="m 595.47435,789.27167 a 73.1082,73.108078 0 0 1 -73.1082,73.10808 73.1082,73.108078 0 0 1 -73.1082,-73.10808 73.1082,73.108078 0 0 1 73.1082,-73.10808 73.1082,73.108078 0 0 1 73.1082,73.10808 z"
       id="path4479-1" />
    <path
       style="opacity:1;fill:#ffffff;fill-opacity:1;stroke:#000000;stroke-width:5;stroke-linecap:butt;stroke-linejoin:miter;stroke-miterlimit:4;stroke-dasharray:none;stroke-opacity:1"
       d="m 0,263.09055 744.09448,0 0,526.18109 -744.09448,0 z"
       id="rect4481" />
    <path
       style="fill:none;fill-rule:evenodd;stroke:#000000;stroke-width:5;stroke-linecap:butt;stroke-linejoin:miter;stroke-miterlimit:4;stroke-dasharray:none;stroke-opacity:1"
       d="m 298.95564,263.09055 -0.52457,124.29722"
       id="path4199"
       inkscape:connector-curvature="0"
       sodipodi:nodetypes="cc" />
    <path
       style="opacity:1;fill:#ffffff;fill-opacity:1;stroke:#000000;stroke-width:5;stroke-linecap:butt;stroke-linejoin:miter;stroke-miterlimit:4;stroke-dasharray:none;stroke-opacity:1"
       d="m 153.94962,263.09068 c 0,0 -5.83176,108.85048 66.81264,173.64144"
       id="path4155"
       inkscape:connector-curvature="0"
       sodipodi:nodetypes="cc" />
    <path
       style="opacity:1;fill:#ffffff;fill-opacity:1;stroke:#000000;stroke-width:5;stroke-linecap:butt;stroke-linejoin:miter;stroke-miterlimit:4;stroke-dasharray:none;stroke-opacity:1"
       d="m 590.14082,263.09055 c -2.21633,29.55745 19.62383,46.1076 -126.78732,45.15734"
       id="path4169"
       inkscape:connector-curvature="0"
       sodipodi:nodetypes="cc" />
    <path
       style="opacity:1;fill:#ffffff;fill-opacity:1;stroke:#000000;stroke-width:5;stroke-linecap:butt;stroke-linejoin:miter;stroke-miterlimit:4;stroke-dasharray:none;stroke-opacity:1"
       d="m 435.86644,308.24788 c -119.76511,0 -119.76511,0 -119.76511,0"
       id="path4171"
       inkscape:connector-curvature="0" />
    <path
       style="opacity:1;fill:#ffffff;fill-opacity:1;stroke:#000000;stroke-width:5;stroke-linecap:butt;stroke-linejoin:miter;stroke-miterlimit:4;stroke-dasharray:none;stroke-opacity:1"
       d="m 287.80514,307.12192 c 0,0 -46.31157,-0.8374 -101.28572,60.02683"
       id="path4173"
       inkscape:connector-curvature="0"
       sodipodi:nodetypes="cc" />
    <path
       style="opacity:1;fill:#ffffff;fill-opacity:1;stroke:#000000;stroke-width:5;stroke-linecap:butt;stroke-linejoin:miter;stroke-miterlimit:4;stroke-dasharray:none;stroke-opacity:1"
       d="M 308.76268,520.51725 C 604.07921,824.45302 577.93038,460.71292 467.28023,416.23281"
       id="path4204"
       inkscape:connector-curvature="0"
       sodipodi:nodetypes="cc" />
    <path
       style="opacity:1;fill:#ffffff;fill-opacity:1;stroke:#000000;stroke-width:5;stroke-linecap:butt;stroke-linejoin:miter;stroke-miterlimit:4;stroke-dasharray:none;stroke-opacity:1"
       d="m 299.81731,415.2315 -1.98078,374.04017"
       id="path4177"
       inkscape:connector-curvature="0"
       sodipodi:nodetypes="cc" />
    <path
       style="opacity:1;fill:#ffffff;fill-opacity:1;stroke:#000000;stroke-width:5;stroke-linecap:butt;stroke-linejoin:miter;stroke-miterlimit:4;stroke-dasharray:none;stroke-opacity:1"
       d="M 282.72417,645.9462 C 278.19766,649.96977 87.097204,457.85938 161.24584,385.40494"
       id="path4181"
       inkscape:connector-curvature="0"
       sodipodi:nodetypes="cc" />
    <path
       style="opacity:1;fill:#ffffff;fill-opacity:1;stroke:#000000;stroke-width:5;stroke-linecap:butt;stroke-linejoin:miter;stroke-miterlimit:4;stroke-dasharray:none;stroke-opacity:1"
       d="m 465.56563,697.33874 c 90.12395,10.42488 131.86286,-45.15824 129.90872,91.93293"
       id="path4185"
       inkscape:connector-curvature="0"
       sodipodi:nodetypes="cc" />
    <path
       style="opacity:1;fill:#ffffff;fill-opacity:1;stroke:#000000;stroke-width:5;stroke-linecap:butt;stroke-linejoin:miter;stroke-miterlimit:4;stroke-dasharray:none;stroke-opacity:1"
       d="m 151.62013,789.27165 c 0,0 -18.11149,-215.96985 11.33894,-259.16382"
       id="path4193"
       inkscape:connector-curvature="0" />
    <path
       style="opacity:1;fill:#ffffff;fill-opacity:1;stroke:#000000;stroke-width:5;stroke-linecap:butt;stroke-linejoin:miter;stroke-miterlimit:4;stroke-dasharray:none;stroke-opacity:1"
       d="m 449.25795,789.27165 1.47798,-140.63204"
       id="path4195"
       inkscape:connector-curvature="0"
       sodipodi:nodetypes="cc" />
    <path
       style="opacity:1;fill:#ffffff;fill-opacity:1;stroke:#000000;stroke-width:5;stroke-linecap:butt;stroke-linejoin:miter;stroke-miterlimit:4;stroke-dasharray:none;stroke-opacity:1"
       d="m 445.15544,264.59055 6.41789,349.94186"
       id="path4200"
       inkscape:connector-curvature="0"
       sodipodi:nodetypes="cc" />
    <path
       style="fill:none;fill-rule:evenodd;stroke:#000000;stroke-width:5;stroke-linecap:butt;stroke-linejoin:miter;stroke-miterlimit:4;stroke-dasharray:none;stroke-opacity:1"
       d="m 186.51942,500.65739 c 0,0 88.37113,-157.06898 245.42029,-100.13148"
       id="path4201"
       inkscape:connector-curvature="0"
       sodipodi:nodetypes="cc" />
    <path
       style="opacity:1;fill:#ffffff;fill-opacity:1;stroke:#000000;stroke-width:5;stroke-linecap:butt;stroke-linejoin:miter;stroke-miterlimit:4;stroke-dasharray:none;stroke-opacity:1"
       d="m 240.95572,456.7258 46.16442,46.17018"
       id="path4175-9"
       inkscape:connector-curvature="0"
       sodipodi:nodetypes="cc" />
    <path
       style="opacity:1;fill:#ffffff;fill-opacity:1;stroke:#000000;stroke-width:5;stroke-linecap:butt;stroke-linejoin:miter;stroke-miterlimit:4;stroke-dasharray:none;stroke-opacity:1"
       d="m 310.34013,672.48942 c 23.55947,52.95728 98.53948,21.39782 129.90872,24.37525"
       id="path4185-5"
       inkscape:connector-curvature="0"
       sodipodi:nodetypes="cc" />
    <path
       style="opacity:1;fill:none;fill-opacity:1;stroke:#000000;stroke-width:5;stroke-linecap:butt;stroke-linejoin:miter;stroke-miterlimit:4;stroke-dasharray:none;stroke-dashoffset:0;stroke-opacity:1"
       d="m 163.94961,263.0907 a 9.999999,9.9999971 0 0 1 -9.99999,10 9.999999,9.9999971 0 0 1 -10,-10 9.999999,9.9999971 0 0 1 10,-10 9.999999,9.9999971 0 0 1 9.99999,10 z"
       id="path4431" />
    <path
       style="opacity:1;fill:none;fill-opacity:1;stroke:#000000;stroke-width:5;stroke-linecap:butt;stroke-linejoin:miter;stroke-miterlimit:4;stroke-dasharray:none;stroke-dashoffset:0;stroke-opacity:1"
       d="m 308.95016,263.31525 a 9.999999,9.9999971 0 0 1 -10,9.99999 9.999999,9.9999971 0 0 1 -9.99999,-9.99999 9.999999,9.9999971 0 0 1 9.99999,-10 9.999999,9.9999971 0 0 1 10,10 z"
       id="path4431-5" />
    <path
       style="opacity:1;fill:none;fill-opacity:1;stroke:#000000;stroke-width:5;stroke-linecap:butt;stroke-linejoin:miter;stroke-miterlimit:4;stroke-dasharray:none;stroke-dashoffset:0;stroke-opacity:1"
       d="m 455.15543,262.59058 a 9.999999,9.9999971 0 0 1 -10,9.99999 9.999999,9.9999971 0 0 1 -10,-9.99999 9.999999,9.9999971 0 0 1 10,-10 9.999999,9.9999971 0 0 1 10,10 z"
       id="path4431-1" />
    <path
       style="opacity:1;fill:none;fill-opacity:1;stroke:#000000;stroke-width:5;stroke-linecap:butt;stroke-linejoin:miter;stroke-miterlimit:4;stroke-dasharray:none;stroke-dashoffset:0;stroke-opacity:1"
       d="m 600.14484,263.0907 a 9.999999,9.9999971 0 0 1 -10,10 9.999999,9.9999971 0 0 1 -10,-10 9.999999,9.9999971 0 0 1 10,-10 9.999999,9.9999971 0 0 1 10,10 z"
       id="path4431-0" />
    <path
       style="opacity:1;fill:none;fill-opacity:1;stroke:#000000;stroke-width:5;stroke-linecap:butt;stroke-linejoin:miter;stroke-miterlimit:4;stroke-dasharray:none;stroke-dashoffset:0;stroke-opacity:1"
       d="m 161.62013,789.27167 a 9.999999,9.9999971 0 0 1 -10,9.99999 9.999999,9.9999971 0 0 1 -10,-9.99999 9.999999,9.9999971 0 0 1 10,-10 9.999999,9.9999971 0 0 1 10,10 z"
       id="path4431-4" />
    <path
       style="opacity:1;fill:none;fill-opacity:1;stroke:#000000;stroke-width:5;stroke-linecap:butt;stroke-linejoin:miter;stroke-miterlimit:4;stroke-dasharray:none;stroke-dashoffset:0;stroke-opacity:1"
       d="m 307.83655,789.27167 a 9.999999,9.9999971 0 0 1 -10,9.99999 9.999999,9.9999971 0 0 1 -10,-9.99999 9.999999,9.9999971 0 0 1 10,-10 9.999999,9.9999971 0 0 1 10,10 z"
       id="path4431-12" />
    <path
       style="opacity:1;fill:none;fill-opacity:1;stroke:#000000;stroke-width:5;stroke-linecap:butt;stroke-linejoin:miter;stroke-miterlimit:4;stroke-dasharray:none;stroke-dashoffset:0;stroke-opacity:1"
       d="m 459.25796,789.27167 a 9.999999,9.9999971 0 0 1 -9.99999,9.99999 9.999999,9.9999971 0 0 1 -10,-9.99999 9.999999,9.9999971 0 0 1 10,-10 9.999999,9.9999971 0 0 1 9.99999,10 z"
       id="path4431-07" />
    <path
       style="opacity:1;fill:none;fill-opacity:1;stroke:#000000;stroke-width:5;stroke-linecap:butt;stroke-linejoin:miter;stroke-miterlimit:4;stroke-dasharray:none;stroke-dashoffset:0;stroke-opacity:1"
       d="m 605.47436,789.27161 a 9.999999,9.9999971 0 0 1 -9.99999,9.99999 9.999999,9.9999971 0 0 1 -10,-9.99999 9.999999,9.9999971 0 0 1 10,-10 9.999999,9.9999971 0 0 1 9.99999,10 z"
       id="path4431-3" />
    <g
       style="font-style:normal;font-variant:normal;font-weight:normal;font-stretch:normal;font-size:40px;line-height:100%;font-family:'Times New Roman';-inkscape-font-specification:'Times New Roman, Normal';text-align:center;letter-spacing:0px;word-spacing:0px;writing-mode:lr-tb;text-anchor:middle;fill:#000000;fill-opacity:1;stroke:none;stroke-width:1px;stroke-linecap:butt;stroke-linejoin:miter;stroke-opacity:1"
       id="text5115-5">
      <path
         d="m 167.60872,231.50821 6.44531,-3.14453 0.64453,0 0,22.36328 q 0,2.22656 0.17578,2.77344 0.19532,0.54687 0.78125,0.83984 0.58594,0.29297 2.38282,0.33203 l 0,0.72266 -9.96094,0 0,-0.72266 q 1.875,-0.0391 2.42187,-0.3125 0.54688,-0.29297 0.76172,-0.76172 0.21485,-0.48828 0.21485,-2.87109 l 0,-14.29688 q 0,-2.89062 -0.19532,-3.71093 -0.13671,-0.625 -0.50781,-0.91797 -0.35156,-0.29297 -0.85937,-0.29297 -0.72266,0 -2.01172,0.60547 l -0.29297,-0.60547 z"
         style=""
         id="path3395" />
    </g>
    <g
       style="font-style:normal;font-variant:normal;font-weight:normal;font-stretch:normal;font-size:40px;line-height:100%;font-family:'Times New Roman';-inkscape-font-specification:'Times New Roman, Normal';text-align:center;letter-spacing:0px;word-spacing:0px;writing-mode:lr-tb;text-anchor:middle;fill:#000000;fill-opacity:1;stroke:none;stroke-width:1px;stroke-linecap:butt;stroke-linejoin:miter;stroke-opacity:1"
       id="text5115-3-5">
      <path
         d="m 288.83359,250.29727 -1.85547,5.09766 -15.625,0 0,-0.72266 q 6.89453,-6.28906 9.70703,-10.27344 2.8125,-3.98437 2.8125,-7.28515 0,-2.51953 -1.54297,-4.14063 -1.54297,-1.62109 -3.6914,-1.62109 -1.95313,0 -3.51563,1.15234 -1.54297,1.13282 -2.28516,3.33985 l -0.72265,0 q 0.48828,-3.61328 2.5,-5.54688 2.03125,-1.93359 5.05859,-1.93359 3.22266,0 5.3711,2.07031 2.16796,2.07031 2.16796,4.88281 0,2.01172 -0.9375,4.02344 -1.44531,3.16406 -4.6875,6.69922 -4.86328,5.3125 -6.07421,6.40625 l 6.91406,0 q 2.10937,0 2.94922,-0.15625 0.85937,-0.15625 1.54297,-0.625 0.68359,-0.48828 1.1914,-1.36719 l 0.72266,0 z"
         style=""
         id="path3398" />
    </g>
    <g
       style="font-style:normal;font-variant:normal;font-weight:normal;font-stretch:normal;font-size:40px;line-height:100%;font-family:'Times New Roman';-inkscape-font-specification:'Times New Roman, Normal';text-align:center;letter-spacing:0px;word-spacing:0px;writing-mode:lr-tb;text-anchor:middle;fill:#000000;fill-opacity:1;stroke:none;stroke-width:1px;stroke-linecap:butt;stroke-linejoin:miter;stroke-opacity:1"
       id="text5115-3-8-3">
      <path
         d="m 457.71664,235.20511 q 1.13282,-2.67578 2.85157,-4.1211 1.73828,-1.46484 4.3164,-1.46484 3.1836,0 4.88282,2.07031 1.28906,1.54297 1.28906,3.30078 0,2.89063 -3.63281,5.97657 2.4414,0.95703 3.6914,2.73437 1.25,1.77735 1.25,4.17969 0,3.4375 -2.1875,5.95703 -2.85156,3.28125 -8.26172,3.28125 -2.67578,0 -3.65234,-0.66406 -0.95703,-0.66406 -0.95703,-1.42578 0,-0.56641 0.44922,-0.9961 0.46875,-0.42968 1.11328,-0.42968 0.48828,0 0.99609,0.15625 0.33203,0.0976 1.50391,0.72265 1.17187,0.60547 1.62109,0.72266 0.72266,0.21484 1.54297,0.21484 1.99219,0 3.45703,-1.54297 1.48438,-1.54297 1.48438,-3.65234 0,-1.54297 -0.6836,-3.00781 -0.50781,-1.09375 -1.11328,-1.66016 -0.83984,-0.78125 -2.30469,-1.40625 -1.46484,-0.64453 -2.98828,-0.64453 l -0.625,0 0,-0.58594 q 1.54297,-0.19531 3.08594,-1.11328 1.5625,-0.91797 2.26563,-2.20703 0.70312,-1.28906 0.70312,-2.83203 0,-2.01172 -1.26953,-3.24219 -1.25,-1.25 -3.125,-1.25 -3.02734,0 -5.05859,3.24219 l -0.64454,-0.3125 z"
         style=""
         id="path3401" />
    </g>
    <g
       style="font-style:normal;font-variant:normal;font-weight:normal;font-stretch:normal;font-size:40px;line-height:100%;font-family:'Times New Roman';-inkscape-font-specification:'Times New Roman, Normal';text-align:center;letter-spacing:0px;word-spacing:0px;writing-mode:lr-tb;text-anchor:middle;fill:#000000;fill-opacity:1;stroke:none;stroke-width:1px;stroke-linecap:butt;stroke-linejoin:miter;stroke-opacity:1"
       id="text5115-3-6-1">
      <path
         d="m 576.63013,244.13945 0,2.77344 -3.55469,0 0,6.99219 -3.22266,0 0,-6.99219 -11.21093,0 0,-2.5 12.28515,-17.53906 2.14844,0 0,17.26562 3.55469,0 z m -6.77735,0 0,-13.14453 -9.29687,13.14453 9.29687,0 z"
         style=""
         id="path3404" />
    </g>
    <g
       style="font-style:normal;font-variant:normal;font-weight:normal;font-stretch:normal;font-size:40px;line-height:100%;font-family:'Times New Roman';-inkscape-font-specification:'Times New Roman, Normal';text-align:center;letter-spacing:0px;word-spacing:0px;writing-mode:lr-tb;text-anchor:middle;fill:#000000;fill-opacity:1;stroke:none;stroke-width:1px;stroke-linecap:butt;stroke-linejoin:miter;stroke-opacity:1"
       id="text5115">
      <path
         d="m 164.629,751.46875 6.44531,-3.14453 0.64453,0 0,22.36328 q 0,2.22656 0.17578,2.77344 0.19532,0.54687 0.78125,0.83984 0.58594,0.29297 2.38282,0.33203 l 0,0.72266 -9.96094,0 0,-0.72266 q 1.875,-0.0391 2.42187,-0.3125 0.54688,-0.29297 0.76172,-0.76172 0.21485,-0.48828 0.21485,-2.87109 l 0,-14.29688 q 0,-2.89062 -0.19532,-3.71093 -0.13672,-0.625 -0.50781,-0.91797 -0.35156,-0.29297 -0.85937,-0.29297 -0.72266,0 -2.01172,0.60547 l -0.29297,-0.60547 z"
         style=""
         id="path3407" />
    </g>
    <g
       style="font-style:normal;font-variant:normal;font-weight:normal;font-stretch:normal;font-size:40px;line-height:100%;font-family:'Times New Roman';-inkscape-font-specification:'Times New Roman, Normal';text-align:center;letter-spacing:0px;word-spacing:0px;writing-mode:lr-tb;text-anchor:middle;fill:#000000;fill-opacity:1;stroke:none;stroke-width:1px;stroke-linecap:butt;stroke-linejoin:miter;stroke-opacity:1"
       id="text5115-3">
      <path
         d="m 279.89444,774.72736 -1.85547,5.09765 -15.625,0 0,-0.72265 q 6.89453,-6.28907 9.70703,-10.27344 2.8125,-3.98438 2.8125,-7.28516 0,-2.51953 -1.54297,-4.14062 -1.54297,-1.6211 -3.6914,-1.6211 -1.95313,0 -3.51563,1.15235 -1.54297,1.13281 -2.28515,3.33984 l -0.72266,0 q 0.48828,-3.61328 2.5,-5.54687 2.03125,-1.9336 5.05859,-1.9336 3.22266,0 5.3711,2.07031 2.16797,2.07032 2.16797,4.88282 0,2.01172 -0.9375,4.02343 -1.44532,3.16407 -4.6875,6.69922 -4.86329,5.3125 -6.07422,6.40625 l 6.91406,0 q 2.10937,0 2.94922,-0.15625 0.85937,-0.15625 1.54297,-0.625 0.68359,-0.48828 1.1914,-1.36718 l 0.72266,0 z"
         style=""
         id="path3410" />
    </g>
    <g
       inkscape:transform-center-x="-11.918866"
       inkscape:transform-center-y="2.9797166"
       style="font-style:normal;font-variant:normal;font-weight:normal;font-stretch:normal;font-size:40px;line-height:100%;font-family:'Times New Roman';-inkscape-font-specification:'Times New Roman, Normal';text-align:center;letter-spacing:0px;word-spacing:0px;writing-mode:lr-tb;text-anchor:middle;fill:#000000;fill-opacity:1;stroke:none;stroke-width:1px;stroke-linecap:butt;stroke-linejoin:miter;stroke-opacity:1"
       id="text5115-3-8">
      <path
         d="m 462.69635,759.12506 q 1.13281,-2.67578 2.85156,-4.12109 1.73828,-1.46485 4.31641,-1.46485 3.18359,0 4.88281,2.07032 1.28906,1.54296 1.28906,3.30078 0,2.89062 -3.63281,5.97656 2.44141,0.95703 3.69141,2.73437 1.25,1.77735 1.25,4.17969 0,3.4375 -2.1875,5.95703 -2.85156,3.28125 -8.26172,3.28125 -2.67578,0 -3.65234,-0.66406 -0.95704,-0.66406 -0.95704,-1.42578 0,-0.56641 0.44922,-0.99609 0.46875,-0.42969 1.11328,-0.42969 0.48829,0 0.9961,0.15625 0.33203,0.0976 1.5039,0.72265 1.17188,0.60547 1.6211,0.72266 0.72265,0.21484 1.54297,0.21484 1.99218,0 3.45703,-1.54296 1.48437,-1.54297 1.48437,-3.65235 0,-1.54297 -0.68359,-3.00781 -0.50781,-1.09375 -1.11328,-1.66016 -0.83985,-0.78125 -2.30469,-1.40625 -1.46484,-0.64453 -2.98828,-0.64453 l -0.625,0 0,-0.58594 q 1.54297,-0.19531 3.08594,-1.11328 1.5625,-0.91797 2.26562,-2.20703 0.70313,-1.28906 0.70313,-2.83203 0,-2.01172 -1.26953,-3.24219 -1.25,-1.25 -3.125,-1.25 -3.02735,0 -5.0586,3.24219 l -0.64453,-0.3125 z"
         style=""
         id="path3413" />
    </g>
    <g
       style="font-style:normal;font-variant:normal;font-weight:normal;font-stretch:normal;font-size:40px;line-height:100%;font-family:'Times New Roman';-inkscape-font-specification:'Times New Roman, Normal';text-align:center;letter-spacing:0px;word-spacing:0px;writing-mode:lr-tb;text-anchor:middle;fill:#000000;fill-opacity:1;stroke:none;stroke-width:1px;stroke-linecap:butt;stroke-linejoin:miter;stroke-opacity:1"
       id="text5115-3-6">
      <path
         d="m 582.5896,771.54926 0,2.77343 -3.55469,0 0,6.99219 -3.22265,0 0,-6.99219 -11.21094,0 0,-2.5 12.28515,-17.53906 2.14844,0 0,17.26563 3.55469,0 z m -6.77734,0 0,-13.14454 -9.29688,13.14454 9.29688,0 z"
         style=""
         id="path3416" />
    </g>
  </g>
</svg>
