<?xml version="1.0" encoding="UTF-8" standalone="no"?>
<!-- Created with Inkscape (http://www.inkscape.org/) -->

<svg
   xmlns:dc="http://purl.org/dc/elements/1.1/"
   xmlns:cc="http://creativecommons.org/ns#"
   xmlns:rdf="http://www.w3.org/1999/02/22-rdf-syntax-ns#"
   xmlns:svg="http://www.w3.org/2000/svg"
   xmlns="http://www.w3.org/2000/svg"
   xmlns:sodipodi="http://sodipodi.sourceforge.net/DTD/sodipodi-0.dtd"
   xmlns:inkscape="http://www.inkscape.org/namespaces/inkscape"
   width="210mm"
   height="297mm"
   viewBox="0 0 744.09448819 1052.3622047"
   id="svg2"
   version="1.1"
   inkscape:version="0.91 r13725"
   sodipodi:docname="convertedone.svg">
  <defs
     id="defs4" />
  <sodipodi:namedview
     id="base"
     pagecolor="#ffffff"
     bordercolor="#666666"
     borderopacity="1.0"
     inkscape:pageopacity="0.0"
     inkscape:pageshadow="2"
     inkscape:zoom="0.52548447"
     inkscape:cx="372.04724"
     inkscape:cy="526.1811"
     inkscape:document-units="px"
     inkscape:current-layer="layer1"
     showgrid="false"
     inkscape:snap-page="true"
     inkscape:snap-text-baseline="true"
     inkscape:snap-others="true"
     inkscape:snap-bbox="true"
     inkscape:bbox-paths="true"
     inkscape:bbox-nodes="true"
     inkscape:snap-bbox-edge-midpoints="true"
     inkscape:snap-bbox-midpoints="true"
     inkscape:object-paths="true"
     inkscape:object-nodes="true"
     inkscape:snap-midpoints="true"
     inkscape:snap-center="true"
     inkscape:snap-object-midpoints="true"
     inkscape:snap-smooth-nodes="true"
     inkscape:snap-intersection-paths="true"
     inkscape:window-width="1366"
     inkscape:window-height="705"
     inkscape:window-x="-8"
     inkscape:window-y="-8"
     inkscape:window-maximized="1"
     showguides="true"
     inkscape:snap-to-guides="true"
     inkscape:snap-grids="true"
     inkscape:snap-nodes="true"
     inkscape:snap-global="true" />
  <metadata
     id="metadata7">
    <rdf:RDF>
      <cc:Work
         rdf:about="">
        <dc:format>image/svg+xml</dc:format>
        <dc:type
           rdf:resource="http://purl.org/dc/dcmitype/StillImage" />
        <dc:title></dc:title>
      </cc:Work>
    </rdf:RDF>
  </metadata>
  <g
     inkscape:label="Layer 1"
     inkscape:groupmode="layer"
     id="layer1">
    <path
       style="opacity:1;fill:#ffffff;fill-opacity:1;stroke:none;stroke-width:5;stroke-linecap:butt;stroke-linejoin:miter;stroke-miterlimit:4;stroke-dasharray:none;stroke-opacity:1"
       d="m 0,263.09055 744.09448,0 0,526.18109 -744.09448,0 z"
       id="rect4481" />
    <path
       style="opacity:1;fill:none;fill-opacity:1;stroke:#000000;stroke-width:5;stroke-linecap:butt;stroke-linejoin:miter;stroke-miterlimit:4;stroke-dasharray:none;stroke-dashoffset:0;stroke-opacity:1"
       d="M 129.3209,486.26957 C 334.84552,299.775 447.10365,309.29003 603.16934,484.36656"
       id="path3533"
       inkscape:connector-curvature="0" />
    <path
       style="opacity:1;fill:none;fill-opacity:1;stroke:#000000;stroke-width:5;stroke-linecap:butt;stroke-linejoin:miter;stroke-miterlimit:4;stroke-dasharray:none;stroke-dashoffset:0;stroke-opacity:1"
       d="M 211.23364,393.9222 C 83.732255,260.71179 7.6120236,355.86208 188.39757,639.40994"
       id="path4335"
       inkscape:connector-curvature="0" />
    <path
       style="opacity:1;fill:none;fill-opacity:1;stroke:#000000;stroke-width:5;stroke-linecap:butt;stroke-linejoin:miter;stroke-miterlimit:4;stroke-dasharray:none;stroke-dashoffset:0;stroke-opacity:1"
       d="M 97.053293,515.71457 C -57.090173,685.08208 243.58474,704.11214 388.21318,557.58069"
       id="path4337"
       inkscape:connector-curvature="0" />
    <path
       style="opacity:1;fill:none;fill-opacity:1;stroke:#000000;stroke-width:5;stroke-linecap:butt;stroke-linejoin:miter;stroke-miterlimit:4;stroke-dasharray:none;stroke-dashoffset:0;stroke-opacity:1"
       d="m 245.48774,420.56428 c 498.58752,416.75827 489.07249,211.23364 384.40718,95.15029"
       id="path4339"
       inkscape:connector-curvature="0" />
    <path
       style="opacity:1;fill:none;fill-opacity:1;stroke:#000000;stroke-width:5;stroke-linecap:butt;stroke-linejoin:miter;stroke-miterlimit:4;stroke-dasharray:none;stroke-dashoffset:0;stroke-opacity:1"
       d="M 411.04925,529.03561 C 481.46046,447.20636 515.71457,422.46728 515.71457,422.46728"
       id="path4341"
       inkscape:connector-curvature="0" />
    <path
       style="opacity:1;fill:none;fill-opacity:1;stroke:#000000;stroke-width:5;stroke-linecap:butt;stroke-linejoin:miter;stroke-miterlimit:4;stroke-dasharray:none;stroke-dashoffset:0;stroke-opacity:1"
       d="m 546.16266,405.34023 c 161.75549,-114.18035 97.0533,100.85931 -9.51503,205.52463"
       id="path4343"
       inkscape:connector-curvature="0" />
    <path
       style="opacity:1;fill:none;fill-opacity:1;stroke:#000000;stroke-width:5;stroke-linecap:butt;stroke-linejoin:miter;stroke-miterlimit:4;stroke-dasharray:none;stroke-dashoffset:0;stroke-opacity:1"
       d="m 211.23364,667.95503 c 144.62844,137.01642 296.8689,-26.64208 296.8689,-26.64208"
       id="path4345"
       inkscape:connector-curvature="0" />
    <path
       style="opacity:1;fill:none;fill-opacity:1;stroke:#000000;stroke-width:5;stroke-linecap:butt;stroke-linejoin:miter;stroke-miterlimit:4;stroke-dasharray:none;stroke-dashoffset:0;stroke-opacity:1"
       d="m 96.362266,422.94269 a 9.999999,9.9999971 0 0 1 -9.999999,10 9.999999,9.9999971 0 0 1 -10,-10 9.999999,9.9999971 0 0 1 10,-10 9.999999,9.9999971 0 0 1 9.999999,10 z"
       id="path4431" />
    <path
       style="opacity:1;fill:none;fill-opacity:1;stroke:#000000;stroke-width:5;stroke-linecap:butt;stroke-linejoin:miter;stroke-miterlimit:4;stroke-dasharray:none;stroke-dashoffset:0;stroke-opacity:1"
       d="m 197.30617,370.37561 a 9.999999,9.9999971 0 0 1 -10,10 9.999999,9.9999971 0 0 1 -10,-10 9.999999,9.9999971 0 0 1 10,-10 9.999999,9.9999971 0 0 1 10,10 z"
       id="path4431-5" />
    <path
       style="opacity:1;fill:none;fill-opacity:1;stroke:#000000;stroke-width:5;stroke-linecap:butt;stroke-linejoin:miter;stroke-miterlimit:4;stroke-dasharray:none;stroke-dashoffset:0;stroke-opacity:1"
       d="m 583.44507,387.66544 a 9.999999,9.9999971 0 0 1 -10,9.99999 9.999999,9.9999971 0 0 1 -10,-9.99999 9.999999,9.9999971 0 0 1 10,-10 9.999999,9.9999971 0 0 1 10,10 z"
       id="path4431-1" />
    <path
       style="opacity:1;fill:none;fill-opacity:1;stroke:#000000;stroke-width:5;stroke-linecap:butt;stroke-linejoin:miter;stroke-miterlimit:4;stroke-dasharray:none;stroke-dashoffset:0;stroke-opacity:1"
       d="m 646.841,447.21918 a 9.999999,9.9999971 0 0 1 -10,9.99999 9.999999,9.9999971 0 0 1 -10,-9.99999 9.999999,9.9999971 0 0 1 10,-10 9.999999,9.9999971 0 0 1 10,10 z"
       id="path4431-4" />
    <path
       style="opacity:1;fill:none;fill-opacity:1;stroke:#000000;stroke-width:5;stroke-linecap:butt;stroke-linejoin:miter;stroke-miterlimit:4;stroke-dasharray:none;stroke-dashoffset:0;stroke-opacity:1"
       d="m 64.751033,599.94574 a 9.999999,9.9999971 0 0 1 -9.999999,10 9.999999,9.9999971 0 0 1 -9.999999,-10 9.999999,9.9999971 0 0 1 9.999999,-10 9.999999,9.9999971 0 0 1 9.999999,10 z"
       id="path4431-54" />
    <path
       style="opacity:1;fill:none;fill-opacity:1;stroke:#000000;stroke-width:5;stroke-linecap:butt;stroke-linejoin:miter;stroke-miterlimit:4;stroke-dasharray:none;stroke-dashoffset:0;stroke-opacity:1"
       d="m 133.91024,653.73621 a 9.999999,9.9999971 0 0 1 -10,9.99999 9.999999,9.9999971 0 0 1 -10,-9.99999 9.999999,9.9999971 0 0 1 10,-10 9.999999,9.9999971 0 0 1 10,10 z"
       id="path4431-8" />
    <path
       style="opacity:1;fill:none;fill-opacity:1;stroke:#000000;stroke-width:5;stroke-linecap:butt;stroke-linejoin:miter;stroke-miterlimit:4;stroke-dasharray:none;stroke-dashoffset:0;stroke-opacity:1"
       d="m 416.3103,709.44781 a 9.999999,9.9999971 0 0 1 -10,10 9.999999,9.9999971 0 0 1 -10,-10 9.999999,9.9999971 0 0 1 10,-9.99999 9.999999,9.9999971 0 0 1 10,9.99999 z"
       id="path4431-85" />
    <path
       style="opacity:1;fill:none;fill-opacity:1;stroke:#000000;stroke-width:5;stroke-linecap:butt;stroke-linejoin:miter;stroke-miterlimit:4;stroke-dasharray:none;stroke-dashoffset:0;stroke-opacity:1"
       d="m 475.86407,676.78931 a 9.999999,9.9999971 0 0 1 -10,9.99999 9.999999,9.9999971 0 0 1 -9.99999,-9.99999 9.999999,9.9999971 0 0 1 9.99999,-10 9.999999,9.9999971 0 0 1 10,10 z"
       id="path4431-6" />
    <g
       style="font-style:normal;font-variant:normal;font-weight:normal;font-stretch:normal;font-size:40px;line-height:100%;font-family:'Times New Roman';-inkscape-font-specification:'Times New Roman, Normal';text-align:center;letter-spacing:0px;word-spacing:0px;writing-mode:lr-tb;text-anchor:middle;fill:#000000;fill-opacity:1;stroke:none;stroke-width:1px;stroke-linecap:butt;stroke-linejoin:miter;stroke-opacity:1"
       id="text5115">
      <path
         d="m 34.069824,619.28357 6.445313,-3.14453 0.644531,0 0,22.36328 q 0,2.22656 0.175781,2.77344 0.195313,0.54687 0.78125,0.83984 0.585938,0.29297 2.382813,0.33203 l 0,0.72266 -9.960938,0 0,-0.72266 q 1.875,-0.0391 2.421875,-0.3125 0.546875,-0.29297 0.761719,-0.76172 0.214844,-0.48828 0.214844,-2.87109 l 0,-14.29688 q 0,-2.89062 -0.195313,-3.71093 -0.136719,-0.625 -0.507812,-0.91797 -0.351563,-0.29297 -0.859375,-0.29297 -0.722657,0 -2.011719,0.60547 l -0.292969,-0.60547 z"
         style=""
         id="path6107" />
    </g>
    <g
       style="font-style:normal;font-variant:normal;font-weight:normal;font-stretch:normal;font-size:40px;line-height:100%;font-family:'Times New Roman';-inkscape-font-specification:'Times New Roman, Normal';text-align:center;letter-spacing:0px;word-spacing:0px;writing-mode:lr-tb;text-anchor:middle;fill:#000000;fill-opacity:1;stroke:none;stroke-width:1px;stroke-linecap:butt;stroke-linejoin:miter;stroke-opacity:1"
       id="text5115-3">
      <path
         d="m 134.26882,692.89166 -1.85547,5.09766 -15.625,0 0,-0.72266 q 6.89453,-6.28906 9.70703,-10.27343 2.8125,-3.98438 2.8125,-7.28516 0,-2.51953 -1.54296,-4.14063 -1.54297,-1.62109 -3.69141,-1.62109 -1.95313,0 -3.51563,1.15234 -1.54296,1.13282 -2.28515,3.33985 l -0.72266,0 q 0.48828,-3.61328 2.5,-5.54688 2.03125,-1.93359 5.0586,-1.93359 3.22265,0 5.37109,2.07031 2.16797,2.07031 2.16797,4.88281 0,2.01172 -0.9375,4.02344 -1.44531,3.16406 -4.6875,6.69922 -4.86328,5.3125 -6.07422,6.40625 l 6.91406,0 q 2.10938,0 2.94922,-0.15625 0.85938,-0.15625 1.54297,-0.625 0.68359,-0.48828 1.19141,-1.36719 l 0.72265,0 z"
         style=""
         id="path6110" />
    </g>
    <g
       style="font-style:normal;font-variant:normal;font-weight:normal;font-stretch:normal;font-size:40px;line-height:100%;font-family:'Times New Roman';-inkscape-font-specification:'Times New Roman, Normal';text-align:center;letter-spacing:0px;word-spacing:0px;writing-mode:lr-tb;text-anchor:middle;fill:#000000;fill-opacity:1;stroke:none;stroke-width:1px;stroke-linecap:butt;stroke-linejoin:miter;stroke-opacity:1"
       id="text5115-3-6">
      <path
         d="m 432.61377,739.13251 0,2.77343 -3.55469,0 0,6.99219 -3.22265,0 0,-6.99219 -11.21094,0 0,-2.5 12.28515,-17.53906 2.14844,0 0,17.26563 3.55469,0 z m -6.77734,0 0,-13.14453 -9.29688,13.14453 9.29688,0 z"
         style=""
         id="path6113" />
    </g>
    <g
       style="font-style:normal;font-variant:normal;font-weight:normal;font-stretch:normal;font-size:40px;line-height:100%;font-family:'Times New Roman';-inkscape-font-specification:'Times New Roman, Normal';text-align:center;letter-spacing:0px;word-spacing:0px;writing-mode:lr-tb;text-anchor:middle;fill:#000000;fill-opacity:1;stroke:none;stroke-width:1px;stroke-linecap:butt;stroke-linejoin:miter;stroke-opacity:1"
       id="text5115-3-8">
      <path
         d="m 486.15149,689.03107 q 1.13281,-2.67578 2.85156,-4.1211 1.73828,-1.46484 4.31641,-1.46484 3.18359,0 4.88281,2.07031 1.28906,1.54297 1.28906,3.30078 0,2.89063 -3.63281,5.97657 2.44141,0.95703 3.69141,2.73437 1.25,1.77734 1.25,4.17969 0,3.4375 -2.1875,5.95703 -2.85157,3.28125 -8.26172,3.28125 -2.67578,0 -3.65235,-0.66406 -0.95703,-0.66407 -0.95703,-1.42578 0,-0.56641 0.44922,-0.9961 0.46875,-0.42969 1.11328,-0.42969 0.48828,0 0.9961,0.15625 0.33203,0.0977 1.5039,0.72266 1.17188,0.60547 1.6211,0.72266 0.72265,0.21484 1.54297,0.21484 1.99218,0 3.45703,-1.54297 1.48437,-1.54297 1.48437,-3.65234 0,-1.54297 -0.68359,-3.00781 -0.50781,-1.09375 -1.11328,-1.66016 -0.83985,-0.78125 -2.30469,-1.40625 -1.46484,-0.64453 -2.98828,-0.64453 l -0.625,0 0,-0.58594 q 1.54297,-0.19531 3.08594,-1.11328 1.5625,-0.91797 2.26562,-2.20703 0.70313,-1.28906 0.70313,-2.83203 0,-2.01172 -1.26954,-3.24219 -1.25,-1.25 -3.125,-1.25 -3.02734,0 -5.05859,3.24219 l -0.64453,-0.3125 z"
         style=""
         id="path6116" />
    </g>
    <g
       style="font-style:normal;font-variant:normal;font-weight:normal;font-stretch:normal;font-size:40px;line-height:100%;font-family:'Times New Roman';-inkscape-font-specification:'Times New Roman, Normal';text-align:center;letter-spacing:0px;word-spacing:0px;writing-mode:lr-tb;text-anchor:middle;fill:#000000;fill-opacity:1;stroke:none;stroke-width:1px;stroke-linecap:butt;stroke-linejoin:miter;stroke-opacity:1"
       id="text5115-3-6-1">
      <path
         d="m 70.468987,433.67938 0,2.77344 -3.554688,0 0,6.99219 -3.222656,0 0,-6.99219 -11.210938,0 0,-2.5 12.285157,-17.53906 2.148437,0 0,17.26562 3.554688,0 z m -6.777344,0 0,-13.14453 -9.296875,13.14453 9.296875,0 z"
         style=""
         id="path6119" />
    </g>
    <g
       style="font-style:normal;font-variant:normal;font-weight:normal;font-stretch:normal;font-size:40px;line-height:100%;font-family:'Times New Roman';-inkscape-font-specification:'Times New Roman, Normal';text-align:center;letter-spacing:0px;word-spacing:0px;writing-mode:lr-tb;text-anchor:middle;fill:#000000;fill-opacity:1;stroke:none;stroke-width:1px;stroke-linecap:butt;stroke-linejoin:miter;stroke-opacity:1"
       id="text5115-5">
      <path
         d="m 208.02603,347.51746 6.44531,-3.14454 0.64454,0 0,22.36329 q 0,2.22656 0.17578,2.77343 0.19531,0.54688 0.78125,0.83985 0.58593,0.29297 2.38281,0.33203 l 0,0.72265 -9.96094,0 0,-0.72265 q 1.875,-0.0391 2.42188,-0.3125 0.54687,-0.29297 0.76172,-0.76172 0.21484,-0.48828 0.21484,-2.87109 l 0,-14.29688 q 0,-2.89062 -0.19531,-3.71094 -0.13672,-0.625 -0.50782,-0.91797 -0.35156,-0.29296 -0.85937,-0.29296 -0.72266,0 -2.01172,0.60546 l -0.29297,-0.60546 z"
         style=""
         id="path6122" />
    </g>
    <g
       style="font-style:normal;font-variant:normal;font-weight:normal;font-stretch:normal;font-size:40px;line-height:100%;font-family:'Times New Roman';-inkscape-font-specification:'Times New Roman, Normal';text-align:center;letter-spacing:0px;word-spacing:0px;writing-mode:lr-tb;text-anchor:middle;fill:#000000;fill-opacity:1;stroke:none;stroke-width:1px;stroke-linecap:butt;stroke-linejoin:miter;stroke-opacity:1"
       id="text5115-3-5">
      <path
         d="m 576.422,362.46436 -1.85547,5.09765 -15.625,0 0,-0.72265 q 6.89453,-6.28907 9.70703,-10.27344 2.8125,-3.98438 2.8125,-7.28516 0,-2.51953 -1.54297,-4.14062 -1.54297,-1.6211 -3.69141,-1.6211 -1.95312,0 -3.51562,1.15235 -1.54297,1.13281 -2.28516,3.33984 l -0.72265,0 q 0.48828,-3.61328 2.5,-5.54687 2.03125,-1.9336 5.05859,-1.9336 3.22266,0 5.37109,2.07031 2.16797,2.07032 2.16797,4.88282 0,2.01172 -0.9375,4.02343 -1.44531,3.16407 -4.6875,6.69922 -4.86328,5.3125 -6.07422,6.40625 l 6.91407,0 q 2.10937,0 2.94922,-0.15625 0.85937,-0.15625 1.54296,-0.625 0.6836,-0.48828 1.19141,-1.36718 l 0.72266,0 z"
         style=""
         id="path6125" />
    </g>
    <g
       style="font-style:normal;font-variant:normal;font-weight:normal;font-stretch:normal;font-size:40px;line-height:100%;font-family:'Times New Roman';-inkscape-font-specification:'Times New Roman, Normal';text-align:center;letter-spacing:0px;word-spacing:0px;writing-mode:lr-tb;text-anchor:middle;fill:#000000;fill-opacity:1;stroke:none;stroke-width:1px;stroke-linecap:butt;stroke-linejoin:miter;stroke-opacity:1"
       id="text5115-3-8-3">
      <path
         d="m 656.61707,437.13403 q 1.13281,-2.67578 2.85156,-4.12109 1.73828,-1.46484 4.3164,-1.46484 3.1836,0 4.88282,2.07031 1.28906,1.54297 1.28906,3.30078 0,2.89062 -3.63281,5.97656 2.4414,0.95703 3.6914,2.73438 1.25,1.77734 1.25,4.17968 0,3.4375 -2.1875,5.95704 -2.85156,3.28125 -8.26172,3.28125 -2.67578,0 -3.65234,-0.66407 -0.95703,-0.66406 -0.95703,-1.42578 0,-0.5664 0.44922,-0.99609 0.46875,-0.42969 1.11328,-0.42969 0.48828,0 0.99609,0.15625 0.33203,0.0977 1.50391,0.72266 1.17187,0.60547 1.62109,0.72265 0.72266,0.21485 1.54297,0.21485 1.99219,0 3.45703,-1.54297 1.48438,-1.54297 1.48438,-3.65235 0,-1.54296 -0.6836,-3.00781 -0.50781,-1.09375 -1.11328,-1.66015 -0.83984,-0.78125 -2.30468,-1.40625 -1.46485,-0.64454 -2.98829,-0.64454 l -0.625,0 0,-0.58593 q 1.54297,-0.19532 3.08594,-1.11328 1.5625,-0.91797 2.26563,-2.20704 0.70312,-1.28906 0.70312,-2.83203 0,-2.01172 -1.26953,-3.24218 -1.25,-1.25 -3.125,-1.25 -3.02734,0 -5.05859,3.24218 l -0.64453,-0.3125 z"
         style=""
         id="path6128" />
    </g>
  </g>
</svg>
