<?xml version="1.0" encoding="UTF-8" standalone="no"?>
<!-- Created with Inkscape (http://www.inkscape.org/) -->

<svg
   xmlns:dc="http://purl.org/dc/elements/1.1/"
   xmlns:cc="http://creativecommons.org/ns#"
   xmlns:rdf="http://www.w3.org/1999/02/22-rdf-syntax-ns#"
   xmlns:svg="http://www.w3.org/2000/svg"
   xmlns="http://www.w3.org/2000/svg"
   xmlns:sodipodi="http://sodipodi.sourceforge.net/DTD/sodipodi-0.dtd"
   xmlns:inkscape="http://www.inkscape.org/namespaces/inkscape"
   width="210mm"
   height="297mm"
   viewBox="0 0 744.09448819 1052.3622047"
   id="svg2"
   version="1.1"
   inkscape:version="0.91 r13725"
   sodipodi:docname="example.svg">
  <defs
     id="defs4" />
  <sodipodi:namedview
     id="base"
     pagecolor="#ffffff"
     bordercolor="#666666"
     borderopacity="1.0"
     inkscape:pageopacity="0.0"
     inkscape:pageshadow="2"
     inkscape:zoom="0.50933034"
     inkscape:cx="372.04724"
     inkscape:cy="526.1811"
     inkscape:document-units="px"
     inkscape:current-layer="layer1"
     showgrid="false"
     inkscape:snap-page="true"
     inkscape:snap-text-baseline="true"
     inkscape:snap-others="true"
     inkscape:snap-bbox="true"
     inkscape:bbox-paths="true"
     inkscape:bbox-nodes="true"
     inkscape:snap-bbox-edge-midpoints="true"
     inkscape:snap-bbox-midpoints="true"
     inkscape:object-paths="true"
     inkscape:object-nodes="true"
     inkscape:snap-midpoints="true"
     inkscape:snap-center="true"
     inkscape:snap-object-midpoints="true"
     inkscape:snap-smooth-nodes="true"
     inkscape:snap-intersection-paths="true"
     inkscape:window-width="1366"
     inkscape:window-height="705"
     inkscape:window-x="-8"
     inkscape:window-y="-8"
     inkscape:window-maximized="1"
     showguides="true"
     inkscape:snap-to-guides="true"
     inkscape:snap-grids="true"
     inkscape:snap-nodes="true"
     inkscape:snap-global="true" />
  <metadata
     id="metadata7">
    <rdf:RDF>
      <cc:Work
         rdf:about="">
        <dc:format>image/svg+xml</dc:format>
        <dc:type
           rdf:resource="http://purl.org/dc/dcmitype/StillImage" />
        <dc:title />
      </cc:Work>
    </rdf:RDF>
  </metadata>
  <g
     inkscape:label="Layer 1"
     inkscape:groupmode="layer"
     id="layer1">
    <path
       style="fill:none;fill-rule:evenodd;stroke:#000000;stroke-width:5;stroke-linecap:butt;stroke-linejoin:miter;stroke-miterlimit:4;stroke-dasharray:none;stroke-opacity:1"
       d="m 0,263.09055 148.8189,0 148.81889,0 148.8189,0 148.81889,0 148.81891,0"
       id="path4379"
       inkscape:connector-curvature="0"
       sodipodi:nodetypes="cccccc" />
    <path
       style="fill:none;fill-rule:evenodd;stroke:#000000;stroke-width:5;stroke-linecap:butt;stroke-linejoin:miter;stroke-opacity:1;stroke-miterlimit:4;stroke-dasharray:none"
       d="m 0,263.09055 0,526.1811"
       id="path4383"
       inkscape:connector-curvature="0" />
    <path
       style="fill:none;fill-rule:evenodd;stroke:#000000;stroke-width:5;stroke-linecap:butt;stroke-linejoin:miter;stroke-miterlimit:4;stroke-dasharray:none;stroke-opacity:1"
       d="m 744.09449,789.27165 0,-526.1811"
       id="path4385"
       inkscape:connector-curvature="0"
       sodipodi:nodetypes="cc" />
    <path
       style="fill:none;fill-rule:evenodd;stroke:#000000;stroke-width:5;stroke-linecap:butt;stroke-linejoin:miter;stroke-miterlimit:4;stroke-dasharray:none;stroke-opacity:1"
       d="m 1.5,789.27165 148.81889,0 148.81889,0 148.8189,0 148.81889,0 148.81891,0"
       id="path4379-3"
       inkscape:connector-curvature="0"
       sodipodi:nodetypes="cccccc" />
    <path
       style="opacity:1;fill:#ffffff;fill-opacity:1;stroke:#000000;stroke-width:5;stroke-linecap:butt;stroke-linejoin:miter;stroke-miterlimit:4;stroke-dasharray:none;stroke-opacity:1"
       d="M 590.15002,261.59055 A 218.10278,218.10243 0 0 1 372.04724,479.69298 218.10278,218.10243 0 0 1 153.94446,261.59055 218.10278,218.10243 0 0 1 372.04724,43.488113 218.10278,218.10243 0 0 1 590.15002,261.59055 Z"
       id="path4479-8" />
    <path
       style="opacity:1;fill:#ffffff;fill-opacity:1;stroke:#000000;stroke-width:5;stroke-linecap:butt;stroke-linejoin:miter;stroke-miterlimit:4;stroke-dasharray:none;stroke-opacity:1"
       d="m 445.15544,264.59055 a 73.1082,73.108078 0 0 1 -73.1082,73.10807 73.1082,73.108078 0 0 1 -73.1082,-73.10807 73.1082,73.108078 0 0 1 73.1082,-73.10808 73.1082,73.108078 0 0 1 73.1082,73.10808 z"
       id="path4479" />
    <path
       style="opacity:1;fill:#ffffff;fill-opacity:1;stroke:#000000;stroke-width:5;stroke-linecap:butt;stroke-linejoin:miter;stroke-miterlimit:4;stroke-dasharray:none;stroke-opacity:1"
       d="m 297.83653,789.27167 a 73.1082,73.108078 0 0 1 -73.1082,73.10808 73.1082,73.108078 0 0 1 -73.1082,-73.10808 73.1082,73.108078 0 0 1 73.1082,-73.10808 73.1082,73.108078 0 0 1 73.1082,73.10808 z"
       id="path4479-5" />
    <path
       style="opacity:1;fill:#ffffff;fill-opacity:1;stroke:#000000;stroke-width:5;stroke-linecap:butt;stroke-linejoin:miter;stroke-miterlimit:4;stroke-dasharray:none;stroke-opacity:1"
       d="m 595.47435,789.27167 a 73.1082,73.108078 0 0 1 -73.1082,73.10808 73.1082,73.108078 0 0 1 -73.1082,-73.10808 73.1082,73.108078 0 0 1 73.1082,-73.10808 73.1082,73.108078 0 0 1 73.1082,73.10808 z"
       id="path4479-1" />
    <path
       style="opacity:1;fill:#ffffff;fill-opacity:1;stroke:#000000;stroke-width:5;stroke-linecap:butt;stroke-linejoin:miter;stroke-miterlimit:4;stroke-dasharray:none;stroke-opacity:1"
       d="m 0,263.09055 744.09448,0 0,526.18109 -744.09448,0 z"
       id="rect4481" />
    <path
       style="fill:none;fill-rule:evenodd;stroke:#000000;stroke-width:5;stroke-linecap:butt;stroke-linejoin:miter;stroke-miterlimit:4;stroke-dasharray:none;stroke-opacity:1"
       d="m 298.95968,263.09042 -0.52457,124.29722"
       id="path4199"
       inkscape:connector-curvature="0"
       sodipodi:nodetypes="cc" />
    <path
       style="opacity:1;fill:#ffffff;fill-opacity:1;stroke:#000000;stroke-width:5;stroke-linecap:butt;stroke-linejoin:miter;stroke-miterlimit:4;stroke-dasharray:none;stroke-opacity:1"
       d="m 153.95366,263.09055 c 0,0 -5.83176,108.85048 66.81264,173.64144"
       id="path4155"
       inkscape:connector-curvature="0"
       sodipodi:nodetypes="cc" />
    <g
       style="font-style:normal;font-variant:normal;font-weight:normal;font-stretch:normal;font-size:40px;line-height:100%;font-family:'Times New Roman';-inkscape-font-specification:'Times New Roman, Normal';text-align:start;letter-spacing:0px;word-spacing:0px;writing-mode:lr-tb;text-anchor:start;fill:#000000;fill-opacity:1;stroke:none;stroke-width:5;stroke-linecap:butt;stroke-linejoin:miter;stroke-miterlimit:4;stroke-dasharray:none;stroke-opacity:1"
       id="text3365-7">
      <path
         d="m 128.29379,305.73022 6.44532,-3.14453 0.64453,0 0,22.36328 q 0,2.22657 0.17578,2.77344 0.19531,0.54688 0.78125,0.83985 0.58594,0.29296 2.38281,0.33203 l 0,0.72265 -9.96094,0 0,-0.72265 q 1.875,-0.0391 2.42188,-0.3125 0.54687,-0.29297 0.76172,-0.76172 0.21484,-0.48828 0.21484,-2.8711 l 0,-14.29687 q 0,-2.89063 -0.19531,-3.71094 -0.13672,-0.625 -0.50781,-0.91797 -0.35157,-0.29297 -0.85938,-0.29297 -0.72266,0 -2.01172,0.60547 l -0.29297,-0.60547 z"
         style=""
         id="path4235" />
    </g>
    <g
       style="font-style:normal;font-variant:normal;font-weight:normal;font-stretch:normal;font-size:40px;line-height:100%;font-family:'Times New Roman';-inkscape-font-specification:'Times New Roman, Normal';text-align:start;letter-spacing:0px;word-spacing:0px;writing-mode:lr-tb;text-anchor:start;fill:#000000;fill-opacity:1;stroke:none;stroke-width:5;stroke-linecap:butt;stroke-linejoin:miter;stroke-miterlimit:4;stroke-dasharray:none;stroke-opacity:1"
       id="text3365-9">
      <path
         d="m 216.70045,399.01715 -1.85546,5.09766 -15.625,0 0,-0.72266 q 6.89453,-6.28906 9.70703,-10.27344 2.8125,-3.98437 2.8125,-7.28515 0,-2.51953 -1.54297,-4.14063 -1.54297,-1.62109 -3.69141,-1.62109 -1.95312,0 -3.51562,1.15234 -1.54297,1.13281 -2.28516,3.33985 l -0.72266,0 q 0.48829,-3.61329 2.5,-5.54688 2.03125,-1.93359 5.0586,-1.93359 3.22265,0 5.37109,2.07031 2.16797,2.07031 2.16797,4.88281 0,2.01172 -0.9375,4.02344 -1.44531,3.16406 -4.6875,6.69922 -4.86328,5.3125 -6.07422,6.40625 l 6.91406,0 q 2.10938,0 2.94922,-0.15625 0.85938,-0.15625 1.54297,-0.625 0.6836,-0.48828 1.19141,-1.36719 l 0.72265,0 z"
         style=""
         id="path4238" />
    </g>
    <path
       style="opacity:1;fill:#ffffff;fill-opacity:1;stroke:#000000;stroke-width:5;stroke-linecap:butt;stroke-linejoin:miter;stroke-miterlimit:4;stroke-dasharray:none;stroke-opacity:1"
       d="m 590.14486,263.09042 c -2.21633,29.55745 19.62383,46.1076 -126.78732,45.15734"
       id="path4169"
       inkscape:connector-curvature="0"
       sodipodi:nodetypes="cc" />
    <g
       style="font-style:normal;font-variant:normal;font-weight:normal;font-stretch:normal;font-size:40px;line-height:100%;font-family:'Times New Roman';-inkscape-font-specification:'Times New Roman, Normal';text-align:start;letter-spacing:0px;word-spacing:0px;writing-mode:lr-tb;text-anchor:start;fill:#000000;fill-opacity:1;stroke:none;stroke-width:5;stroke-linecap:butt;stroke-linejoin:miter;stroke-miterlimit:4;stroke-dasharray:none;stroke-opacity:1"
       id="text3365-5">
      <path
         d="m 249.47592,496.94751 q 1.13281,-2.67578 2.85156,-4.12109 1.73829,-1.46485 4.31641,-1.46485 3.18359,0 4.88281,2.07031 1.28907,1.54297 1.28907,3.30079 0,2.89062 -3.63282,5.97656 2.44141,0.95703 3.69141,2.73437 1.25,1.77735 1.25,4.17969 0,3.4375 -2.1875,5.95703 -2.85156,3.28125 -8.26172,3.28125 -2.67578,0 -3.65234,-0.66406 -0.95703,-0.66406 -0.95703,-1.42578 0,-0.56641 0.44921,-0.9961 0.46875,-0.42968 1.11329,-0.42968 0.48828,0 0.99609,0.15625 0.33203,0.0976 1.50391,0.72265 1.17187,0.60547 1.62109,0.72266 0.72266,0.21484 1.54297,0.21484 1.99219,0 3.45703,-1.54297 1.48437,-1.54296 1.48437,-3.65234 0,-1.54297 -0.68359,-3.00781 -0.50781,-1.09375 -1.11328,-1.66016 -0.83984,-0.78125 -2.30469,-1.40625 -1.46484,-0.64453 -2.98828,-0.64453 l -0.625,0 0,-0.58594 q 1.54297,-0.19531 3.08594,-1.11328 1.5625,-0.91797 2.26562,-2.20703 0.70313,-1.28906 0.70313,-2.83203 0,-2.01172 -1.26953,-3.24219 -1.25,-1.25 -3.125,-1.25 -3.02735,0 -5.0586,3.24219 l -0.64453,-0.3125 z"
         style=""
         id="path4241" />
    </g>
    <path
       style="opacity:1;fill:#ffffff;fill-opacity:1;stroke:#000000;stroke-width:5;stroke-linecap:butt;stroke-linejoin:miter;stroke-miterlimit:4;stroke-dasharray:none;stroke-opacity:1"
       d="m 435.87048,308.24775 c -119.76511,0 -119.76511,0 -119.76511,0"
       id="path4171"
       inkscape:connector-curvature="0" />
    <g
       style="font-style:normal;font-variant:normal;font-weight:normal;font-stretch:normal;font-size:40px;line-height:100%;font-family:'Times New Roman';-inkscape-font-specification:'Times New Roman, Normal';text-align:start;letter-spacing:0px;word-spacing:0px;writing-mode:lr-tb;text-anchor:start;fill:#000000;fill-opacity:1;stroke:none;stroke-width:5;stroke-linecap:butt;stroke-linejoin:miter;stroke-miterlimit:4;stroke-dasharray:none;stroke-opacity:1"
       id="text3365-72">
      <path
         d="m 376.00626,551.45483 0,2.77344 -3.55469,0 0,6.99219 -3.22266,0 0,-6.99219 -11.21094,0 0,-2.5 12.28516,-17.53906 2.14844,0 0,17.26562 3.55469,0 z m -6.77735,0 0,-13.14453 -9.29687,13.14453 9.29687,0 z"
         style=""
         id="path4244" />
    </g>
    <path
       style="opacity:1;fill:#ffffff;fill-opacity:1;stroke:#000000;stroke-width:5;stroke-linecap:butt;stroke-linejoin:miter;stroke-miterlimit:4;stroke-dasharray:none;stroke-opacity:1"
       d="m 287.80918,307.12179 c 0,0 -46.31157,-0.8374 -101.28572,60.02683"
       id="path4173"
       inkscape:connector-curvature="0"
       sodipodi:nodetypes="cc" />
    <g
       style="font-style:normal;font-variant:normal;font-weight:normal;font-stretch:normal;font-size:40px;line-height:100%;font-family:'Times New Roman';-inkscape-font-specification:'Times New Roman, Normal';text-align:start;letter-spacing:0px;word-spacing:0px;writing-mode:lr-tb;text-anchor:start;fill:#000000;fill-opacity:1;stroke:none;stroke-width:5;stroke-linecap:butt;stroke-linejoin:miter;stroke-miterlimit:4;stroke-dasharray:none;stroke-opacity:1"
       id="text3365-90">
      <path
         d="m 571.20239,528.84595 -1.52343,3.32031 -7.96875,0 -1.73829,3.55469 q 5.17579,0.76172 8.20313,3.84765 2.59766,2.65625 2.59766,6.25 0,2.08985 -0.85938,3.86719 -0.83984,1.77734 -2.12891,3.02734 -1.28906,1.25 -2.87109,2.01172 -2.24609,1.07422 -4.60937,1.07422 -2.38282,0 -3.47657,-0.80078 -1.07422,-0.82031 -1.07422,-1.79687 0,-0.54688 0.44922,-0.95704 0.44922,-0.42968 1.13282,-0.42968 0.50781,0 0.8789,0.15625 0.39063,0.15625 1.3086,0.80078 1.46484,1.01562 2.96875,1.01562 2.28515,0 4.0039,-1.71875 1.73828,-1.73828 1.73828,-4.21875 0,-2.40234 -1.54297,-4.47265 -1.54296,-2.08985 -4.25781,-3.22266 -2.1289,-0.87891 -5.80078,-1.01562 l 5.07813,-10.29297 9.49218,0 z"
         style=""
         id="path4247" />
    </g>
    <path
       style="opacity:1;fill:#ffffff;fill-opacity:1;stroke:#000000;stroke-width:5;stroke-linecap:butt;stroke-linejoin:miter;stroke-miterlimit:4;stroke-dasharray:none;stroke-opacity:1"
       d="M 308.76672,520.51712 C 604.08325,824.45289 577.93442,460.71279 467.28427,416.23268"
       id="path4204"
       inkscape:connector-curvature="0"
       sodipodi:nodetypes="cc" />
    <g
       style="font-style:normal;font-variant:normal;font-weight:normal;font-stretch:normal;font-size:40px;line-height:100%;font-family:'Times New Roman';-inkscape-font-specification:'Times New Roman, Normal';text-align:start;letter-spacing:0px;word-spacing:0px;writing-mode:lr-tb;text-anchor:start;fill:#000000;fill-opacity:1;stroke:none;stroke-width:5;stroke-linecap:butt;stroke-linejoin:miter;stroke-miterlimit:4;stroke-dasharray:none;stroke-opacity:1"
       id="text3365-6">
      <path
         d="m 385.43256,349.81631 0,0.72266 q -2.57813,0.25391 -4.21875,1.03516 -1.6211,0.76172 -3.22266,2.34375 -1.58203,1.58203 -2.63672,3.53515 -1.03516,1.9336 -1.73828,4.60938 2.8125,-1.9336 5.64453,-1.9336 2.71484,0 4.70703,2.1875 1.99219,2.1875 1.99219,5.625 0,3.32032 -2.01172,6.05469 -2.42187,3.32031 -6.40625,3.32031 -2.71484,0 -4.60937,-1.79687 -3.71094,-3.49609 -3.71094,-9.0625 0,-3.55469 1.42578,-6.75781 1.42578,-3.20313 4.0625,-5.6836 2.65625,-2.48047 5.07812,-3.33984 2.42188,-0.85938 4.51172,-0.85938 l 1.13282,0 z m -12.14844,13.67188 q -0.35156,2.63672 -0.35156,4.25781 0,1.875 0.68359,4.08203 0.70312,2.1875 2.07031,3.47657 0.9961,0.91796 2.42188,0.91796 1.69922,0 3.02734,-1.60156 1.34766,-1.60156 1.34766,-4.57031 0,-3.33984 -1.32813,-5.78125 -1.32812,-2.44141 -3.76953,-2.44141 -0.74219,0 -1.60156,0.3125 -0.83985,0.3125 -2.5,1.34766 z"
         style=""
         id="path4250" />
    </g>
    <path
       style="opacity:1;fill:#ffffff;fill-opacity:1;stroke:#000000;stroke-width:5;stroke-linecap:butt;stroke-linejoin:miter;stroke-miterlimit:4;stroke-dasharray:none;stroke-opacity:1"
       d="m 299.82135,415.23137 -1.98078,374.04017"
       id="path4177"
       inkscape:connector-curvature="0"
       sodipodi:nodetypes="cc" />
    <g
       style="font-style:normal;font-variant:normal;font-weight:normal;font-stretch:normal;font-size:40px;line-height:100%;font-family:'Times New Roman';-inkscape-font-specification:'Times New Roman, Normal';text-align:start;letter-spacing:0px;word-spacing:0px;writing-mode:lr-tb;text-anchor:start;fill:#000000;fill-opacity:1;stroke:none;stroke-width:5;stroke-linecap:butt;stroke-linejoin:miter;stroke-miterlimit:4;stroke-dasharray:none;stroke-opacity:1"
       id="text3365-53">
      <path
         d="m 249.54138,383.7037 14.19922,0 0,0.74219 -8.82812,26.28906 -2.1875,0 7.91015,-23.84765 -7.28515,0 q -2.20704,0 -3.14454,0.52734 -1.64062,0.89844 -2.63671,2.77344 l -0.56641,-0.21484 2.53906,-6.26954 z"
         style=""
         id="path4253" />
    </g>
    <path
       style="opacity:1;fill:#ffffff;fill-opacity:1;stroke:#000000;stroke-width:5;stroke-linecap:butt;stroke-linejoin:miter;stroke-miterlimit:4;stroke-dasharray:none;stroke-opacity:1"
       d="M 282.72821,645.94607 C 278.2017,649.96964 87.101252,457.85925 161.24988,385.40481"
       id="path4181"
       inkscape:connector-curvature="0"
       sodipodi:nodetypes="cc" />
    <g
       style="font-style:normal;font-variant:normal;font-weight:normal;font-stretch:normal;font-size:40px;line-height:100%;font-family:'Times New Roman';-inkscape-font-specification:'Times New Roman, Normal';text-align:start;letter-spacing:0px;word-spacing:0px;writing-mode:lr-tb;text-anchor:start;fill:#000000;fill-opacity:1;stroke:none;stroke-width:5;stroke-linecap:butt;stroke-linejoin:miter;stroke-miterlimit:4;stroke-dasharray:none;stroke-opacity:1"
       id="text3365-8">
      <path
         d="m 218.03639,490.86981 q -3.14453,-2.57812 -4.0625,-4.14062 -0.89844,-1.5625 -0.89844,-3.24219 0,-2.57813 1.99219,-4.43359 1.99219,-1.875 5.29297,-1.875 3.20313,0 5.15625,1.73828 1.95313,1.73828 1.95313,3.96484 0,1.48438 -1.05469,3.02734 -1.05469,1.54297 -4.39453,3.63282 3.4375,2.65625 4.55078,4.17968 1.48437,1.99219 1.48437,4.19922 0,2.79297 -2.1289,4.78516 -2.12891,1.97266 -5.58594,1.97266 -3.76953,0 -5.87891,-2.36329 -1.67968,-1.89453 -1.67968,-4.14062 0,-1.75781 1.17187,-3.47656 1.19141,-1.73828 4.08203,-3.82813 z m 3.06641,-2.08984 q 2.34375,-2.10938 2.96875,-3.32031 0.625,-1.23047 0.625,-2.77344 0,-2.05078 -1.15235,-3.20313 -1.15234,-1.17187 -3.14453,-1.17187 -1.99218,0 -3.24218,1.15234 -1.25,1.15235 -1.25,2.69531 0,1.01563 0.50781,2.03125 0.52734,1.01563 1.48437,1.9336 l 3.20313,2.65625 z m -2.14844,2.83203 q -1.62109,1.36719 -2.40234,2.98828 -0.78125,1.60156 -0.78125,3.47656 0,2.51953 1.36718,4.04297 1.38672,1.50391 3.51563,1.50391 2.10937,0 3.37891,-1.19141 1.26953,-1.1914 1.26953,-2.89062 0,-1.40625 -0.74219,-2.51953 -1.38672,-2.07032 -5.60547,-5.41016 z"
         style=""
         id="path4256" />
    </g>
    <path
       style="opacity:1;fill:#ffffff;fill-opacity:1;stroke:#000000;stroke-width:5;stroke-linecap:butt;stroke-linejoin:miter;stroke-miterlimit:4;stroke-dasharray:none;stroke-opacity:1"
       d="m 465.56967,697.33861 c 90.12395,10.42488 131.86286,-45.15824 129.90872,91.93293"
       id="path4185"
       inkscape:connector-curvature="0"
       sodipodi:nodetypes="cc" />
    <g
       style="font-style:normal;font-variant:normal;font-weight:normal;font-stretch:normal;font-size:40px;line-height:100%;font-family:'Times New Roman';-inkscape-font-specification:'Times New Roman, Normal';text-align:start;letter-spacing:0px;word-spacing:0px;writing-mode:lr-tb;text-anchor:start;fill:#000000;fill-opacity:1;stroke:none;stroke-width:5;stroke-linecap:butt;stroke-linejoin:miter;stroke-miterlimit:4;stroke-dasharray:none;stroke-opacity:1"
       id="text3365-2">
      <path
         d="m 275.04111,730.87292 0,-0.72265 q 2.53906,-0.0391 4.72656,-1.17188 2.1875,-1.15234 4.21875,-4.0039 2.05078,-2.85157 2.85156,-6.26953 -3.0664,1.97265 -5.54687,1.97265 -2.79297,0 -4.78516,-2.14844 -1.99219,-2.16796 -1.99219,-5.74218 0,-3.47657 1.99219,-6.19141 2.40234,-3.30078 6.26953,-3.30078 3.26172,0 5.58594,2.69531 2.85156,3.33985 2.85156,8.24219 0,4.41406 -2.16797,8.24219 -2.16797,3.80859 -6.03515,6.32812 -3.14453,2.07031 -6.85547,2.07031 l -1.11328,0 z m 12.10937,-13.61328 q 0.35156,-2.53906 0.35156,-4.0625 0,-1.89453 -0.64453,-4.08203 -0.64453,-2.20703 -1.83593,-3.3789 -1.17188,-1.17188 -2.67579,-1.17188 -1.73828,0 -3.04687,1.5625 -1.30859,1.5625 -1.30859,4.64844 0,4.12109 1.73828,6.44531 1.26953,1.67969 3.125,1.67969 0.89843,0 2.1289,-0.42969 1.23047,-0.42969 2.16797,-1.21094 z"
         style=""
         id="path4259" />
    </g>
    <path
       style="opacity:1;fill:#ffffff;fill-opacity:1;stroke:#000000;stroke-width:5;stroke-linecap:butt;stroke-linejoin:miter;stroke-miterlimit:4;stroke-dasharray:none;stroke-opacity:1"
       d="m 151.62417,789.27152 c 0,0 -18.11149,-215.96985 11.33894,-259.16382"
       id="path4193"
       inkscape:connector-curvature="0" />
    <g
       style="font-style:normal;font-variant:normal;font-weight:normal;font-stretch:normal;font-size:40px;line-height:100%;font-family:'Times New Roman';-inkscape-font-specification:'Times New Roman, Normal';text-align:start;letter-spacing:0px;word-spacing:0px;writing-mode:lr-tb;text-anchor:start;fill:#000000;fill-opacity:1;stroke:none;stroke-width:5;stroke-linecap:butt;stroke-linejoin:miter;stroke-miterlimit:4;stroke-dasharray:none;stroke-opacity:1"
       id="text3365-92">
      <path
         d="m 309.43607,592.78418 6.44531,-3.14453 0.64453,0 0,22.36328 q 0,2.22656 0.17578,2.77344 0.19531,0.54687 0.78125,0.83984 0.58594,0.29297 2.38281,0.33203 l 0,0.72266 -9.96093,0 0,-0.72266 q 1.875,-0.0391 2.42187,-0.3125 0.54688,-0.29297 0.76172,-0.76172 0.21484,-0.48828 0.21484,-2.87109 l 0,-14.29688 q 0,-2.89062 -0.19531,-3.71093 -0.13672,-0.625 -0.50781,-0.91797 -0.35156,-0.29297 -0.85938,-0.29297 -0.72265,0 -2.01172,0.60547 l -0.29296,-0.60547 z"
         style=""
         id="path4262" />
      <path
         d="m 326.19388,603.58496 q 0,-4.53125 1.36719,-7.79297 1.36718,-3.28125 3.63281,-4.88281 1.75781,-1.26953 3.63281,-1.26953 3.04688,0 5.46875,3.10547 3.02734,3.84765 3.02734,10.42968 0,4.60938 -1.32812,7.83204 -1.32813,3.22265 -3.39844,4.6875 -2.05078,1.44531 -3.96484,1.44531 -3.78906,0 -6.3086,-4.47266 -2.1289,-3.76953 -2.1289,-9.08203 z m 3.82812,0.48828 q 0,5.46875 1.34766,8.92578 1.11328,2.91016 3.32031,2.91016 1.05469,0 2.1875,-0.9375 1.13281,-0.95703 1.71875,-3.18359 0.89844,-3.35938 0.89844,-9.47266 0,-4.53125 -0.9375,-7.55859 -0.70313,-2.2461 -1.81641,-3.1836 -0.80078,-0.64453 -1.93359,-0.64453 -1.32813,0 -2.36328,1.19141 -1.40625,1.62109 -1.91406,5.09765 -0.50782,3.47657 -0.50782,6.85547 z"
         style=""
         id="path4264" />
    </g>
    <path
       style="opacity:1;fill:#ffffff;fill-opacity:1;stroke:#000000;stroke-width:5;stroke-linecap:butt;stroke-linejoin:miter;stroke-miterlimit:4;stroke-dasharray:none;stroke-opacity:1"
       d="m 449.26199,789.27152 1.47798,-140.63204"
       id="path4195"
       inkscape:connector-curvature="0"
       sodipodi:nodetypes="cc" />
    <g
       style="font-style:normal;font-variant:normal;font-weight:normal;font-stretch:normal;font-size:40px;line-height:100%;font-family:'Times New Roman';-inkscape-font-specification:'Times New Roman, Normal';text-align:start;letter-spacing:0px;word-spacing:0px;writing-mode:lr-tb;text-anchor:start;fill:#000000;fill-opacity:1;stroke:none;stroke-width:5;stroke-linecap:butt;stroke-linejoin:miter;stroke-miterlimit:4;stroke-dasharray:none;stroke-opacity:1"
       id="text3365-73">
      <path
         d="m 308.95978,439.23889 6.44531,-3.14453 0.64453,0 0,22.36328 q 0,2.22656 0.17578,2.77344 0.19532,0.54687 0.78125,0.83984 0.58594,0.29297 2.38282,0.33203 l 0,0.72266 -9.96094,0 0,-0.72266 q 1.875,-0.0391 2.42187,-0.3125 0.54688,-0.29296 0.76172,-0.76171 0.21485,-0.48829 0.21485,-2.8711 l 0,-14.29687 q 0,-2.89063 -0.19532,-3.71094 -0.13672,-0.625 -0.50781,-0.91797 -0.35156,-0.29297 -0.85937,-0.29297 -0.72266,0 -2.01172,0.60547 l -0.29297,-0.60547 z"
         style=""
         id="path4267" />
      <path
         d="m 327.4754,439.23889 6.44532,-3.14453 0.64453,0 0,22.36328 q 0,2.22656 0.17578,2.77344 0.19531,0.54687 0.78125,0.83984 0.58594,0.29297 2.38281,0.33203 l 0,0.72266 -9.96094,0 0,-0.72266 q 1.875,-0.0391 2.42188,-0.3125 0.54687,-0.29296 0.76172,-0.76171 0.21484,-0.48829 0.21484,-2.8711 l 0,-14.29687 q 0,-2.89063 -0.19531,-3.71094 -0.13672,-0.625 -0.50781,-0.91797 -0.35157,-0.29297 -0.85938,-0.29297 -0.72266,0 -2.01172,0.60547 l -0.29297,-0.60547 z"
         style=""
         id="path4269" />
    </g>
    <path
       style="opacity:1;fill:#ffffff;fill-opacity:1;stroke:#000000;stroke-width:5;stroke-linecap:butt;stroke-linejoin:miter;stroke-miterlimit:4;stroke-dasharray:none;stroke-opacity:1"
       d="m 445.13884,263.09055 6.43853,351.44173"
       id="path4200"
       inkscape:connector-curvature="0"
       sodipodi:nodetypes="cc" />
    <g
       style="font-style:normal;font-variant:normal;font-weight:normal;font-stretch:normal;font-size:40px;line-height:100%;font-family:'Times New Roman';-inkscape-font-specification:'Times New Roman, Normal';text-align:start;letter-spacing:0px;word-spacing:0px;writing-mode:lr-tb;text-anchor:start;fill:#000000;fill-opacity:1;stroke:none;stroke-width:5;stroke-linecap:butt;stroke-linejoin:miter;stroke-miterlimit:4;stroke-dasharray:none;stroke-opacity:1"
       id="text3365-0">
      <path
         d="m 305.54596,333.25394 6.44531,-3.14453 0.64453,0 0,22.36328 q 0,2.22656 0.17578,2.77343 0.19532,0.54688 0.78125,0.83985 0.58594,0.29297 2.38282,0.33203 l 0,0.72266 -9.96094,0 0,-0.72266 q 1.875,-0.0391 2.42187,-0.3125 0.54688,-0.29297 0.76172,-0.76172 0.21485,-0.48828 0.21485,-2.87109 l 0,-14.29688 q 0,-2.89062 -0.19532,-3.71094 -0.13671,-0.625 -0.50781,-0.91796 -0.35156,-0.29297 -0.85937,-0.29297 -0.72266,0 -2.01172,0.60547 l -0.29297,-0.60547 z"
         style=""
         id="path4272" />
      <path
         d="m 339.1983,352.043 -1.85547,5.09766 -15.625,0 0,-0.72266 q 6.89454,-6.28906 9.70704,-10.27344 2.8125,-3.98437 2.8125,-7.28515 0,-2.51954 -1.54297,-4.14063 -1.54297,-1.62109 -3.69141,-1.62109 -1.95312,0 -3.51562,1.15234 -1.54297,1.13281 -2.28516,3.33984 l -0.72266,0 q 0.48828,-3.61328 2.5,-5.54687 2.03125,-1.93359 5.0586,-1.93359 3.22265,0 5.37109,2.07031 2.16797,2.07031 2.16797,4.88281 0,2.01172 -0.9375,4.02344 -1.44531,3.16406 -4.6875,6.69922 -4.86328,5.3125 -6.07422,6.40625 l 6.91406,0 q 2.10938,0 2.94922,-0.15625 0.85938,-0.15625 1.54297,-0.625 0.68359,-0.48828 1.19141,-1.36719 l 0.72265,0 z"
         style=""
         id="path4274" />
    </g>
    <path
       style="fill:none;fill-rule:evenodd;stroke:#000000;stroke-width:5;stroke-linecap:butt;stroke-linejoin:miter;stroke-miterlimit:4;stroke-dasharray:none;stroke-opacity:1"
       d="m 186.52346,500.65726 c 0,0 88.37113,-157.06898 245.42029,-100.13148"
       id="path4201"
       inkscape:connector-curvature="0"
       sodipodi:nodetypes="cc" />
    <g
       style="font-style:normal;font-variant:normal;font-weight:normal;font-stretch:normal;font-size:40px;line-height:100%;font-family:'Times New Roman';-inkscape-font-specification:'Times New Roman, Normal';text-align:start;letter-spacing:0px;word-spacing:0px;writing-mode:lr-tb;text-anchor:start;fill:#000000;fill-opacity:1;stroke:none;stroke-width:5;stroke-linecap:butt;stroke-linejoin:miter;stroke-miterlimit:4;stroke-dasharray:none;stroke-opacity:1"
       id="text3365-70">
      <path
         d="m 454.87143,272.42636 6.44531,-3.14453 0.64453,0 0,22.36328 q 0,2.22656 0.17578,2.77344 0.19532,0.54687 0.78125,0.83984 0.58594,0.29297 2.38282,0.33203 l 0,0.72266 -9.96094,0 0,-0.72266 q 1.875,-0.0391 2.42187,-0.3125 0.54688,-0.29297 0.76172,-0.76172 0.21485,-0.48828 0.21485,-2.87109 l 0,-14.29687 q 0,-2.89063 -0.19532,-3.71094 -0.13671,-0.625 -0.50781,-0.91797 -0.35156,-0.29297 -0.85937,-0.29297 -0.72266,0 -2.01172,0.60547 l -0.29297,-0.60547 z"
         style=""
         id="path4277" />
      <path
         d="m 472.21518,274.86777 q 1.13281,-2.67578 2.85156,-4.1211 1.73828,-1.46484 4.31641,-1.46484 3.18359,0 4.88281,2.07031 1.28906,1.54297 1.28906,3.30078 0,2.89063 -3.63281,5.97657 2.44141,0.95703 3.69141,2.73437 1.25,1.77734 1.25,4.17969 0,3.4375 -2.1875,5.95703 -2.85157,3.28125 -8.26172,3.28125 -2.67578,0 -3.65235,-0.66406 -0.95703,-0.66407 -0.95703,-1.42578 0,-0.56641 0.44922,-0.9961 0.46875,-0.42969 1.11328,-0.42969 0.48828,0 0.9961,0.15625 0.33203,0.0977 1.5039,0.72266 1.17188,0.60547 1.6211,0.72266 0.72265,0.21484 1.54297,0.21484 1.99218,0 3.45703,-1.54297 1.48437,-1.54297 1.48437,-3.65234 0,-1.54297 -0.68359,-3.00781 -0.50781,-1.09375 -1.11328,-1.66016 -0.83985,-0.78125 -2.30469,-1.40625 -1.46484,-0.64453 -2.98828,-0.64453 l -0.625,0 0,-0.58594 q 1.54297,-0.19531 3.08594,-1.11328 1.5625,-0.91797 2.26562,-2.20703 0.70313,-1.28906 0.70313,-2.83203 0,-2.01172 -1.26954,-3.24219 -1.25,-1.25 -3.125,-1.25 -3.02734,0 -5.05859,3.24219 l -0.64453,-0.3125 z"
         style=""
         id="path4279" />
    </g>
    <path
       style="opacity:1;fill:#ffffff;fill-opacity:1;stroke:#000000;stroke-width:5;stroke-linecap:butt;stroke-linejoin:miter;stroke-miterlimit:4;stroke-dasharray:none;stroke-opacity:1"
       d="m 240.95976,456.72567 46.16442,46.17018"
       id="path4175-9"
       inkscape:connector-curvature="0"
       sodipodi:nodetypes="cc" />
    <g
       style="font-style:normal;font-variant:normal;font-weight:normal;font-stretch:normal;font-size:40px;line-height:100%;font-family:'Times New Roman';-inkscape-font-specification:'Times New Roman, Normal';text-align:start;letter-spacing:0px;word-spacing:0px;writing-mode:lr-tb;text-anchor:start;fill:#000000;fill-opacity:1;stroke:none;stroke-width:5;stroke-linecap:butt;stroke-linejoin:miter;stroke-miterlimit:4;stroke-dasharray:none;stroke-opacity:1"
       id="text3365-4">
      <path
         d="m 458.17529,347.03412 6.44532,-3.14453 0.64453,0 0,22.36328 q 0,2.22656 0.17578,2.77344 0.19531,0.54687 0.78125,0.83984 0.58594,0.29297 2.38281,0.33203 l 0,0.72266 -9.96094,0 0,-0.72266 q 1.875,-0.0391 2.42188,-0.3125 0.54687,-0.29297 0.76172,-0.76172 0.21484,-0.48828 0.21484,-2.87109 l 0,-14.29688 q 0,-2.89062 -0.19531,-3.71093 -0.13672,-0.625 -0.50781,-0.91797 -0.35157,-0.29297 -0.85938,-0.29297 -0.72266,0 -2.01172,0.60547 l -0.29297,-0.60547 z"
         style=""
         id="path4282" />
      <path
         d="m 492.10107,361.15521 0,2.77344 -3.55468,0 0,6.99219 -3.22266,0 0,-6.99219 -11.21094,0 0,-2.5 12.28516,-17.53906 2.14844,0 0,17.26562 3.55468,0 z m -6.77734,0 0,-13.14453 -9.29687,13.14453 9.29687,0 z"
         style=""
         id="path4284" />
    </g>
    <path
       style="opacity:1;fill:#ffffff;fill-opacity:1;stroke:#000000;stroke-width:5;stroke-linecap:butt;stroke-linejoin:miter;stroke-miterlimit:4;stroke-dasharray:none;stroke-opacity:1"
       d="m 310.34417,672.48929 c 23.55947,52.95728 98.53948,21.39782 129.90872,24.37525"
       id="path4185-5"
       inkscape:connector-curvature="0"
       sodipodi:nodetypes="cc" />
    <g
       style="font-style:normal;font-variant:normal;font-weight:normal;font-stretch:normal;font-size:40px;line-height:100%;font-family:'Times New Roman';-inkscape-font-specification:'Times New Roman, Normal';text-align:start;letter-spacing:0px;word-spacing:0px;writing-mode:lr-tb;text-anchor:start;fill:#000000;fill-opacity:1;stroke:none;stroke-width:5;stroke-linecap:butt;stroke-linejoin:miter;stroke-miterlimit:4;stroke-dasharray:none;stroke-opacity:1"
       id="text3365-77">
      <path
         d="m 460.17529,502.06647 6.44532,-3.14453 0.64453,0 0,22.36328 q 0,2.22656 0.17578,2.77343 0.19531,0.54688 0.78125,0.83985 0.58594,0.29297 2.38281,0.33203 l 0,0.72266 -9.96094,0 0,-0.72266 q 1.875,-0.0391 2.42188,-0.3125 0.54687,-0.29297 0.76172,-0.76172 0.21484,-0.48828 0.21484,-2.87109 l 0,-14.29688 q 0,-2.89062 -0.19531,-3.71094 -0.13672,-0.625 -0.50781,-0.91796 -0.35157,-0.29297 -0.85938,-0.29297 -0.72266,0 -2.01172,0.60547 l -0.29297,-0.60547 z"
         style=""
         id="path4287" />
      <path
         d="m 492.85107,499.46881 -1.52343,3.32031 -7.96875,0 -1.73828,3.55469 q 5.17578,0.76172 8.20312,3.84766 2.59766,2.65625 2.59766,6.25 0,2.08984 -0.85938,3.86718 -0.83984,1.77735 -2.1289,3.02735 -1.28907,1.25 -2.8711,2.01172 -2.24609,1.07422 -4.60937,1.07422 -2.38282,0 -3.47657,-0.80079 -1.07421,-0.82031 -1.07421,-1.79687 0,-0.54688 0.44921,-0.95703 0.44922,-0.42969 1.13282,-0.42969 0.50781,0 0.8789,0.15625 0.39063,0.15625 1.3086,0.80078 1.46484,1.01563 2.96875,1.01563 2.28515,0 4.0039,-1.71875 1.73828,-1.73828 1.73828,-4.21875 0,-2.40235 -1.54296,-4.47266 -1.54297,-2.08984 -4.25782,-3.22266 -2.1289,-0.8789 -5.80078,-1.01562 l 5.07813,-10.29297 9.49218,0 z"
         style=""
         id="path4289" />
    </g>
    <g
       style="font-style:normal;font-variant:normal;font-weight:normal;font-stretch:normal;font-size:40px;line-height:100%;font-family:'Times New Roman';-inkscape-font-specification:'Times New Roman, Normal';text-align:start;letter-spacing:0px;word-spacing:0px;writing-mode:lr-tb;text-anchor:start;fill:#000000;fill-opacity:1;stroke:none;stroke-width:5;stroke-linecap:butt;stroke-linejoin:miter;stroke-miterlimit:4;stroke-dasharray:none;stroke-opacity:1"
       id="text3365-52">
      <path
         d="m 457.28848,656.4621 6.44532,-3.14453 0.64453,0 0,22.36328 q 0,2.22656 0.17578,2.77343 0.19531,0.54688 0.78125,0.83985 0.58594,0.29297 2.38281,0.33203 l 0,0.72266 -9.96094,0 0,-0.72266 q 1.875,-0.0391 2.42188,-0.3125 0.54687,-0.29297 0.76172,-0.76172 0.21484,-0.48828 0.21484,-2.87109 l 0,-14.29688 q 0,-2.89062 -0.19531,-3.71094 -0.13672,-0.625 -0.50781,-0.91796 -0.35157,-0.29297 -0.85938,-0.29297 -0.72266,0 -2.01172,0.60547 l -0.29297,-0.60547 z"
         style=""
         id="path4292" />
      <path
         d="m 490.53067,653.31757 0,0.72265 q -2.57812,0.25391 -4.21875,1.03516 -1.62109,0.76172 -3.22266,2.34375 -1.58203,1.58203 -2.63671,3.53515 -1.03516,1.9336 -1.73829,4.60938 2.8125,-1.93359 5.64454,-1.93359 2.71484,0 4.70703,2.1875 1.99218,2.1875 1.99218,5.625 0,3.32031 -2.01171,6.05468 -2.42188,3.32032 -6.40625,3.32032 -2.71485,0 -4.60938,-1.79688 -3.71094,-3.49609 -3.71094,-9.0625 0,-3.55469 1.42578,-6.75781 1.42579,-3.20313 4.0625,-5.6836 2.65625,-2.48046 5.07813,-3.33984 2.42187,-0.85937 4.51172,-0.85937 l 1.13281,0 z m -12.14844,13.67187 q -0.35156,2.63672 -0.35156,4.25781 0,1.875 0.68359,4.08203 0.70313,2.1875 2.07032,3.47657 0.99609,0.91797 2.42187,0.91797 1.69922,0 3.02735,-1.60157 1.34765,-1.60156 1.34765,-4.57031 0,-3.33984 -1.32812,-5.78125 -1.32813,-2.44141 -3.76953,-2.44141 -0.74219,0 -1.60157,0.3125 -0.83984,0.3125 -2.5,1.34766 z"
         style=""
         id="path4294" />
    </g>
    <g
       style="font-style:normal;font-variant:normal;font-weight:normal;font-stretch:normal;font-size:40px;line-height:100%;font-family:'Times New Roman';-inkscape-font-specification:'Times New Roman, Normal';text-align:start;letter-spacing:0px;word-spacing:0px;writing-mode:lr-tb;text-anchor:start;fill:#000000;fill-opacity:1;stroke:none;stroke-width:5;stroke-linecap:butt;stroke-linejoin:miter;stroke-miterlimit:4;stroke-dasharray:none;stroke-opacity:1"
       id="text3365-1">
      <path
         d="m 598.12463,699.13013 6.44532,-3.14453 0.64453,0 0,22.36328 q 0,2.22656 0.17578,2.77343 0.19531,0.54688 0.78125,0.83985 0.58594,0.29297 2.38281,0.33203 l 0,0.72266 -9.96094,0 0,-0.72266 q 1.875,-0.0391 2.42188,-0.3125 0.54687,-0.29297 0.76172,-0.76172 0.21484,-0.48828 0.21484,-2.87109 l 0,-14.29688 q 0,-2.89062 -0.19531,-3.71094 -0.13672,-0.625 -0.50781,-0.91796 -0.35157,-0.29297 -0.85938,-0.29297 -0.72265,0 -2.01172,0.60547 l -0.29297,-0.60547 z"
         style=""
         id="path4297" />
      <path
         d="m 617.46057,696.53247 14.19922,0 0,0.74219 -8.82812,26.28906 -2.1875,0 7.91015,-23.84766 -7.28515,0 q -2.20704,0 -3.14454,0.52735 -1.64062,0.89844 -2.63671,2.77344 l -0.56641,-0.21485 2.53906,-6.26953 z"
         style=""
         id="path4299" />
    </g>
    <g
       style="font-style:normal;font-variant:normal;font-weight:normal;font-stretch:normal;font-size:40px;line-height:100%;font-family:'Times New Roman';-inkscape-font-specification:'Times New Roman, Normal';text-align:start;letter-spacing:0px;word-spacing:0px;writing-mode:lr-tb;text-anchor:start;fill:#000000;fill-opacity:1;stroke:none;stroke-width:5;stroke-linecap:butt;stroke-linejoin:miter;stroke-miterlimit:4;stroke-dasharray:none;stroke-opacity:1"
       id="text3365-96">
      <path
         d="m 342.02628,713.28351 6.44531,-3.14453 0.64453,0 0,22.36328 q 0,2.22656 0.17578,2.77344 0.19531,0.54687 0.78125,0.83984 0.58594,0.29297 2.38281,0.33203 l 0,0.72266 -9.96093,0 0,-0.72266 q 1.875,-0.0391 2.42187,-0.3125 0.54688,-0.29297 0.76172,-0.76172 0.21484,-0.48828 0.21484,-2.87109 l 0,-14.29688 q 0,-2.89062 -0.19531,-3.71093 -0.13672,-0.625 -0.50781,-0.91797 -0.35156,-0.29297 -0.85938,-0.29297 -0.72265,0 -2.01172,0.60547 l -0.29296,-0.60547 z"
         style=""
         id="path4302" />
      <path
         d="m 365.01456,723.83038 q -3.14453,-2.57812 -4.0625,-4.14062 -0.89844,-1.5625 -0.89844,-3.24219 0,-2.57812 1.99219,-4.43359 1.99218,-1.875 5.29297,-1.875 3.20312,0 5.15625,1.73828 1.95312,1.73828 1.95312,3.96484 0,1.48438 -1.05469,3.02735 -1.05468,1.54296 -4.39453,3.63281 3.4375,2.65625 4.55078,4.17969 1.48438,1.99218 1.48438,4.19921 0,2.79297 -2.12891,4.78516 -2.1289,1.97266 -5.58594,1.97266 -3.76953,0 -5.8789,-2.36328 -1.67969,-1.89454 -1.67969,-4.14063 0,-1.75781 1.17188,-3.47656 1.1914,-1.73828 4.08203,-3.82813 z m 3.0664,-2.08984 q 2.34375,-2.10938 2.96875,-3.32031 0.625,-1.23047 0.625,-2.77344 0,-2.05078 -1.15234,-3.20313 -1.15234,-1.17187 -3.14453,-1.17187 -1.99219,0 -3.24219,1.15234 -1.25,1.15235 -1.25,2.69532 0,1.01562 0.50781,2.03125 0.52735,1.01562 1.48438,1.93359 l 3.20312,2.65625 z m -2.14843,2.83203 q -1.6211,1.36719 -2.40235,2.98828 -0.78125,1.60156 -0.78125,3.47656 0,2.51954 1.36719,4.04297 1.38672,1.50391 3.51562,1.50391 2.10938,0 3.37891,-1.19141 1.26953,-1.1914 1.26953,-2.89062 0,-1.40625 -0.74219,-2.51953 -1.38671,-2.07032 -5.60546,-5.41016 z"
         style=""
         id="path4304" />
    </g>
    <g
       style="font-style:normal;font-variant:normal;font-weight:normal;font-stretch:normal;font-size:40px;line-height:100%;font-family:'Times New Roman';-inkscape-font-specification:'Times New Roman, Normal';text-align:start;letter-spacing:0px;word-spacing:0px;writing-mode:lr-tb;text-anchor:start;fill:#000000;fill-opacity:1;stroke:none;stroke-width:5;stroke-linecap:butt;stroke-linejoin:miter;stroke-miterlimit:4;stroke-dasharray:none;stroke-opacity:1"
       id="text3365-3">
      <path
         d="m 196.79166,598.60095 6.44531,-3.14453 0.64453,0 0,22.36328 q 0,2.22656 0.17578,2.77344 0.19531,0.54687 0.78125,0.83984 0.58594,0.29297 2.38281,0.33203 l 0,0.72266 -9.96093,0 0,-0.72266 q 1.875,-0.0391 2.42187,-0.3125 0.54688,-0.29296 0.76172,-0.76171 0.21484,-0.48829 0.21484,-2.8711 l 0,-14.29687 q 0,-2.89063 -0.19531,-3.71094 -0.13672,-0.625 -0.50781,-0.91797 -0.35156,-0.29297 -0.85938,-0.29297 -0.72265,0 -2.01171,0.60547 l -0.29297,-0.60547 z"
         style=""
         id="path4307" />
      <path
         d="m 214.21353,623.03455 0,-0.72266 q 2.53906,-0.0391 4.72656,-1.17188 2.1875,-1.15234 4.21875,-4.0039 2.05079,-2.85156 2.85157,-6.26953 -3.06641,1.97265 -5.54688,1.97265 -2.79297,0 -4.78515,-2.14843 -1.99219,-2.16797 -1.99219,-5.74219 0,-3.47656 1.99219,-6.19141 2.40234,-3.30078 6.26953,-3.30078 3.26172,0 5.58593,2.69531 2.85157,3.33985 2.85157,8.24219 0,4.41406 -2.16797,8.24219 -2.16797,3.80859 -6.03516,6.32812 -3.14453,2.07032 -6.85547,2.07032 l -1.11328,0 z m 12.10938,-13.61329 q 0.35156,-2.53906 0.35156,-4.0625 0,-1.89453 -0.64453,-4.08203 -0.64453,-2.20703 -1.83594,-3.3789 -1.17187,-1.17188 -2.67578,-1.17188 -1.73828,0 -3.04688,1.5625 -1.30859,1.5625 -1.30859,4.64844 0,4.12109 1.73828,6.44531 1.26953,1.67969 3.125,1.67969 0.89844,0 2.12891,-0.42969 1.23047,-0.42969 2.16797,-1.21094 z"
         style=""
         id="path4309" />
    </g>
    <g
       style="font-style:normal;font-variant:normal;font-weight:normal;font-stretch:normal;font-size:40px;line-height:100%;font-family:'Times New Roman';-inkscape-font-specification:'Times New Roman, Normal';text-align:start;letter-spacing:0px;word-spacing:0px;writing-mode:lr-tb;text-anchor:start;fill:#000000;fill-opacity:1;stroke:none;stroke-width:5;stroke-linecap:butt;stroke-linejoin:miter;stroke-miterlimit:4;stroke-dasharray:none;stroke-opacity:1"
       id="text3365-27">
      <path
         d="m 115.98277,444.28439 -1.85547,5.09766 -15.624996,0 0,-0.72266 q 6.894536,-6.28906 9.707036,-10.27343 2.8125,-3.98438 2.8125,-7.28516 0,-2.51953 -1.54297,-4.14063 -1.54297,-1.62109 -3.69141,-1.62109 -1.95312,0 -3.51562,1.15234 -1.54297,1.13282 -2.285161,3.33985 l -0.722656,0 q 0.488281,-3.61328 2.499997,-5.54688 2.03125,-1.93359 5.0586,-1.93359 3.22265,0 5.37109,2.07031 2.16797,2.07031 2.16797,4.88281 0,2.01172 -0.9375,4.02344 -1.44531,3.16406 -4.6875,6.69922 -4.86328,5.3125 -6.07422,6.40625 l 6.91406,0 q 2.10938,0 2.94922,-0.15625 0.85938,-0.15625 1.54297,-0.625 0.68359,-0.48828 1.19141,-1.36719 l 0.72265,0 z"
         style=""
         id="path4312" />
      <path
         d="m 119.08824,436.29611 q 0,-4.53125 1.36719,-7.79297 1.36719,-3.28125 3.63281,-4.88281 1.75781,-1.26953 3.63281,-1.26953 3.04688,0 5.46875,3.10547 3.02735,3.84765 3.02735,10.42969 0,4.60937 -1.32813,7.83203 -1.32812,3.22265 -3.39843,4.6875 -2.05079,1.44531 -3.96485,1.44531 -3.78906,0 -6.30859,-4.47266 -2.12891,-3.76953 -2.12891,-9.08203 z m 3.82813,0.48828 q 0,5.46875 1.34765,8.92578 1.11328,2.91016 3.32032,2.91016 1.05468,0 2.1875,-0.9375 1.13281,-0.95703 1.71875,-3.18359 0.89843,-3.35938 0.89843,-9.47266 0,-4.53125 -0.9375,-7.55859 -0.70312,-2.2461 -1.8164,-3.1836 -0.80078,-0.64453 -1.9336,-0.64453 -1.32812,0 -2.36328,1.19141 -1.40625,1.62109 -1.91406,5.09765 -0.50781,3.47657 -0.50781,6.85547 z"
         style=""
         id="path4314" />
    </g>
    <g
       style="font-style:normal;font-variant:normal;font-weight:normal;font-stretch:normal;font-size:40px;line-height:100%;font-family:'Times New Roman';-inkscape-font-specification:'Times New Roman, Normal';text-align:start;letter-spacing:0px;word-spacing:0px;writing-mode:lr-tb;text-anchor:start;fill:#000000;fill-opacity:1;stroke:none;stroke-width:5;stroke-linecap:butt;stroke-linejoin:miter;stroke-miterlimit:4;stroke-dasharray:none;stroke-opacity:1"
       id="text3365-24">
      <path
         d="m 212.62718,314.59259 -1.85547,5.09766 -15.625,0 0,-0.72266 q 6.89453,-6.28906 9.70703,-10.27344 2.8125,-3.98437 2.8125,-7.28515 0,-2.51953 -1.54296,-4.14063 -1.54297,-1.62109 -3.69141,-1.62109 -1.95313,0 -3.51563,1.15234 -1.54296,1.13281 -2.28515,3.33985 l -0.72266,0 q 0.48828,-3.61329 2.5,-5.54688 2.03125,-1.93359 5.0586,-1.93359 3.22265,0 5.37109,2.07031 2.16797,2.07031 2.16797,4.88281 0,2.01172 -0.9375,4.02344 -1.44531,3.16406 -4.6875,6.69922 -4.86328,5.3125 -6.07422,6.40625 l 6.91406,0 q 2.10938,0 2.94922,-0.15625 0.85938,-0.15625 1.54297,-0.625 0.68359,-0.48828 1.19141,-1.36719 l 0.72265,0 z"
         style=""
         id="path4317" />
      <path
         d="m 218.97484,295.80353 6.44531,-3.14453 0.64453,0 0,22.36328 q 0,2.22656 0.17578,2.77344 0.19532,0.54687 0.78125,0.83984 0.58594,0.29297 2.38282,0.33203 l 0,0.72266 -9.96094,0 0,-0.72266 q 1.875,-0.0391 2.42187,-0.3125 0.54688,-0.29297 0.76172,-0.76172 0.21485,-0.48828 0.21485,-2.87109 l 0,-14.29688 q 0,-2.89062 -0.19532,-3.71093 -0.13672,-0.625 -0.50781,-0.91797 -0.35156,-0.29297 -0.85937,-0.29297 -0.72266,0 -2.01172,0.60547 l -0.29297,-0.60547 z"
         style=""
         id="path4319" />
    </g>
    <g
       style="font-style:normal;font-variant:normal;font-weight:normal;font-stretch:normal;font-size:40px;line-height:100%;font-family:'Times New Roman';-inkscape-font-specification:'Times New Roman, Normal';text-align:start;letter-spacing:0px;word-spacing:0px;writing-mode:lr-tb;text-anchor:start;fill:#000000;fill-opacity:1;stroke:none;stroke-width:5;stroke-linecap:butt;stroke-linejoin:miter;stroke-miterlimit:4;stroke-dasharray:none;stroke-opacity:1"
       id="text3365-01">
      <path
         d="m 379.51297,294.48267 -1.85547,5.09765 -15.625,0 0,-0.72265 q 6.89453,-6.28907 9.70703,-10.27344 2.8125,-3.98438 2.8125,-7.28516 0,-2.51953 -1.54297,-4.14062 -1.54297,-1.6211 -3.6914,-1.6211 -1.95313,0 -3.51563,1.15235 -1.54297,1.13281 -2.28515,3.33984 l -0.72266,0 q 0.48828,-3.61328 2.5,-5.54687 2.03125,-1.9336 5.05859,-1.9336 3.22266,0 5.3711,2.07031 2.16797,2.07032 2.16797,4.88282 0,2.01172 -0.9375,4.02343 -1.44532,3.16407 -4.6875,6.69922 -4.86329,5.3125 -6.07422,6.40625 l 6.91406,0 q 2.10937,0 2.94922,-0.15625 0.85937,-0.15625 1.54297,-0.625 0.68359,-0.48828 1.1914,-1.36718 l 0.72266,0 z"
         style=""
         id="path4322" />
      <path
         d="m 399.51297,294.48267 -1.85547,5.09765 -15.625,0 0,-0.72265 q 6.89453,-6.28907 9.70703,-10.27344 2.8125,-3.98438 2.8125,-7.28516 0,-2.51953 -1.54297,-4.14062 -1.54297,-1.6211 -3.6914,-1.6211 -1.95313,0 -3.51563,1.15235 -1.54297,1.13281 -2.28515,3.33984 l -0.72266,0 q 0.48828,-3.61328 2.5,-5.54687 2.03125,-1.9336 5.05859,-1.9336 3.22266,0 5.3711,2.07031 2.16797,2.07032 2.16797,4.88282 0,2.01172 -0.9375,4.02343 -1.44532,3.16407 -4.6875,6.69922 -4.86329,5.3125 -6.07422,6.40625 l 6.91406,0 q 2.10937,0 2.94922,-0.15625 0.85937,-0.15625 1.54297,-0.625 0.68359,-0.48828 1.1914,-1.36718 l 0.72266,0 z"
         style=""
         id="path4324" />
    </g>
    <g
       style="font-style:normal;font-variant:normal;font-weight:normal;font-stretch:normal;font-size:40px;line-height:100%;font-family:'Times New Roman';-inkscape-font-specification:'Times New Roman, Normal';text-align:start;letter-spacing:0px;word-spacing:0px;writing-mode:lr-tb;text-anchor:start;fill:#000000;fill-opacity:1;stroke:none;stroke-width:5;stroke-linecap:butt;stroke-linejoin:miter;stroke-miterlimit:4;stroke-dasharray:none;stroke-opacity:1"
       id="text3365-1-3">
      <path
         d="m 456.44437,732.25873 6.44531,-3.14453 0.64453,0 0,22.36328 q 0,2.22656 0.17578,2.77344 0.19531,0.54687 0.78125,0.83984 0.58594,0.29297 2.38281,0.33203 l 0,0.72266 -9.96093,0 0,-0.72266 q 1.875,-0.0391 2.42187,-0.3125 0.54688,-0.29297 0.76172,-0.76172 0.21484,-0.48828 0.21484,-2.87109 l 0,-14.29688 q 0,-2.89062 -0.19531,-3.71093 -0.13672,-0.625 -0.50781,-0.91797 -0.35156,-0.29297 -0.85938,-0.29297 -0.72265,0 -2.01171,0.60547 l -0.29297,-0.60547 z"
         style=""
         id="path4327" />
      <path
         d="m 475.7803,729.66107 14.19922,0 0,0.74219 -8.82812,26.28906 -2.1875,0 7.91015,-23.84765 -7.28515,0 q -2.20703,0 -3.14453,0.52734 -1.64063,0.89844 -2.63672,2.77344 l -0.56641,-0.21485 2.53906,-6.26953 z"
         style=""
         id="path4329" />
    </g>
    <g
       style="font-style:normal;font-variant:normal;font-weight:normal;font-stretch:normal;font-size:40px;line-height:100%;font-family:'Times New Roman';-inkscape-font-specification:'Times New Roman, Normal';text-align:start;letter-spacing:0px;word-spacing:0px;writing-mode:lr-tb;text-anchor:start;fill:#000000;fill-opacity:1;stroke:none;stroke-width:5;stroke-linecap:butt;stroke-linejoin:miter;stroke-miterlimit:4;stroke-dasharray:none;stroke-opacity:1"
       id="text3365-2-0">
      <path
         d="m 122.27698,670.51971 0,-0.72265 q 2.53906,-0.0391 4.72656,-1.17188 2.1875,-1.15234 4.21875,-4.0039 2.05078,-2.85157 2.85156,-6.26953 -3.0664,1.97265 -5.54687,1.97265 -2.79297,0 -4.78516,-2.14844 -1.99219,-2.16796 -1.99219,-5.74218 0,-3.47657 1.99219,-6.19141 2.40235,-3.30078 6.26953,-3.30078 3.26172,0 5.58594,2.69531 2.85156,3.33985 2.85156,8.24219 0,4.41406 -2.16797,8.24219 -2.16796,3.80859 -6.03515,6.32812 -3.14453,2.07031 -6.85547,2.07031 l -1.11328,0 z m 12.10937,-13.61328 q 0.35157,-2.53906 0.35157,-4.0625 0,-1.89453 -0.64454,-4.08203 -0.64453,-2.20703 -1.83593,-3.3789 -1.17188,-1.17188 -2.67578,-1.17188 -1.73829,0 -3.04688,1.5625 -1.30859,1.5625 -1.30859,4.64844 0,4.12109 1.73828,6.44531 1.26953,1.67969 3.125,1.67969 0.89844,0 2.1289,-0.42969 1.23047,-0.42969 2.16797,-1.21094 z"
         style=""
         id="path4332" />
    </g>
    <g
       style="font-style:normal;font-variant:normal;font-weight:normal;font-stretch:normal;font-size:40px;line-height:100%;font-family:'Times New Roman';-inkscape-font-specification:'Times New Roman, Normal';text-align:start;letter-spacing:0px;word-spacing:0px;writing-mode:lr-tb;text-anchor:start;fill:#000000;fill-opacity:1;stroke:none;stroke-width:5;stroke-linecap:butt;stroke-linejoin:miter;stroke-miterlimit:4;stroke-dasharray:none;stroke-opacity:1"
       id="text3365-7-2">
      <path
         d="m 585.79382,308.46298 6.44532,-3.14453 0.64453,0 0,22.36328 q 0,2.22656 0.17578,2.77344 0.19531,0.54687 0.78125,0.83984 0.58594,0.29297 2.38281,0.33203 l 0,0.72266 -9.96094,0 0,-0.72266 q 1.875,-0.0391 2.42188,-0.3125 0.54687,-0.29296 0.76172,-0.76171 0.21484,-0.48829 0.21484,-2.8711 l 0,-14.29687 q 0,-2.89063 -0.19531,-3.71094 -0.13672,-0.625 -0.50781,-0.91797 -0.35157,-0.29297 -0.85938,-0.29297 -0.72266,0 -2.01172,0.60547 l -0.29297,-0.60547 z"
         style=""
         id="path4335" />
    </g>
    <g
       style="font-style:normal;font-variant:normal;font-weight:normal;font-stretch:normal;font-size:40px;line-height:100%;font-family:'Times New Roman';-inkscape-font-specification:'Times New Roman, Normal';text-align:start;letter-spacing:0px;word-spacing:0px;writing-mode:lr-tb;text-anchor:start;fill:#000000;fill-opacity:1;stroke:none;stroke-width:5;stroke-linecap:butt;stroke-linejoin:miter;stroke-miterlimit:4;stroke-dasharray:none;stroke-opacity:1"
       id="text3365-70-5">
      <path
         d="m 260.36169,272.30188 6.44532,-3.14453 0.64453,0 0,22.36328 q 0,2.22656 0.17578,2.77344 0.19531,0.54687 0.78125,0.83984 0.58594,0.29297 2.38281,0.33203 l 0,0.72266 -9.96094,0 0,-0.72266 q 1.875,-0.0391 2.42188,-0.3125 0.54687,-0.29297 0.76172,-0.76172 0.21484,-0.48828 0.21484,-2.87109 l 0,-14.29688 q 0,-2.89062 -0.19531,-3.71093 -0.13672,-0.625 -0.50781,-0.91797 -0.35157,-0.29297 -0.85938,-0.29297 -0.72265,0 -2.01172,0.60547 l -0.29297,-0.60547 z"
         style=""
         id="path4338" />
      <path
         d="m 277.70544,274.74329 q 1.13282,-2.67579 2.85157,-4.1211 1.73828,-1.46484 4.3164,-1.46484 3.1836,0 4.88282,2.07031 1.28906,1.54297 1.28906,3.30078 0,2.89063 -3.63281,5.97656 2.4414,0.95704 3.6914,2.73438 1.25,1.77734 1.25,4.17969 0,3.4375 -2.1875,5.95703 -2.85156,3.28125 -8.26172,3.28125 -2.67578,0 -3.65234,-0.66406 -0.95703,-0.66407 -0.95703,-1.42579 0,-0.5664 0.44922,-0.99609 0.46875,-0.42969 1.11328,-0.42969 0.48828,0 0.99609,0.15625 0.33203,0.0977 1.50391,0.72266 1.17187,0.60547 1.62109,0.72266 0.72266,0.21484 1.54297,0.21484 1.99219,0 3.45703,-1.54297 1.48438,-1.54297 1.48438,-3.65234 0,-1.54297 -0.6836,-3.00782 -0.50781,-1.09375 -1.11328,-1.66015 -0.83984,-0.78125 -2.30469,-1.40625 -1.46484,-0.64453 -2.98828,-0.64453 l -0.625,0 0,-0.58594 q 1.54297,-0.19531 3.08594,-1.11328 1.5625,-0.91797 2.26563,-2.20703 0.70312,-1.28907 0.70312,-2.83203 0,-2.01172 -1.26953,-3.24219 -1.25,-1.25 -3.125,-1.25 -3.02734,0 -5.05859,3.24219 l -0.64454,-0.3125 z"
         style=""
         id="path4340" />
    </g>
    <g
       style="font-style:normal;font-variant:normal;font-weight:normal;font-stretch:normal;font-size:40px;line-height:100%;font-family:'Times New Roman';-inkscape-font-specification:'Times New Roman, Normal';text-align:start;letter-spacing:0px;word-spacing:0px;writing-mode:lr-tb;text-anchor:start;fill:#000000;fill-opacity:1;stroke:none;stroke-width:5;stroke-linecap:butt;stroke-linejoin:miter;stroke-miterlimit:4;stroke-dasharray:none;stroke-opacity:1"
       id="text3365-90-8">
      <path
         d="m 389.86688,615.81122 0,2.77344 -3.55469,0 0,6.99218 -3.22265,0 0,-6.99218 -11.21094,0 0,-2.5 12.28516,-17.53907 2.14843,0 0,17.26563 3.55469,0 z m -6.77734,0 0,-13.14453 -9.29688,13.14453 9.29688,0 z"
         style=""
         id="path4343" />
    </g>
  </g>
</svg>
