<?xml version="1.0" encoding="UTF-8" standalone="no"?>
<!-- Created with Inkscape (http://www.inkscape.org/) -->

<svg
   xmlns:dc="http://purl.org/dc/elements/1.1/"
   xmlns:cc="http://creativecommons.org/ns#"
   xmlns:rdf="http://www.w3.org/1999/02/22-rdf-syntax-ns#"
   xmlns:svg="http://www.w3.org/2000/svg"
   xmlns="http://www.w3.org/2000/svg"
   xmlns:sodipodi="http://sodipodi.sourceforge.net/DTD/sodipodi-0.dtd"
   xmlns:inkscape="http://www.inkscape.org/namespaces/inkscape"
   width="210mm"
   height="297mm"
   viewBox="0 0 744.09448819 1052.3622047"
   id="svg2"
   version="1.1"
   inkscape:version="0.91 r13725"
   sodipodi:docname="lemma.svg">
  <defs
     id="defs4" />
  <sodipodi:namedview
     id="base"
     pagecolor="#ffffff"
     bordercolor="#666666"
     borderopacity="1.0"
     inkscape:pageopacity="0.0"
     inkscape:pageshadow="2"
     inkscape:zoom="0.50933034"
     inkscape:cx="372.04724"
     inkscape:cy="526.1811"
     inkscape:document-units="px"
     inkscape:current-layer="layer1"
     showgrid="false"
     inkscape:snap-bbox="true"
     inkscape:bbox-paths="true"
     inkscape:snap-bbox-edge-midpoints="true"
     inkscape:bbox-nodes="true"
     inkscape:snap-bbox-midpoints="true"
     inkscape:object-paths="true"
     inkscape:snap-intersection-paths="true"
     inkscape:object-nodes="true"
     inkscape:snap-smooth-nodes="true"
     inkscape:snap-midpoints="true"
     inkscape:snap-center="true"
     inkscape:snap-object-midpoints="true"
     inkscape:snap-page="true"
     inkscape:snap-text-baseline="true"
     showguides="false"
     inkscape:window-width="1366"
     inkscape:window-height="705"
     inkscape:window-x="-8"
     inkscape:window-y="-8"
     inkscape:window-maximized="1"
     inkscape:snap-global="true" />
  <metadata
     id="metadata7">
    <rdf:RDF>
      <cc:Work
         rdf:about="">
        <dc:format>image/svg+xml</dc:format>
        <dc:type
           rdf:resource="http://purl.org/dc/dcmitype/StillImage" />
        <dc:title />
      </cc:Work>
    </rdf:RDF>
  </metadata>
  <g
     inkscape:label="Layer 1"
     inkscape:groupmode="layer"
     id="layer1">
    <path
       style="opacity:1;fill:#ffffff;fill-opacity:1;stroke:#000000;stroke-width:3;stroke-linecap:butt;stroke-linejoin:miter;stroke-miterlimit:4;stroke-dasharray:none;stroke-opacity:1"
       d="m 257.81703,844.88977 a 20.560955,20.560955 0 0 1 -20.55847,20.56096 20.560955,20.560955 0 0 1 -20.56344,-20.55599 20.560955,20.560955 0 0 1 20.55351,-20.56592 20.560955,20.560955 0 0 1 20.5684,20.55102"
       id="path4620-6" />
    <path
       style="opacity:1;fill:#ffffff;fill-opacity:1;stroke:#000000;stroke-width:3;stroke-linecap:butt;stroke-linejoin:miter;stroke-miterlimit:4;stroke-dasharray:none;stroke-opacity:1"
       d="M 86.340481,844.88977 A 20.560955,20.560955 0 0 1 65.782008,865.45073 20.560955,20.560955 0 0 1 45.218571,844.89474 20.560955,20.560955 0 0 1 65.772079,824.32882 20.560955,20.560955 0 0 1 86.340478,844.87984"
       id="path4620-9" />
    <path
       style="opacity:1;fill:#ffffff;fill-opacity:1;stroke:#000000;stroke-width:3;stroke-linecap:butt;stroke-linejoin:miter;stroke-miterlimit:4;stroke-dasharray:none;stroke-opacity:1"
       d="m 171.37985,843.38977 a 20.560955,20.560955 0 0 1 -20.55847,20.56096 20.560955,20.560955 0 0 1 -20.56344,-20.55599 20.560955,20.560955 0 0 1 20.55351,-20.56592 20.560955,20.560955 0 0 1 20.5684,20.55102"
       id="path4620-56" />
    <path
       style="opacity:1;fill:#ffffff;fill-opacity:1;stroke:#000000;stroke-width:3;stroke-linecap:butt;stroke-linejoin:miter;stroke-miterlimit:4;stroke-dasharray:none;stroke-opacity:1"
       d="m 256.56704,210.47241 a 20.560955,20.560955 0 0 1 -20.55847,20.56096 20.560955,20.560955 0 0 1 -20.56344,-20.55599 20.560955,20.560955 0 0 1 20.55351,-20.56592 20.560955,20.560955 0 0 1 20.5684,20.55102"
       id="path4620-6-6" />
    <path
       style="opacity:1;fill:#ffffff;fill-opacity:1;stroke:#000000;stroke-width:3;stroke-linecap:butt;stroke-linejoin:miter;stroke-miterlimit:4;stroke-dasharray:none;stroke-opacity:1"
       d="M 85.090481,210.47241 A 20.560955,20.560955 0 0 1 64.532008,231.03337 20.560955,20.560955 0 0 1 43.968571,210.47738 20.560955,20.560955 0 0 1 64.522079,189.91146 20.560955,20.560955 0 0 1 85.090478,210.46248"
       id="path4620-9-8" />
    <path
       style="opacity:1;fill:#ffffff;fill-opacity:1;stroke:#000000;stroke-width:3;stroke-linecap:butt;stroke-linejoin:miter;stroke-miterlimit:4;stroke-dasharray:none;stroke-opacity:1"
       d="m 170.12985,208.97241 a 20.560955,20.560955 0 0 1 -20.55847,20.56096 20.560955,20.560955 0 0 1 -20.56344,-20.55599 20.560955,20.560955 0 0 1 20.55351,-20.56592 20.560955,20.560955 0 0 1 20.5684,20.55102"
       id="path4620-56-8" />
    <path
       style="opacity:1;fill:#ffffff;fill-opacity:1;stroke:none;stroke-width:3;stroke-linecap:butt;stroke-linejoin:miter;stroke-miterlimit:4;stroke-dasharray:none;stroke-opacity:1"
       d="m 144.62843,51.381153 9.51503,0 0,900.121767 -9.51503,0 z"
       id="rect4839" />
    <path
       style="opacity:1;fill:#ffffff;fill-opacity:1;stroke:#000000;stroke-width:3;stroke-linecap:butt;stroke-linejoin:miter;stroke-miterlimit:4;stroke-dasharray:none;stroke-opacity:1"
       d="m 0,632.91736 297.63779,0 0,210.47243 -297.63779,0 z"
       id="rect4616" />
    <path
       style="opacity:1;fill:#ffffff;fill-opacity:1;stroke:#000000;stroke-width:3;stroke-linecap:butt;stroke-linejoin:miter;stroke-miterlimit:4;stroke-dasharray:none;stroke-opacity:1"
       d="m 1.5,210.47241 296.13779,0 0,210.47248 -296.13779,0 z"
       id="rect4612" />
    <path
       style="opacity:1;fill:#ffffff;fill-opacity:1;stroke:#000000;stroke-width:3;stroke-linecap:butt;stroke-linejoin:miter;stroke-miterlimit:4;stroke-dasharray:none;stroke-opacity:1"
       d="m 702.27372,211.97241 a 20.560955,20.560955 0 0 1 -20.55847,20.56096 20.560955,20.560955 0 0 1 -20.56344,-20.55599 20.560955,20.560955 0 0 1 20.55351,-20.56592 20.560955,20.560955 0 0 1 20.5684,20.55102"
       id="path4620-6-3" />
    <path
       style="opacity:1;fill:#ffffff;fill-opacity:1;stroke:#000000;stroke-width:3;stroke-linecap:butt;stroke-linejoin:miter;stroke-miterlimit:4;stroke-dasharray:none;stroke-opacity:1"
       d="m 530.79716,211.97241 a 20.560955,20.560955 0 0 1 -20.55847,20.56096 20.560955,20.560955 0 0 1 -20.56344,-20.55599 20.560955,20.560955 0 0 1 20.55351,-20.56592 20.560955,20.560955 0 0 1 20.5684,20.55102"
       id="path4620-9-6" />
    <path
       style="opacity:1;fill:#ffffff;fill-opacity:1;stroke:#000000;stroke-width:3;stroke-linecap:butt;stroke-linejoin:miter;stroke-miterlimit:4;stroke-dasharray:none;stroke-opacity:1"
       d="m 615.83653,210.47241 a 20.560955,20.560955 0 0 1 -20.55847,20.56096 20.560955,20.560955 0 0 1 -20.56344,-20.55599 20.560955,20.560955 0 0 1 20.55351,-20.56592 20.560955,20.560955 0 0 1 20.5684,20.55102"
       id="path4620-6-3-9" />
    <g
       style="font-style:normal;font-variant:normal;font-weight:normal;font-stretch:normal;font-size:60px;line-height:100%;font-family:'Times New Roman';-inkscape-font-specification:'Times New Roman, Normal';text-align:start;letter-spacing:0px;word-spacing:0px;writing-mode:lr-tb;text-anchor:start;fill:#000000;fill-opacity:1;stroke:none;stroke-width:1px;stroke-linecap:butt;stroke-linejoin:miter;stroke-opacity:1"
       id="text4726-4">
      <path
         d="m 165.79936,294.90787 0.43946,9.3164 -1.11329,0 q -0.32226,-2.46093 -0.8789,-3.51562 -0.90821,-1.69922 -2.43164,-2.49024 -1.49414,-0.82031 -3.95508,-0.82031 l -5.5957,0 0,30.35156 q 0,3.66211 0.79101,4.57032 1.11328,1.23047 3.42774,1.23047 l 1.37695,0 0,1.08398 -16.8457,0 0,-1.08398 1.40625,0 q 2.51953,0 3.57421,-1.52344 0.64454,-0.9375 0.64454,-4.27735 l 0,-30.35156 -4.77539,0 q -2.78321,0 -3.95508,0.41016 -1.52344,0.55664 -2.60742,2.13867 -1.08399,1.58203 -1.28907,4.27734 l -1.11328,0 0.46875,-9.3164 32.43164,0 z"
         style=""
         id="path4196" />
      <path
         d="m 362.90874,308.76529 31.61133,0 0,2.40234 -31.61133,0 0,-2.40234 z m 0,9.55078 31.61133,0 0,2.40234 -31.61133,0 0,-2.40234 z"
         style=""
         id="path4198" />
      <path
         d="m 604.31499,295.99185 0,-1.08398 14.0625,0 0,1.08398 -1.49414,0 q -2.34375,0 -3.60352,1.96289 -0.61523,0.90821 -0.61523,4.21875 l 0,16.11328 q 0,5.97657 -1.20118,9.28711 -1.17187,3.28125 -4.6582,5.6543 -3.45703,2.34375 -9.43359,2.34375 -6.50391,0 -9.87305,-2.25586 -3.36914,-2.25586 -4.77539,-6.06445 -0.9375,-2.60742 -0.9375,-9.78516 l 0,-15.52734 q 0,-3.66211 -1.02539,-4.80469 -0.99609,-1.14258 -3.25195,-1.14258 l -1.49414,0 0,-1.08398 17.16796,0 0,1.08398 -1.52343,0 q -2.46094,0 -3.51563,1.55274 -0.73242,1.05468 -0.73242,4.39453 l 0,17.31445 q 0,2.31445 0.41016,5.30273 0.43945,2.98829 1.55273,4.65821 1.11328,1.66992 3.19336,2.7539 2.10938,1.08399 5.15625,1.08399 3.89648,0 6.97266,-1.69922 3.07617,-1.69922 4.18945,-4.33594 1.14258,-2.66601 1.14258,-8.99414 l 0,-16.08398 q 0,-3.72071 -0.82031,-4.65821 -1.14258,-1.28906 -3.39844,-1.28906 l -1.49414,0 z"
         style=""
         id="path4200" />
    </g>
    <g
       style="font-style:normal;font-weight:normal;font-size:40px;line-height:125%;font-family:sans-serif;letter-spacing:0px;word-spacing:0px;fill:#000000;fill-opacity:1;stroke:none;stroke-width:1px;stroke-linecap:butt;stroke-linejoin:miter;stroke-opacity:1"
       id="text4811" />
    <path
       style="opacity:1;fill:#ffffff;fill-opacity:1;stroke:#000000;stroke-width:3;stroke-linecap:butt;stroke-linejoin:miter;stroke-miterlimit:4;stroke-dasharray:none;stroke-opacity:1"
       d="m 446.4567,632.91736 297.63778,0 0,210.47243 -297.63778,0 z"
       id="rect4618" />
    <g
       style="font-style:normal;font-variant:normal;font-weight:normal;font-stretch:normal;font-size:60px;line-height:100%;font-family:'Times New Roman';-inkscape-font-specification:'Times New Roman, Normal';text-align:start;letter-spacing:0px;word-spacing:0px;writing-mode:lr-tb;text-anchor:start;fill:#000000;fill-opacity:1;stroke:none;stroke-width:1px;stroke-linecap:butt;stroke-linejoin:miter;stroke-opacity:1"
       id="text4726-4-8">
      <path
         d="m 165.04936,718.29028 0.43946,9.31641 -1.11329,0 q -0.32226,-2.46094 -0.8789,-3.51563 -0.90821,-1.69921 -2.43164,-2.49023 -1.49414,-0.82031 -3.95508,-0.82031 l -5.5957,0 0,30.35156 q 0,3.66211 0.79101,4.57031 1.11328,1.23047 3.42774,1.23047 l 1.37695,0 0,1.08399 -16.8457,0 0,-1.08399 1.40625,0 q 2.51953,0 3.57421,-1.52344 0.64454,-0.9375 0.64454,-4.27734 l 0,-30.35156 -4.77539,0 q -2.78321,0 -3.95508,0.41015 -1.52344,0.55664 -2.60742,2.13868 -1.08399,1.58203 -1.28907,4.27734 l -1.11328,0 0.46875,-9.31641 32.43164,0 z"
         style=""
         id="path4205" />
      <path
         d="m 171.75835,734.49146 -1.58203,-8.67188 q -0.67383,-3.60352 -0.67383,-4.86328 0,-1.875 0.76172,-2.72461 0.76171,-0.84961 2.08007,-0.84961 1.31836,0 2.16797,0.87891 0.87891,0.84961 0.87891,2.25586 0,1.08398 -0.76172,5.33203 l -1.58203,8.64258 -1.28906,0 z"
         style=""
         id="path4207" />
      <path
         d="m 358.99467,732.14771 31.61133,0 0,2.40234 -31.61133,0 0,-2.40234 z m 0,9.55078 31.61133,0 0,2.40234 -31.61133,0 0,-2.40234 z"
         style=""
         id="path4209" />
      <path
         d="m 605.43999,718.29028 0.43945,9.31641 -1.11328,0 q -0.32227,-2.46094 -0.87891,-3.51563 -0.9082,-1.69921 -2.43164,-2.49023 -1.49414,-0.82031 -3.95508,-0.82031 l -5.5957,0 0,30.35156 q 0,3.66211 0.79102,4.57031 1.11328,1.23047 3.42773,1.23047 l 1.37695,0 0,1.08399 -16.8457,0 0,-1.08399 1.40625,0 q 2.51953,0 3.57422,-1.52344 0.64453,-0.9375 0.64453,-4.27734 l 0,-30.35156 -4.77539,0 q -2.7832,0 -3.95508,0.41015 -1.52344,0.55664 -2.60742,2.13868 -1.08398,1.58203 -1.28906,4.27734 l -1.11328,0 0.46875,-9.31641 32.43164,0 z"
         style=""
         id="path4211" />
    </g>
    <g
       style="font-style:normal;font-variant:normal;font-weight:normal;font-stretch:normal;font-size:20px;line-height:100%;font-family:'Times New Roman';-inkscape-font-specification:'Times New Roman, Normal';text-align:start;letter-spacing:0px;word-spacing:0px;writing-mode:lr-tb;text-anchor:start;fill:#000000;fill-opacity:1;stroke:none;stroke-width:1px;stroke-linecap:butt;stroke-linejoin:miter;stroke-opacity:1"
       id="text4871">
      <path
         d="m 38.694855,165.32716 3.222656,-1.57226 0.322266,0 0,11.18164 q 0,1.11328 0.08789,1.38672 0.09766,0.27343 0.390625,0.41992 0.292969,0.14648 1.191406,0.16601 l 0,0.36133 -4.980468,0 0,-0.36133 q 0.9375,-0.0195 1.210937,-0.15625 0.273438,-0.14648 0.38086,-0.38085 0.107421,-0.24415 0.107421,-1.43555 l 0,-7.14844 q 0,-1.44531 -0.09766,-1.85547 -0.06836,-0.3125 -0.253906,-0.45898 -0.175781,-0.14649 -0.429688,-0.14649 -0.361328,0 -1.005859,0.30274 l -0.146484,-0.30274 z"
         style=""
         id="path4214" />
      <path
         d="m 90.521027,174.72169 -0.927735,2.54883 -7.8125,0 0,-0.36133 q 3.447266,-3.14453 4.853516,-5.13671 1.40625,-1.99219 1.40625,-3.64258 0,-1.25977 -0.771485,-2.07031 -0.771484,-0.81055 -1.845703,-0.81055 -0.976562,0 -1.757812,0.57617 -0.771485,0.56641 -1.142578,1.66992 l -0.361328,0 q 0.24414,-1.80664 1.25,-2.77344 1.015625,-0.96679 2.529296,-0.96679 1.611329,0 2.685547,1.03515 1.083985,1.03516 1.083985,2.44141 0,1.00586 -0.46875,2.01172 -0.722657,1.58203 -2.34375,3.34961 -2.431641,2.65625 -3.03711,3.20312 l 3.457032,0 q 1.054687,0 1.474609,-0.0781 0.429687,-0.0781 0.771484,-0.3125 0.341797,-0.24414 0.595703,-0.6836 l 0.361329,0 z"
         style=""
         id="path4216" />
      <path
         d="m 143.8511,175.37599 q 0.45899,0 0.77149,0.32227 0.3125,0.3125 0.3125,0.76172 0,0.44921 -0.32227,0.77148 -0.3125,0.3125 -0.76172,0.3125 -0.44921,0 -0.77148,-0.3125 -0.3125,-0.32227 -0.3125,-0.77148 0,-0.45899 0.3125,-0.77149 0.32227,-0.3125 0.77148,-0.3125 z"
         style=""
         id="path4218" />
      <path
         d="m 148.8511,175.37599 q 0.45899,0 0.77149,0.32227 0.3125,0.3125 0.3125,0.76172 0,0.44921 -0.32227,0.77148 -0.3125,0.3125 -0.76172,0.3125 -0.44921,0 -0.77148,-0.3125 -0.3125,-0.32227 -0.3125,-0.77148 0,-0.45899 0.3125,-0.77149 0.32227,-0.3125 0.77148,-0.3125 z"
         style=""
         id="path4220" />
      <path
         d="m 153.8511,175.37599 q 0.45899,0 0.77149,0.32227 0.3125,0.3125 0.3125,0.76172 0,0.44921 -0.32227,0.77148 -0.3125,0.3125 -0.76172,0.3125 -0.44921,0 -0.77148,-0.3125 -0.3125,-0.32227 -0.3125,-0.77148 0,-0.45899 0.3125,-0.77149 0.32227,-0.3125 0.77148,-0.3125 z"
         style=""
         id="path4222" />
      <path
         d="m 192.56204,181.18654 0,0.36133 q -1.47461,-0.74219 -2.46094,-1.73828 -1.40625,-1.41602 -2.16796,-3.33985 -0.76172,-1.92383 -0.76172,-3.99414 0,-3.02734 1.49414,-5.51758 1.49414,-2.5 3.89648,-3.57422 l 0,0.41016 q -1.20117,0.66406 -1.97265,1.81641 -0.77149,1.15234 -1.15235,2.91992 -0.38086,1.76758 -0.38086,3.6914 0,2.08985 0.32227,3.79883 0.2539,1.34766 0.61523,2.15821 0.36133,0.82031 0.9668,1.57226 0.61523,0.75195 1.60156,1.43555 z"
         style=""
         id="path4224" />
      <path
         d="m 202.20071,174.72169 -0.92773,2.54883 -7.8125,0 0,-0.36133 q 3.44727,-3.14453 4.85352,-5.13671 1.40625,-1.99219 1.40625,-3.64258 0,-1.25977 -0.77149,-2.07031 -0.77148,-0.81055 -1.8457,-0.81055 -0.97656,0 -1.75781,0.57617 -0.77149,0.56641 -1.14258,1.66992 l -0.36133,0 q 0.24414,-1.80664 1.25,-2.77344 1.01562,-0.96679 2.5293,-0.96679 1.61132,0 2.68554,1.03515 1.08399,1.03516 1.08399,2.44141 0,1.00586 -0.46875,2.01172 -0.72266,1.58203 -2.34375,3.34961 -2.43164,2.65625 -3.03711,3.20312 l 3.45703,0 q 1.05469,0 1.47461,-0.0781 0.42969,-0.0781 0.77148,-0.3125 0.3418,-0.24414 0.59571,-0.6836 l 0.36132,0 z"
         style=""
         id="path4226" />
      <path
         d="m 206.26321,169.95607 q 1.57227,-1.89453 2.99805,-1.89453 0.73242,0 1.25977,0.37109 0.52734,0.36133 0.83984,1.20117 0.21484,0.58594 0.21484,1.79688 l 0,3.81836 q 0,0.84961 0.13672,1.15234 0.10742,0.24414 0.3418,0.38086 0.24414,0.13672 0.88867,0.13672 l 0,0.35156 -4.42383,0 0,-0.35156 0.18555,0 q 0.625,0 0.86914,-0.18555 0.25391,-0.19531 0.35156,-0.5664 0.0391,-0.14649 0.0391,-0.91797 l 0,-3.66211 q 0,-1.2207 -0.32227,-1.76758 -0.3125,-0.55664 -1.06445,-0.55664 -1.16211,0 -2.31446,1.26953 l 0,4.7168 q 0,0.9082 0.10743,1.12305 0.13671,0.2832 0.37109,0.41992 0.24414,0.12695 0.97656,0.12695 l 0,0.35156 -4.42383,0 0,-0.35156 0.19532,0 q 0.68359,0 0.91797,-0.3418 0.24414,-0.35156 0.24414,-1.32812 l 0,-3.32031 q 0,-1.61133 -0.0781,-1.96289 -0.0684,-0.35157 -0.22461,-0.47852 -0.14648,-0.12695 -0.40039,-0.12695 -0.27344,0 -0.6543,0.14648 l -0.14648,-0.35156 2.69531,-1.09375 0.41992,0 0,1.89453 z"
         style=""
         id="path4228" />
      <path
         d="m 213.84134,172.04591 5.04883,0 0,1.47461 -5.04883,0 0,-1.47461 z"
         style=""
         id="path4230" />
      <path
         d="m 222.05423,165.32716 3.22266,-1.57226 0.32226,0 0,11.18164 q 0,1.11328 0.0879,1.38672 0.0977,0.27343 0.39063,0.41992 0.29297,0.14648 1.1914,0.16601 l 0,0.36133 -4.98047,0 0,-0.36133 q 0.9375,-0.0195 1.21094,-0.15625 0.27344,-0.14648 0.38086,-0.38085 0.10742,-0.24415 0.10742,-1.43555 l 0,-7.14844 q 0,-1.44531 -0.0976,-1.85547 -0.0684,-0.3125 -0.25391,-0.45898 -0.17578,-0.14649 -0.42969,-0.14649 -0.36132,0 -1.00586,0.30274 l -0.14648,-0.30274 z"
         style=""
         id="path4232" />
      <path
         d="m 230.1597,163.79396 0,-0.41016 q 1.48437,0.73243 2.4707,1.72852 1.39649,1.42578 2.1582,3.34961 0.76172,1.91406 0.76172,3.99414 0,3.02734 -1.49414,5.51758 -1.48437,2.5 -3.89648,3.57422 l 0,-0.36133 q 1.20117,-0.67383 1.97265,-1.82617 0.78125,-1.14258 1.15235,-2.91016 0.38086,-1.77734 0.38086,-3.70117 0,-2.08008 -0.32227,-3.79883 -0.24414,-1.34766 -0.61523,-2.1582 -0.36133,-0.81055 -0.9668,-1.5625 -0.60547,-0.75196 -1.60156,-1.43555 z"
         style=""
         id="path4234" />
      <path
         d="m 252.6011,181.18654 0,0.36133 q -1.4746,-0.74219 -2.46093,-1.73828 -1.40625,-1.41602 -2.16797,-3.33985 -0.76172,-1.92383 -0.76172,-3.99414 0,-3.02734 1.49414,-5.51758 1.49414,-2.5 3.89648,-3.57422 l 0,0.41016 q -1.20117,0.66406 -1.97265,1.81641 -0.77149,1.15234 -1.15235,2.91992 -0.38085,1.76758 -0.38085,3.6914 0,2.08985 0.32226,3.79883 0.25391,1.34766 0.61524,2.15821 0.36132,0.82031 0.96679,1.57226 0.61524,0.75195 1.60156,1.43555 z"
         style=""
         id="path4236" />
      <path
         d="m 262.23978,174.72169 -0.92774,2.54883 -7.8125,0 0,-0.36133 q 3.44727,-3.14453 4.85352,-5.13671 1.40625,-1.99219 1.40625,-3.64258 0,-1.25977 -0.77149,-2.07031 -0.77148,-0.81055 -1.8457,-0.81055 -0.97656,0 -1.75781,0.57617 -0.77149,0.56641 -1.14258,1.66992 l -0.36133,0 q 0.24414,-1.80664 1.25,-2.77344 1.01563,-0.96679 2.5293,-0.96679 1.61133,0 2.68555,1.03515 1.08398,1.03516 1.08398,2.44141 0,1.00586 -0.46875,2.01172 -0.72266,1.58203 -2.34375,3.34961 -2.43164,2.65625 -3.03711,3.20312 l 3.45703,0 q 1.05469,0 1.47461,-0.0781 0.42969,-0.0781 0.77149,-0.3125 0.34179,-0.24414 0.5957,-0.6836 l 0.36133,0 z"
         style=""
         id="path4238" />
      <path
         d="m 266.30228,169.95607 q 1.57226,-1.89453 2.99804,-1.89453 0.73243,0 1.25977,0.37109 0.52734,0.36133 0.83984,1.20117 0.21485,0.58594 0.21485,1.79688 l 0,3.81836 q 0,0.84961 0.13672,1.15234 0.10742,0.24414 0.34179,0.38086 0.24414,0.13672 0.88867,0.13672 l 0,0.35156 -4.42382,0 0,-0.35156 0.18554,0 q 0.625,0 0.86914,-0.18555 0.25391,-0.19531 0.35157,-0.5664 0.0391,-0.14649 0.0391,-0.91797 l 0,-3.66211 q 0,-1.2207 -0.32227,-1.76758 -0.3125,-0.55664 -1.06445,-0.55664 -1.16211,0 -2.31445,1.26953 l 0,4.7168 q 0,0.9082 0.10742,1.12305 0.13672,0.2832 0.37109,0.41992 0.24414,0.12695 0.97656,0.12695 l 0,0.35156 -4.42382,0 0,-0.35156 0.19531,0 q 0.68359,0 0.91797,-0.3418 0.24414,-0.35156 0.24414,-1.32812 l 0,-3.32031 q 0,-1.61133 -0.0781,-1.96289 -0.0684,-0.35157 -0.22461,-0.47852 -0.14648,-0.12695 -0.40039,-0.12695 -0.27343,0 -0.65429,0.14648 l -0.14649,-0.35156 2.69531,-1.09375 0.41993,0 0,1.89453 z"
         style=""
         id="path4240" />
      <path
         d="m 273.51907,163.79396 0,-0.41016 q 1.48438,0.73243 2.47071,1.72852 1.39648,1.42578 2.1582,3.34961 0.76172,1.91406 0.76172,3.99414 0,3.02734 -1.49414,5.51758 -1.48438,2.5 -3.89649,3.57422 l 0,-0.36133 q 1.20118,-0.67383 1.97266,-1.82617 0.78125,-1.14258 1.15234,-2.91016 0.38086,-1.77734 0.38086,-3.70117 0,-2.08008 -0.32226,-3.79883 -0.24414,-1.34766 -0.61524,-2.1582 -0.36133,-0.81055 -0.96679,-1.5625 -0.60547,-0.75196 -1.60157,-1.43555 z"
         style=""
         id="path4242" />
    </g>
    <g
       style="font-style:normal;font-variant:normal;font-weight:normal;font-stretch:normal;font-size:12.5px;line-height:100%;font-family:'Times New Roman';-inkscape-font-specification:'Times New Roman, Normal';text-align:start;letter-spacing:0px;word-spacing:0px;writing-mode:lr-tb;text-anchor:start;fill:#000000;fill-opacity:1;stroke:none;stroke-width:1px;stroke-linecap:butt;stroke-linejoin:miter;stroke-opacity:1"
       id="text4901">
      <path
         d="m 46.6506,173.80763 0,1.83716 1.306153,0 0,0.42725 -1.306153,0 0,3.62549 q 0,0.54321 0.152588,0.73242 0.158692,0.18921 0.402832,0.18921 0.201416,0 0.390625,-0.12207 0.189209,-0.12818 0.292969,-0.37232 l 0.238037,0 q -0.213623,0.59815 -0.604248,0.90332 -0.390625,0.29907 -0.805664,0.29907 -0.280762,0 -0.549316,-0.15258 -0.268555,-0.1587 -0.396729,-0.44556 -0.128174,-0.29297 -0.128174,-0.89722 l 0,-3.75976 -0.885009,0 0,-0.20142 q 0.335693,-0.13428 0.683593,-0.45166 0.354004,-0.32349 0.628662,-0.76294 0.140381,-0.23193 0.390625,-0.84839 l 0.189209,0 z"
         style=""
         id="path4245" />
      <path
         d="m 93.867397,173.80763 0,1.83716 1.306153,0 0,0.42725 -1.306153,0 0,3.62549 q 0,0.54321 0.152588,0.73242 0.158692,0.18921 0.402832,0.18921 0.201416,0 0.390625,-0.12207 0.189209,-0.12818 0.292969,-0.37232 l 0.238037,0 q -0.213623,0.59815 -0.604248,0.90332 -0.390625,0.29907 -0.805664,0.29907 -0.280762,0 -0.549316,-0.15258 -0.268555,-0.1587 -0.396729,-0.44556 -0.128174,-0.29297 -0.128174,-0.89722 l 0,-3.75976 -0.88501,0 0,-0.20142 q 0.335694,-0.13428 0.683594,-0.45166 0.354004,-0.32349 0.628662,-0.76294 0.140381,-0.23193 0.390625,-0.84839 l 0.189209,0 z"
         style=""
         id="path4247" />
      <path
         d="m 237.95919,173.80763 0,1.83716 1.30616,0 0,0.42725 -1.30616,0 0,3.62549 q 0,0.54321 0.15259,0.73242 0.15869,0.18921 0.40283,0.18921 0.20142,0 0.39063,-0.12207 0.18921,-0.12818 0.29297,-0.37232 l 0.23803,0 q -0.21362,0.59815 -0.60424,0.90332 -0.39063,0.29907 -0.80567,0.29907 -0.28076,0 -0.54931,-0.15258 -0.26856,-0.1587 -0.39673,-0.44556 -0.12818,-0.29297 -0.12818,-0.89722 l 0,-3.75976 -0.88501,0 0,-0.20142 q 0.3357,-0.13428 0.6836,-0.45166 0.354,-0.32349 0.62866,-0.76294 0.14038,-0.23193 0.39063,-0.84839 l 0.1892,0 z"
         style=""
         id="path4249" />
      <path
         d="m 282.05099,173.80763 0,1.83716 1.30615,0 0,0.42725 -1.30615,0 0,3.62549 q 0,0.54321 0.15259,0.73242 0.15869,0.18921 0.40283,0.18921 0.20142,0 0.39063,-0.12207 0.1892,-0.12818 0.29296,-0.37232 l 0.23804,0 q -0.21362,0.59815 -0.60425,0.90332 -0.39062,0.29907 -0.80566,0.29907 -0.28076,0 -0.54932,-0.15258 -0.26855,-0.1587 -0.39673,-0.44556 -0.12817,-0.29297 -0.12817,-0.89722 l 0,-3.75976 -0.88501,0 0,-0.20142 q 0.33569,-0.13428 0.68359,-0.45166 0.35401,-0.32349 0.62867,-0.76294 0.14038,-0.23193 0.39062,-0.84839 l 0.18921,0 z"
         style=""
         id="path4251" />
    </g>
    <path
       style="opacity:1;fill:#ffffff;fill-opacity:1;stroke:none;stroke-width:3;stroke-linecap:butt;stroke-linejoin:miter;stroke-miterlimit:4;stroke-dasharray:none;stroke-opacity:1"
       d="m 590.51807,163.91141 9.51503,0 0,90.122 -9.51503,0 z"
       id="rect4839-6" />
    <g
       style="font-style:normal;font-variant:normal;font-weight:normal;font-stretch:normal;font-size:20px;line-height:100%;font-family:'Times New Roman';-inkscape-font-specification:'Times New Roman, Normal';text-align:start;letter-spacing:0px;word-spacing:0px;writing-mode:lr-tb;text-anchor:start;fill:#000000;fill-opacity:1;stroke:none;stroke-width:1px;stroke-linecap:butt;stroke-linejoin:miter;stroke-opacity:1"
       id="text4871-0">
      <path
         d="m 483.20099,165.34225 3.22266,-1.57226 0.32226,0 0,11.18164 q 0,1.11328 0.0879,1.38672 0.0977,0.27344 0.39063,0.41992 0.29297,0.14648 1.1914,0.16602 l 0,0.36132 -4.98047,0 0,-0.36132 q 0.9375,-0.0195 1.21094,-0.15625 0.27344,-0.14649 0.38086,-0.38086 0.10742,-0.24414 0.10742,-1.43555 l 0,-7.14844 q 0,-1.44531 -0.0977,-1.85547 -0.0684,-0.3125 -0.25391,-0.45898 -0.17578,-0.14649 -0.42969,-0.14649 -0.36133,0 -1.00586,0.30274 l -0.14648,-0.30274 z"
         style=""
         id="path4255" />
      <path
         d="m 535.02716,174.73679 -0.92773,2.54882 -7.8125,0 0,-0.36132 q 3.44726,-3.14454 4.85351,-5.13672 1.40625,-1.99219 1.40625,-3.64258 0,-1.25977 -0.77148,-2.07031 -0.77149,-0.81055 -1.84571,-0.81055 -0.97656,0 -1.75781,0.57617 -0.77148,0.56641 -1.14258,1.66992 l -0.36132,0 q 0.24414,-1.80664 1.25,-2.77343 1.01562,-0.9668 2.52929,-0.9668 1.61133,0 2.68555,1.03516 1.08398,1.03515 1.08398,2.4414 0,1.00586 -0.46875,2.01172 -0.72265,1.58203 -2.34375,3.34961 -2.43164,2.65625 -3.03711,3.20312 l 3.45704,0 q 1.05468,0 1.47461,-0.0781 0.42968,-0.0781 0.77148,-0.3125 0.3418,-0.24414 0.5957,-0.68359 l 0.36133,0 z"
         style=""
         id="path4257" />
      <path
         d="m 588.35724,175.39108 q 0.45898,0 0.77148,0.32227 0.3125,0.3125 0.3125,0.76172 0,0.44922 -0.32226,0.77148 -0.3125,0.3125 -0.76172,0.3125 -0.44922,0 -0.77149,-0.3125 -0.3125,-0.32226 -0.3125,-0.77148 0,-0.45899 0.3125,-0.77149 0.32227,-0.3125 0.77149,-0.3125 z"
         style=""
         id="path4259" />
      <path
         d="m 593.35724,175.39108 q 0.45898,0 0.77148,0.32227 0.3125,0.3125 0.3125,0.76172 0,0.44922 -0.32226,0.77148 -0.3125,0.3125 -0.76172,0.3125 -0.44922,0 -0.77149,-0.3125 -0.3125,-0.32226 -0.3125,-0.77148 0,-0.45899 0.3125,-0.77149 0.32227,-0.3125 0.77149,-0.3125 z"
         style=""
         id="path4261" />
      <path
         d="m 598.35724,175.39108 q 0.45898,0 0.77148,0.32227 0.3125,0.3125 0.3125,0.76172 0,0.44922 -0.32226,0.77148 -0.3125,0.3125 -0.76172,0.3125 -0.44922,0 -0.77149,-0.3125 -0.3125,-0.32226 -0.3125,-0.77148 0,-0.45899 0.3125,-0.77149 0.32227,-0.3125 0.77149,-0.3125 z"
         style=""
         id="path4263" />
      <path
         d="m 637.06818,181.20163 0,0.36133 q -1.47461,-0.74219 -2.46094,-1.73828 -1.40625,-1.41602 -2.16797,-3.33985 -0.76172,-1.92383 -0.76172,-3.99414 0,-3.02734 1.49414,-5.51758 1.49414,-2.5 3.89649,-3.57421 l 0,0.41015 q -1.20118,0.66406 -1.97266,1.81641 -0.77148,1.15234 -1.15234,2.91992 -0.38086,1.76758 -0.38086,3.69141 0,2.08984 0.32226,3.79882 0.25391,1.34766 0.61524,2.15821 0.36133,0.82031 0.96679,1.57226 0.61524,0.75196 1.60157,1.43555 z"
         style=""
         id="path4265" />
      <path
         d="m 646.70685,174.73679 -0.92774,2.54882 -7.8125,0 0,-0.36132 q 3.44727,-3.14454 4.85352,-5.13672 1.40625,-1.99219 1.40625,-3.64258 0,-1.25977 -0.77148,-2.07031 -0.77149,-0.81055 -1.84571,-0.81055 -0.97656,0 -1.75781,0.57617 -0.77148,0.56641 -1.14258,1.66992 l -0.36133,0 q 0.24414,-1.80664 1.25,-2.77343 1.01563,-0.9668 2.5293,-0.9668 1.61133,0 2.68555,1.03516 1.08398,1.03515 1.08398,2.4414 0,1.00586 -0.46875,2.01172 -0.72265,1.58203 -2.34375,3.34961 -2.43164,2.65625 -3.03711,3.20312 l 3.45703,0 q 1.05469,0 1.47461,-0.0781 0.42969,-0.0781 0.77149,-0.3125 0.34179,-0.24414 0.5957,-0.68359 l 0.36133,0 z"
         style=""
         id="path4267" />
      <path
         d="m 650.76935,169.97116 q 1.57226,-1.89453 2.99805,-1.89453 0.73242,0 1.25976,0.37109 0.52734,0.36133 0.83984,1.20118 0.21485,0.58593 0.21485,1.79687 l 0,3.81836 q 0,0.84961 0.13672,1.15234 0.10742,0.24414 0.34179,0.38086 0.24414,0.13672 0.88868,0.13672 l 0,0.35156 -4.42383,0 0,-0.35156 0.18554,0 q 0.625,0 0.86915,-0.18555 0.2539,-0.19531 0.35156,-0.5664 0.0391,-0.14649 0.0391,-0.91797 l 0,-3.66211 q 0,-1.2207 -0.32227,-1.76758 -0.3125,-0.55664 -1.06445,-0.55664 -1.16211,0 -2.31445,1.26953 l 0,4.7168 q 0,0.9082 0.10742,1.12305 0.13672,0.2832 0.37109,0.41992 0.24414,0.12695 0.97657,0.12695 l 0,0.35156 -4.42383,0 0,-0.35156 0.19531,0 q 0.68359,0 0.91797,-0.3418 0.24414,-0.35156 0.24414,-1.32812 l 0,-3.32031 q 0,-1.61133 -0.0781,-1.96289 -0.0684,-0.35157 -0.22461,-0.47852 -0.14649,-0.12695 -0.40039,-0.12695 -0.27344,0 -0.6543,0.14648 l -0.14649,-0.35156 2.69532,-1.09375 0.41992,0 0,1.89453 z"
         style=""
         id="path4269" />
      <path
         d="m 658.34747,172.061 5.04883,0 0,1.47461 -5.04883,0 0,-1.47461 z"
         style=""
         id="path4271" />
      <path
         d="m 666.56036,165.34225 3.22266,-1.57226 0.32227,0 0,11.18164 q 0,1.11328 0.0879,1.38672 0.0977,0.27344 0.39062,0.41992 0.29297,0.14648 1.19141,0.16602 l 0,0.36132 -4.98047,0 0,-0.36132 q 0.9375,-0.0195 1.21094,-0.15625 0.27343,-0.14649 0.38086,-0.38086 0.10742,-0.24414 0.10742,-1.43555 l 0,-7.14844 q 0,-1.44531 -0.0977,-1.85547 -0.0684,-0.3125 -0.2539,-0.45898 -0.17579,-0.14649 -0.42969,-0.14649 -0.36133,0 -1.00586,0.30274 l -0.14649,-0.30274 z"
         style=""
         id="path4273" />
      <path
         d="m 674.66583,163.80905 0,-0.41015 q 1.48438,0.73242 2.47071,1.72851 1.39648,1.42578 2.1582,3.34961 0.76172,1.91406 0.76172,3.99414 0,3.02734 -1.49414,5.51758 -1.48438,2.5 -3.89649,3.57422 l 0,-0.36133 q 1.20117,-0.67383 1.97266,-1.82617 0.78125,-1.14258 1.15234,-2.91016 0.38086,-1.77734 0.38086,-3.70117 0,-2.08008 -0.32226,-3.79883 -0.24414,-1.34765 -0.61524,-2.1582 -0.36133,-0.81055 -0.96679,-1.5625 -0.60547,-0.75195 -1.60157,-1.43555 z"
         style=""
         id="path4275" />
      <path
         d="m 697.10724,181.20163 0,0.36133 q -1.47461,-0.74219 -2.46094,-1.73828 -1.40625,-1.41602 -2.16797,-3.33985 -0.76172,-1.92383 -0.76172,-3.99414 0,-3.02734 1.49414,-5.51758 1.49415,-2.5 3.89649,-3.57421 l 0,0.41015 q -1.20117,0.66406 -1.97266,1.81641 -0.77148,1.15234 -1.15234,2.91992 -0.38086,1.76758 -0.38086,3.69141 0,2.08984 0.32227,3.79882 0.2539,1.34766 0.61523,2.15821 0.36133,0.82031 0.9668,1.57226 0.61523,0.75196 1.60156,1.43555 z"
         style=""
         id="path4277" />
      <path
         d="m 706.74591,174.73679 -0.92773,2.54882 -7.8125,0 0,-0.36132 q 3.44726,-3.14454 4.85351,-5.13672 1.40625,-1.99219 1.40625,-3.64258 0,-1.25977 -0.77148,-2.07031 -0.77149,-0.81055 -1.84571,-0.81055 -0.97656,0 -1.75781,0.57617 -0.77148,0.56641 -1.14258,1.66992 l -0.36132,0 q 0.24414,-1.80664 1.25,-2.77343 1.01562,-0.9668 2.52929,-0.9668 1.61133,0 2.68555,1.03516 1.08398,1.03515 1.08398,2.4414 0,1.00586 -0.46875,2.01172 -0.72265,1.58203 -2.34375,3.34961 -2.43164,2.65625 -3.03711,3.20312 l 3.45704,0 q 1.05468,0 1.47461,-0.0781 0.42968,-0.0781 0.77148,-0.3125 0.3418,-0.24414 0.5957,-0.68359 l 0.36133,0 z"
         style=""
         id="path4279" />
      <path
         d="m 710.80841,169.97116 q 1.57227,-1.89453 2.99805,-1.89453 0.73242,0 1.25976,0.37109 0.52735,0.36133 0.83985,1.20118 0.21484,0.58593 0.21484,1.79687 l 0,3.81836 q 0,0.84961 0.13672,1.15234 0.10742,0.24414 0.3418,0.38086 0.24414,0.13672 0.88867,0.13672 l 0,0.35156 -4.42383,0 0,-0.35156 0.18555,0 q 0.625,0 0.86914,-0.18555 0.2539,-0.19531 0.35156,-0.5664 0.0391,-0.14649 0.0391,-0.91797 l 0,-3.66211 q 0,-1.2207 -0.32226,-1.76758 -0.3125,-0.55664 -1.06446,-0.55664 -1.16211,0 -2.31445,1.26953 l 0,4.7168 q 0,0.9082 0.10742,1.12305 0.13672,0.2832 0.3711,0.41992 0.24414,0.12695 0.97656,0.12695 l 0,0.35156 -4.42383,0 0,-0.35156 0.19531,0 q 0.6836,0 0.91797,-0.3418 0.24414,-0.35156 0.24414,-1.32812 l 0,-3.32031 q 0,-1.61133 -0.0781,-1.96289 -0.0684,-0.35157 -0.22461,-0.47852 -0.14649,-0.12695 -0.40039,-0.12695 -0.27344,0 -0.6543,0.14648 l -0.14648,-0.35156 2.69531,-1.09375 0.41992,0 0,1.89453 z"
         style=""
         id="path4281" />
      <path
         d="m 718.02521,163.80905 0,-0.41015 q 1.48437,0.73242 2.4707,1.72851 1.39649,1.42578 2.1582,3.34961 0.76172,1.91406 0.76172,3.99414 0,3.02734 -1.49414,5.51758 -1.48437,2.5 -3.89648,3.57422 l 0,-0.36133 q 1.20117,-0.67383 1.97265,-1.82617 0.78125,-1.14258 1.15235,-2.91016 0.38086,-1.77734 0.38086,-3.70117 0,-2.08008 -0.32227,-3.79883 -0.24414,-1.34765 -0.61523,-2.1582 -0.36133,-0.81055 -0.9668,-1.5625 -0.60547,-0.75195 -1.60156,-1.43555 z"
         style=""
         id="path4283" />
    </g>
    <g
       style="font-style:normal;font-variant:normal;font-weight:normal;font-stretch:normal;font-size:12.5px;line-height:100%;font-family:'Times New Roman';-inkscape-font-specification:'Times New Roman, Normal';text-align:start;letter-spacing:0px;word-spacing:0px;writing-mode:lr-tb;text-anchor:start;fill:#000000;fill-opacity:1;stroke:none;stroke-width:1px;stroke-linecap:butt;stroke-linejoin:miter;stroke-opacity:1"
       id="text4901-1">
      <path
         d="m 491.15674,173.82272 0,1.83716 1.30615,0 0,0.42725 -1.30615,0 0,3.62549 q 0,0.54321 0.15259,0.73242 0.15869,0.18921 0.40283,0.18921 0.20141,0 0.39062,-0.12207 0.18921,-0.12818 0.29297,-0.37232 l 0.23804,0 q -0.21362,0.59815 -0.60425,0.90332 -0.39062,0.29907 -0.80566,0.29907 -0.28076,0 -0.54932,-0.15258 -0.26855,-0.15869 -0.39673,-0.44556 -0.12817,-0.29297 -0.12817,-0.89722 l 0,-3.75976 -0.88501,0 0,-0.20142 q 0.33569,-0.13428 0.68359,-0.45166 0.35401,-0.32348 0.62866,-0.76294 0.14039,-0.23193 0.39063,-0.84839 l 0.18921,0 z"
         style=""
         id="path4286" />
      <path
         d="m 538.37354,173.82272 0,1.83716 1.30615,0 0,0.42725 -1.30615,0 0,3.62549 q 0,0.54321 0.15258,0.73242 0.15869,0.18921 0.40284,0.18921 0.20141,0 0.39062,-0.12207 0.18921,-0.12818 0.29297,-0.37232 l 0.23804,0 q -0.21363,0.59815 -0.60425,0.90332 -0.39063,0.29907 -0.80567,0.29907 -0.28076,0 -0.54931,-0.15258 -0.26856,-0.15869 -0.39673,-0.44556 -0.12817,-0.29297 -0.12817,-0.89722 l 0,-3.75976 -0.88501,0 0,-0.20142 q 0.33569,-0.13428 0.68359,-0.45166 0.354,-0.32348 0.62866,-0.76294 0.14038,-0.23193 0.39063,-0.84839 l 0.18921,0 z"
         style=""
         id="path4288" />
      <path
         d="m 682.46533,173.82272 0,1.83716 1.30615,0 0,0.42725 -1.30615,0 0,3.62549 q 0,0.54321 0.15259,0.73242 0.15869,0.18921 0.40283,0.18921 0.20142,0 0.39063,-0.12207 0.18921,-0.12818 0.29297,-0.37232 l 0.23803,0 q -0.21362,0.59815 -0.60425,0.90332 -0.39062,0.29907 -0.80566,0.29907 -0.28076,0 -0.54932,-0.15258 -0.26855,-0.15869 -0.39672,-0.44556 -0.12818,-0.29297 -0.12818,-0.89722 l 0,-3.75976 -0.88501,0 0,-0.20142 q 0.3357,-0.13428 0.6836,-0.45166 0.354,-0.32348 0.62866,-0.76294 0.14038,-0.23193 0.39062,-0.84839 l 0.18921,0 z"
         style=""
         id="path4290" />
      <path
         d="m 726.55713,173.82272 0,1.83716 1.30615,0 0,0.42725 -1.30615,0 0,3.62549 q 0,0.54321 0.15259,0.73242 0.15869,0.18921 0.40283,0.18921 0.20141,0 0.39062,-0.12207 0.18921,-0.12818 0.29297,-0.37232 l 0.23804,0 q -0.21362,0.59815 -0.60425,0.90332 -0.39062,0.29907 -0.80566,0.29907 -0.28076,0 -0.54932,-0.15258 -0.26855,-0.15869 -0.39673,-0.44556 -0.12817,-0.29297 -0.12817,-0.89722 l 0,-3.75976 -0.88501,0 0,-0.20142 q 0.33569,-0.13428 0.68359,-0.45166 0.35401,-0.32348 0.62866,-0.76294 0.14039,-0.23193 0.39063,-0.84839 l 0.18921,0 z"
         style=""
         id="path4292" />
    </g>
    <g
       style="font-style:normal;font-variant:normal;font-weight:normal;font-stretch:normal;font-size:20px;line-height:100%;font-family:'Times New Roman';-inkscape-font-specification:'Times New Roman, Normal';text-align:start;letter-spacing:0px;word-spacing:0px;writing-mode:lr-tb;text-anchor:start;fill:#000000;fill-opacity:1;stroke:none;stroke-width:1px;stroke-linecap:butt;stroke-linejoin:miter;stroke-opacity:1"
       id="text4871-1">
      <path
         d="m 39.0583,871.22321 3.222656,-1.57227 0.322266,0 0,11.18164 q 0,1.11328 0.08789,1.38672 0.09766,0.27344 0.390625,0.41992 0.292968,0.14649 1.191406,0.16602 l 0,0.36132 -4.980469,0 0,-0.36132 q 0.9375,-0.0195 1.210938,-0.15625 0.273437,-0.14649 0.380859,-0.38086 0.107422,-0.24414 0.107422,-1.43555 l 0,-7.14844 q 0,-1.44531 -0.09766,-1.85547 -0.06836,-0.3125 -0.253907,-0.45898 -0.175781,-0.14648 -0.429687,-0.14648 -0.361328,0 -1.00586,0.30273 L 39.0583,871.22321 Z"
         style=""
         id="path4295" />
      <path
         d="m 90.884472,880.61774 -0.927734,2.54882 -7.8125,0 0,-0.36132 q 3.447265,-3.14453 4.853515,-5.13672 1.40625,-1.99219 1.40625,-3.64258 0,-1.25977 -0.771484,-2.07031 -0.771485,-0.81055 -1.845703,-0.81055 -0.976563,0 -1.757813,0.57617 -0.771484,0.56641 -1.142578,1.66992 l -0.361328,0 q 0.244141,-1.80664 1.25,-2.77343 1.015625,-0.9668 2.529297,-0.9668 1.611328,0 2.685547,1.03516 1.083984,1.03515 1.083984,2.4414 0,1.00586 -0.46875,2.01172 -0.722656,1.58203 -2.34375,3.34961 -2.431641,2.65625 -3.037109,3.20313 l 3.457031,0 q 1.054687,0 1.474609,-0.0781 0.429688,-0.0781 0.771485,-0.3125 0.341797,-0.24414 0.595703,-0.68359 l 0.361328,0 z"
         style=""
         id="path4297" />
      <path
         d="m 144.21455,881.27203 q 0.45898,0 0.77148,0.32227 0.3125,0.3125 0.3125,0.76172 0,0.44922 -0.32226,0.77148 -0.3125,0.3125 -0.76172,0.3125 -0.44922,0 -0.77148,-0.3125 -0.3125,-0.32226 -0.3125,-0.77148 0,-0.45899 0.3125,-0.77149 0.32226,-0.3125 0.77148,-0.3125 z"
         style=""
         id="path4299" />
      <path
         d="m 149.21455,881.27203 q 0.45898,0 0.77148,0.32227 0.3125,0.3125 0.3125,0.76172 0,0.44922 -0.32226,0.77148 -0.3125,0.3125 -0.76172,0.3125 -0.44922,0 -0.77148,-0.3125 -0.3125,-0.32226 -0.3125,-0.77148 0,-0.45899 0.3125,-0.77149 0.32226,-0.3125 0.77148,-0.3125 z"
         style=""
         id="path4301" />
      <path
         d="m 154.21455,881.27203 q 0.45898,0 0.77148,0.32227 0.3125,0.3125 0.3125,0.76172 0,0.44922 -0.32226,0.77148 -0.3125,0.3125 -0.76172,0.3125 -0.44922,0 -0.77148,-0.3125 -0.3125,-0.32226 -0.3125,-0.77148 0,-0.45899 0.3125,-0.77149 0.32226,-0.3125 0.77148,-0.3125 z"
         style=""
         id="path4303" />
      <path
         d="m 192.92549,887.08258 0,0.36133 q -1.47461,-0.74219 -2.46094,-1.73828 -1.40625,-1.41602 -2.16797,-3.33985 -0.76172,-1.92382 -0.76172,-3.99414 0,-3.02734 1.49414,-5.51758 1.49414,-2.5 3.89649,-3.57421 l 0,0.41015 q -1.20117,0.66406 -1.97266,1.81641 -0.77148,1.15234 -1.15234,2.91992 -0.38086,1.76758 -0.38086,3.69141 0,2.08984 0.32226,3.79882 0.25391,1.34766 0.61524,2.15821 0.36133,0.82031 0.9668,1.57226 0.61523,0.75196 1.60156,1.43555 z"
         style=""
         id="path4305" />
      <path
         d="m 202.56416,880.61774 -0.92773,2.54882 -7.8125,0 0,-0.36132 q 3.44726,-3.14453 4.85351,-5.13672 1.40625,-1.99219 1.40625,-3.64258 0,-1.25977 -0.77148,-2.07031 -0.77149,-0.81055 -1.84571,-0.81055 -0.97656,0 -1.75781,0.57617 -0.77148,0.56641 -1.14258,1.66992 l -0.36133,0 q 0.24415,-1.80664 1.25,-2.77343 1.01563,-0.9668 2.5293,-0.9668 1.61133,0 2.68555,1.03516 1.08398,1.03515 1.08398,2.4414 0,1.00586 -0.46875,2.01172 -0.72265,1.58203 -2.34375,3.34961 -2.43164,2.65625 -3.03711,3.20313 l 3.45703,0 q 1.05469,0 1.47461,-0.0781 0.42969,-0.0781 0.77149,-0.3125 0.3418,-0.24414 0.5957,-0.68359 l 0.36133,0 z"
         style=""
         id="path4307" />
      <path
         d="m 206.62666,875.85211 q 1.57227,-1.89453 2.99805,-1.89453 0.73242,0 1.25976,0.37109 0.52735,0.36133 0.83985,1.20118 0.21484,0.58593 0.21484,1.79687 l 0,3.81836 q 0,0.84961 0.13672,1.15234 0.10742,0.24414 0.3418,0.38086 0.24414,0.13672 0.88867,0.13672 l 0,0.35156 -4.42383,0 0,-0.35156 0.18555,0 q 0.625,0 0.86914,-0.18554 0.2539,-0.19532 0.35156,-0.56641 0.0391,-0.14649 0.0391,-0.91797 l 0,-3.66211 q 0,-1.2207 -0.32226,-1.76758 -0.3125,-0.55664 -1.06446,-0.55664 -1.16211,0 -2.31445,1.26953 l 0,4.7168 q 0,0.9082 0.10742,1.12305 0.13672,0.2832 0.3711,0.41992 0.24414,0.12695 0.97656,0.12695 l 0,0.35156 -4.42383,0 0,-0.35156 0.19531,0 q 0.6836,0 0.91797,-0.34179 0.24414,-0.35157 0.24414,-1.32813 l 0,-3.32031 q 0,-1.61133 -0.0781,-1.96289 -0.0684,-0.35157 -0.22461,-0.47852 -0.14649,-0.12695 -0.40039,-0.12695 -0.27344,0 -0.6543,0.14648 l -0.14648,-0.35156 2.69531,-1.09375 0.41992,0 0,1.89453 z"
         style=""
         id="path4309" />
      <path
         d="m 214.20478,877.94196 5.04883,0 0,1.4746 -5.04883,0 0,-1.4746 z"
         style=""
         id="path4311" />
      <path
         d="m 222.41768,871.22321 3.22265,-1.57227 0.32227,0 0,11.18164 q 0,1.11328 0.0879,1.38672 0.0977,0.27344 0.39062,0.41992 0.29297,0.14649 1.19141,0.16602 l 0,0.36132 -4.98047,0 0,-0.36132 q 0.9375,-0.0195 1.21094,-0.15625 0.27344,-0.14649 0.38086,-0.38086 0.10742,-0.24414 0.10742,-1.43555 l 0,-7.14844 q 0,-1.44531 -0.0977,-1.85547 -0.0684,-0.3125 -0.2539,-0.45898 -0.17578,-0.14648 -0.42969,-0.14648 -0.36133,0 -1.00586,0.30273 l -0.14648,-0.30273 z"
         style=""
         id="path4313" />
      <path
         d="m 230.52314,869.69 0,-0.41015 q 1.48438,0.73242 2.47071,1.72851 1.39648,1.42578 2.1582,3.34961 0.76172,1.91406 0.76172,3.99414 0,3.02735 -1.49414,5.51758 -1.48438,2.5 -3.89649,3.57422 l 0,-0.36133 q 1.20118,-0.67383 1.97266,-1.82617 0.78125,-1.14258 1.15234,-2.91016 0.38086,-1.77734 0.38086,-3.70117 0,-2.08008 -0.32226,-3.79883 -0.24414,-1.34765 -0.61524,-2.1582 -0.36132,-0.81055 -0.96679,-1.5625 -0.60547,-0.75195 -1.60157,-1.43555 z"
         style=""
         id="path4315" />
      <path
         d="m 252.96455,887.08258 0,0.36133 q -1.47461,-0.74219 -2.46094,-1.73828 -1.40625,-1.41602 -2.16797,-3.33985 -0.76171,-1.92382 -0.76171,-3.99414 0,-3.02734 1.49414,-5.51758 1.49414,-2.5 3.89648,-3.57421 l 0,0.41015 q -1.20117,0.66406 -1.97266,1.81641 -0.77148,1.15234 -1.15234,2.91992 -0.38086,1.76758 -0.38086,3.69141 0,2.08984 0.32227,3.79882 0.2539,1.34766 0.61523,2.15821 0.36133,0.82031 0.9668,1.57226 0.61523,0.75196 1.60156,1.43555 z"
         style=""
         id="path4317" />
      <path
         d="m 262.60322,880.61774 -0.92773,2.54882 -7.8125,0 0,-0.36132 q 3.44726,-3.14453 4.85351,-5.13672 1.40625,-1.99219 1.40625,-3.64258 0,-1.25977 -0.77148,-2.07031 -0.77149,-0.81055 -1.8457,-0.81055 -0.97657,0 -1.75782,0.57617 -0.77148,0.56641 -1.14257,1.66992 l -0.36133,0 q 0.24414,-1.80664 1.25,-2.77343 1.01562,-0.9668 2.52929,-0.9668 1.61133,0 2.68555,1.03516 1.08399,1.03515 1.08399,2.4414 0,1.00586 -0.46875,2.01172 -0.72266,1.58203 -2.34375,3.34961 -2.43165,2.65625 -3.03711,3.20313 l 3.45703,0 q 1.05468,0 1.47461,-0.0781 0.42968,-0.0781 0.77148,-0.3125 0.3418,-0.24414 0.5957,-0.68359 l 0.36133,0 z"
         style=""
         id="path4319" />
      <path
         d="m 266.66572,875.85211 q 1.57227,-1.89453 2.99805,-1.89453 0.73242,0 1.25976,0.37109 0.52735,0.36133 0.83985,1.20118 0.21484,0.58593 0.21484,1.79687 l 0,3.81836 q 0,0.84961 0.13672,1.15234 0.10742,0.24414 0.3418,0.38086 0.24414,0.13672 0.88867,0.13672 l 0,0.35156 -4.42383,0 0,-0.35156 0.18555,0 q 0.625,0 0.86914,-0.18554 0.25391,-0.19532 0.35156,-0.56641 0.0391,-0.14649 0.0391,-0.91797 l 0,-3.66211 q 0,-1.2207 -0.32226,-1.76758 -0.3125,-0.55664 -1.06445,-0.55664 -1.16211,0 -2.31446,1.26953 l 0,4.7168 q 0,0.9082 0.10742,1.12305 0.13672,0.2832 0.3711,0.41992 0.24414,0.12695 0.97656,0.12695 l 0,0.35156 -4.42383,0 0,-0.35156 0.19531,0 q 0.6836,0 0.91797,-0.34179 0.24414,-0.35157 0.24414,-1.32813 l 0,-3.32031 q 0,-1.61133 -0.0781,-1.96289 -0.0684,-0.35157 -0.22461,-0.47852 -0.14648,-0.12695 -0.40039,-0.12695 -0.27344,0 -0.6543,0.14648 l -0.14648,-0.35156 2.69531,-1.09375 0.41992,0 0,1.89453 z"
         style=""
         id="path4321" />
      <path
         d="m 273.88252,869.69 0,-0.41015 q 1.48437,0.73242 2.4707,1.72851 1.39649,1.42578 2.15821,3.34961 0.76171,1.91406 0.76171,3.99414 0,3.02735 -1.49414,5.51758 -1.48437,2.5 -3.89648,3.57422 l 0,-0.36133 q 1.20117,-0.67383 1.97266,-1.82617 0.78125,-1.14258 1.15234,-2.91016 0.38086,-1.77734 0.38086,-3.70117 0,-2.08008 -0.32227,-3.79883 -0.24414,-1.34765 -0.61523,-2.1582 -0.36133,-0.81055 -0.9668,-1.5625 -0.60547,-0.75195 -1.60156,-1.43555 z"
         style=""
         id="path4323" />
    </g>
    <g
       style="font-style:normal;font-variant:normal;font-weight:normal;font-stretch:normal;font-size:12.5px;line-height:100%;font-family:'Times New Roman';-inkscape-font-specification:'Times New Roman, Normal';text-align:start;letter-spacing:0px;word-spacing:0px;writing-mode:lr-tb;text-anchor:start;fill:#000000;fill-opacity:1;stroke:none;stroke-width:1px;stroke-linecap:butt;stroke-linejoin:miter;stroke-opacity:1"
       id="text4901-0">
      <path
         d="m 46.922497,882.50519 q 0.811767,-1.12915 1.751709,-1.12915 0.860595,0 1.501465,0.73852 0.640869,0.73242 0.640869,2.00806 0,1.48926 -0.98877,2.39868 -0.848388,0.78125 -1.89209,0.78125 -0.488281,0 -0.994873,-0.177 -0.500488,-0.177 -1.02539,-0.53101 l 0,-5.79223 q 0,-0.95215 -0.04883,-1.17188 -0.04272,-0.21972 -0.140381,-0.29907 -0.09766,-0.0793 -0.244141,-0.0793 -0.170898,0 -0.427246,0.0977 l -0.08545,-0.21362 1.678467,-0.6836 0.274658,0 0,4.05274 z m 0,0.39062 0,3.34473 q 0.311279,0.30518 0.640869,0.46387 0.335693,0.15258 0.683594,0.15258 0.55542,0 1.031494,-0.61035 0.482178,-0.61035 0.482178,-1.77612 0,-1.07422 -0.482178,-1.64795 -0.476074,-0.57983 -1.086426,-0.57983 -0.323486,0 -0.646973,0.16479 -0.24414,0.12207 -0.622558,0.48828 z"
         style=""
         id="path4326" />
      <path
         d="m 93.797497,882.50519 q 0.811767,-1.12915 1.751709,-1.12915 0.860595,0 1.501465,0.73852 0.640869,0.73242 0.640869,2.00806 0,1.48926 -0.98877,2.39868 -0.848388,0.78125 -1.89209,0.78125 -0.488281,0 -0.994873,-0.177 -0.500488,-0.177 -1.02539,-0.53101 l 0,-5.79223 q 0,-0.95215 -0.04883,-1.17188 -0.04273,-0.21972 -0.140381,-0.29907 -0.09766,-0.0793 -0.244141,-0.0793 -0.170898,0 -0.427246,0.0977 l -0.08545,-0.21362 1.678467,-0.6836 0.274658,0 0,4.05274 z m 0,0.39062 0,3.34473 q 0.311279,0.30518 0.640869,0.46387 0.335693,0.15258 0.683594,0.15258 0.55542,0 1.031494,-0.61035 0.482178,-0.61035 0.482178,-1.77612 0,-1.07422 -0.482178,-1.64795 -0.476074,-0.57983 -1.086426,-0.57983 -0.323486,0 -0.646973,0.16479 -0.24414,0.12207 -0.622558,0.48828 z"
         style=""
         id="path4328" />
      <path
         d="m 237.5475,882.50519 q 0.81176,-1.12915 1.75171,-1.12915 0.86059,0 1.50146,0.73852 0.64087,0.73242 0.64087,2.00806 0,1.48926 -0.98877,2.39868 -0.84839,0.78125 -1.89209,0.78125 -0.48828,0 -0.99487,-0.177 -0.50049,-0.177 -1.02539,-0.53101 l 0,-5.79223 q 0,-0.95215 -0.0488,-1.17188 -0.0427,-0.21972 -0.14038,-0.29907 -0.0977,-0.0793 -0.24414,-0.0793 -0.1709,0 -0.42725,0.0977 l -0.0855,-0.21362 1.67847,-0.6836 0.27466,0 0,4.05274 z m 0,0.39062 0,3.34473 q 0.31128,0.30518 0.64087,0.46387 0.33569,0.15258 0.68359,0.15258 0.55542,0 1.03149,-0.61035 0.48218,-0.61035 0.48218,-1.77612 0,-1.07422 -0.48218,-1.64795 -0.47607,-0.57983 -1.08642,-0.57983 -0.32349,0 -0.64697,0.16479 -0.24415,0.12207 -0.62256,0.48828 z"
         style=""
         id="path4330" />
      <path
         d="m 281.2975,882.50519 q 0.81176,-1.12915 1.75171,-1.12915 0.86059,0 1.50146,0.73852 0.64087,0.73242 0.64087,2.00806 0,1.48926 -0.98877,2.39868 -0.84839,0.78125 -1.89209,0.78125 -0.48828,0 -0.99487,-0.177 -0.50049,-0.177 -1.02539,-0.53101 l 0,-5.79223 q 0,-0.95215 -0.0488,-1.17188 -0.0427,-0.21972 -0.14038,-0.29907 -0.0977,-0.0793 -0.24414,-0.0793 -0.1709,0 -0.42725,0.0977 l -0.0854,-0.21362 1.67847,-0.6836 0.27466,0 0,4.05274 z m 0,0.39062 0,3.34473 q 0.31128,0.30518 0.64087,0.46387 0.33569,0.15258 0.68359,0.15258 0.55542,0 1.03149,-0.61035 0.48218,-0.61035 0.48218,-1.77612 0,-1.07422 -0.48218,-1.64795 -0.47607,-0.57983 -1.08642,-0.57983 -0.32349,0 -0.64697,0.16479 -0.24415,0.12207 -0.62256,0.48828 z"
         style=""
         id="path4332" />
    </g>
    <g
       transform="matrix(0,1,-1,0,0,0)"
       style="font-style:normal;font-variant:normal;font-weight:normal;font-stretch:normal;font-size:90px;line-height:100%;font-family:'Times New Roman';-inkscape-font-specification:'Times New Roman, Normal';text-align:start;letter-spacing:0px;word-spacing:0px;writing-mode:lr-tb;text-anchor:start;fill:#000000;fill-opacity:1;stroke:none;stroke-width:1px;stroke-linecap:butt;stroke-linejoin:miter;stroke-opacity:1"
       id="text5097">
      <path
         d="m 494.74115,-366.6449 54.75586,0 4.96582,-6.15234 -5.05371,-6.24024 -54.66797,0 0,-5.84472 50.18555,0 -7.03125,-8.39356 2.85644,-2.41699 21.48926,21.48926 0,2.8125 -21.48926,21.48926 -2.85644,-2.417 7.07519,-8.48144 -50.22949,0 0,-5.84473 z m -3.12012,-6.19629 0,0 z"
         style=""
         id="path4335" />
    </g>
    <path
       style="opacity:1;fill:none;fill-opacity:1;stroke:#000000;stroke-width:3;stroke-linecap:butt;stroke-linejoin:miter;stroke-miterlimit:4;stroke-dasharray:none;stroke-opacity:1"
       d="m 446.4567,210.47241 297.63778,0 0,210.47248 -297.63778,0 z"
       id="rect4614" />
  </g>
</svg>
