<?xml version="1.0" encoding="UTF-8" standalone="no"?>
<!-- Created with Inkscape (http://www.inkscape.org/) -->

<svg
   xmlns:dc="http://purl.org/dc/elements/1.1/"
   xmlns:cc="http://creativecommons.org/ns#"
   xmlns:rdf="http://www.w3.org/1999/02/22-rdf-syntax-ns#"
   xmlns:svg="http://www.w3.org/2000/svg"
   xmlns="http://www.w3.org/2000/svg"
   xmlns:sodipodi="http://sodipodi.sourceforge.net/DTD/sodipodi-0.dtd"
   xmlns:inkscape="http://www.inkscape.org/namespaces/inkscape"
   width="210mm"
   height="297mm"
   viewBox="0 0 744.09448819 1052.3622047"
   id="svg3423"
   version="1.1"
   inkscape:version="0.91 r13725"
   sodipodi:docname="lemmatwo.svg">
  <defs
     id="defs3425" />
  <sodipodi:namedview
     id="base"
     pagecolor="#ffffff"
     bordercolor="#666666"
     borderopacity="1.0"
     inkscape:pageopacity="0.0"
     inkscape:pageshadow="2"
     inkscape:zoom="0.52548447"
     inkscape:cx="372.04724"
     inkscape:cy="526.1811"
     inkscape:document-units="px"
     inkscape:current-layer="layer1"
     showgrid="false"
     inkscape:snap-bbox="true"
     inkscape:bbox-paths="true"
     inkscape:bbox-nodes="true"
     inkscape:snap-bbox-midpoints="true"
     inkscape:object-paths="true"
     inkscape:object-nodes="true"
     inkscape:snap-smooth-nodes="true"
     inkscape:snap-midpoints="true"
     inkscape:snap-intersection-paths="true"
     inkscape:snap-center="true"
     inkscape:snap-text-baseline="true"
     inkscape:snap-object-midpoints="true"
     inkscape:snap-page="true"
     inkscape:window-width="1366"
     inkscape:window-height="705"
     inkscape:window-x="-8"
     inkscape:window-y="-8"
     inkscape:window-maximized="1"
     inkscape:snap-bbox-edge-midpoints="true" />
  <metadata
     id="metadata3428">
    <rdf:RDF>
      <cc:Work
         rdf:about="">
        <dc:format>image/svg+xml</dc:format>
        <dc:type
           rdf:resource="http://purl.org/dc/dcmitype/StillImage" />
        <dc:title />
      </cc:Work>
    </rdf:RDF>
  </metadata>
  <g
     inkscape:label="Layer 1"
     inkscape:groupmode="layer"
     id="layer1">
    <circle
       style="opacity:1;fill:#ffffff;fill-opacity:1;stroke:#000000;stroke-width:9.99975204;stroke-linecap:butt;stroke-linejoin:miter;stroke-miterlimit:4;stroke-dasharray:none;stroke-opacity:1"
       id="path4149-7"
       cx="156.592"
       cy="-263.09055"
       r="48.864124"
       transform="scale(1,-1)" />
    <circle
       style="opacity:1;fill:#ffffff;fill-opacity:1;stroke:#000000;stroke-width:9.99975204;stroke-linecap:butt;stroke-linejoin:miter;stroke-miterlimit:4;stroke-dasharray:none;stroke-opacity:1"
       id="path4149-6"
       cx="587.50244"
       cy="-263.09055"
       r="48.864124"
       transform="scale(1,-1)" />
    <circle
       style="opacity:1;fill:#ffffff;fill-opacity:1;stroke:#000000;stroke-width:9.99975204;stroke-linecap:butt;stroke-linejoin:miter;stroke-miterlimit:4;stroke-dasharray:none;stroke-opacity:1"
       id="path4149-9"
       cx="372.04724"
       cy="-263.09055"
       r="48.864124"
       transform="scale(1,-1)" />
    <rect
       style="opacity:1;fill:#ffffff;fill-opacity:1;stroke:#000000;stroke-width:10;stroke-linecap:butt;stroke-linejoin:miter;stroke-miterlimit:4;stroke-dasharray:none;stroke-opacity:1"
       id="rect4147"
       width="744.09448"
       height="526.18109"
       x="0"
       y="263.09055" />
    <g
       transform="translate(1.2109375e-6,-3.6914064e-6)"
       style="font-style:normal;font-variant:normal;font-weight:normal;font-stretch:normal;font-size:180px;line-height:100%;font-family:'Times New Roman';-inkscape-font-specification:'Times New Roman, Normal';text-align:center;letter-spacing:0px;word-spacing:0px;writing-mode:lr-tb;text-anchor:middle;fill:#000000;fill-opacity:1;stroke:none;stroke-width:1px;stroke-linecap:butt;stroke-linejoin:miter;stroke-opacity:1"
       id="text4875">
      <path
         inkscape:connector-curvature="0"
         d="m 393.40466,468.43695 0,-3.25195 42.1875,0 0,3.25195 -4.48242,0 q -7.03125,0 -10.81055,5.88867 -1.8457,2.72461 -1.8457,12.65625 l 0,48.33985 q 0,17.92968 -3.60351,27.86132 -3.51563,9.84375 -13.97461,16.9629 -10.3711,7.03125 -28.30079,7.03125 -19.51171,0 -29.61914,-6.76758 -10.10742,-6.76758 -14.32617,-18.19336 -2.8125,-7.82227 -2.8125,-29.35547 l 0,-46.58203 q 0,-10.98633 -3.07617,-14.41406 -2.98828,-3.42774 -9.75586,-3.42774 l -4.48242,0 0,-3.25195 51.50391,0 0,3.25195 -4.57032,0 q -7.38281,0 -10.54687,4.6582 -2.19727,3.16407 -2.19727,13.1836 l 0,51.94336 q 0,6.94336 1.23047,15.9082 1.31836,8.96484 4.6582,13.97461 3.33985,5.00977 9.58008,8.26172 6.32813,3.25195 15.46875,3.25195 11.68946,0 20.91797,-5.09765 9.22852,-5.09766 12.56836,-13.00782 3.42773,-7.99804 3.42773,-26.98242 l 0,-48.25195 q 0,-11.16211 -2.46093,-13.97461 -3.42774,-3.86719 -10.19532,-3.86719 l -4.48242,0 z"
         id="path4880" />
    </g>
    <circle
       style="opacity:1;fill:none;fill-opacity:1;stroke:#000000;stroke-width:10;stroke-linecap:butt;stroke-linejoin:miter;stroke-miterlimit:4;stroke-dasharray:10, 10;stroke-opacity:1;stroke-dashoffset:0"
       id="path4149-7-7"
       cx="156.592"
       cy="-263.09055"
       r="48.864124"
       transform="scale(1,-1)" />
    <circle
       style="opacity:1;fill:none;fill-opacity:1;stroke:#000000;stroke-width:10;stroke-linecap:butt;stroke-linejoin:miter;stroke-miterlimit:4;stroke-dasharray:10, 10;stroke-opacity:1;stroke-dashoffset:0"
       id="path4149-7-0"
       cx="372.04724"
       cy="-263.09055"
       r="48.864124"
       transform="scale(1,-1)" />
    <circle
       style="opacity:1;fill:none;fill-opacity:1;stroke:#000000;stroke-width:10;stroke-linecap:butt;stroke-linejoin:miter;stroke-miterlimit:4;stroke-dasharray:10, 10;stroke-opacity:1;stroke-dashoffset:0"
       id="path4149-7-1"
       cx="587.50244"
       cy="-263.09055"
       r="48.864124"
       transform="scale(1,-1)" />
    <rect
       style="opacity:1;fill:#ffffff;fill-opacity:1;stroke:none;stroke-width:5;stroke-linecap:butt;stroke-linejoin:miter;stroke-miterlimit:4;stroke-dasharray:none;stroke-opacity:1"
       id="rect4314-4"
       width="20"
       height="35.520744"
       x="362.04724"
       y="208.58401" />
  </g>
</svg>
