<?xml version="1.0" encoding="UTF-8" standalone="no"?>
<!-- Created with Inkscape (http://www.inkscape.org/) -->

<svg
   xmlns:dc="http://purl.org/dc/elements/1.1/"
   xmlns:cc="http://creativecommons.org/ns#"
   xmlns:rdf="http://www.w3.org/1999/02/22-rdf-syntax-ns#"
   xmlns:svg="http://www.w3.org/2000/svg"
   xmlns="http://www.w3.org/2000/svg"
   xmlns:sodipodi="http://sodipodi.sourceforge.net/DTD/sodipodi-0.dtd"
   xmlns:inkscape="http://www.inkscape.org/namespaces/inkscape"
   width="210mm"
   height="297mm"
   viewBox="0 0 744.09448819 1052.3622047"
   id="svg2"
   version="1.1"
   inkscape:version="0.91 r13725"
   sodipodi:docname="proof.svg">
  <defs
     id="defs4" />
  <sodipodi:namedview
     id="base"
     pagecolor="#ffffff"
     bordercolor="#666666"
     borderopacity="1.0"
     inkscape:pageopacity="0.0"
     inkscape:pageshadow="2"
     inkscape:zoom="0.50933034"
     inkscape:cx="372.04724"
     inkscape:cy="526.1811"
     inkscape:document-units="px"
     inkscape:current-layer="layer1"
     showgrid="false"
     inkscape:snap-page="true"
     inkscape:snap-text-baseline="true"
     inkscape:snap-others="true"
     inkscape:snap-bbox="true"
     inkscape:bbox-paths="true"
     inkscape:bbox-nodes="true"
     inkscape:snap-bbox-edge-midpoints="true"
     inkscape:snap-bbox-midpoints="true"
     inkscape:object-paths="true"
     inkscape:object-nodes="true"
     inkscape:snap-midpoints="true"
     inkscape:snap-center="true"
     inkscape:snap-object-midpoints="true"
     inkscape:snap-smooth-nodes="true"
     inkscape:snap-intersection-paths="true"
     inkscape:window-width="1366"
     inkscape:window-height="705"
     inkscape:window-x="-8"
     inkscape:window-y="-8"
     inkscape:window-maximized="1"
     showguides="false"
     inkscape:snap-global="true" />
  <metadata
     id="metadata7">
    <rdf:RDF>
      <cc:Work
         rdf:about="">
        <dc:format>image/svg+xml</dc:format>
        <dc:type
           rdf:resource="http://purl.org/dc/dcmitype/StillImage" />
        <dc:title />
      </cc:Work>
    </rdf:RDF>
  </metadata>
  <g
     inkscape:label="Layer 1"
     inkscape:groupmode="layer"
     id="layer1">
    <path
       style="opacity:1;fill:#ffffff;fill-opacity:1;stroke:#000000;stroke-width:3;stroke-linecap:butt;stroke-linejoin:miter;stroke-miterlimit:4;stroke-dasharray:none;stroke-opacity:1"
       d="m 164.3014,263.09055 a 40.562813,40.562813 0 0 1 -40.56281,40.56281 40.562813,40.562813 0 0 1 -40.562816,-40.56281 40.562813,40.562813 0 0 1 40.562816,-40.56282 40.562813,40.562813 0 0 1 40.56281,40.56282 z"
       id="path4479-5-02-7" />
    <path
       style="opacity:1;fill:#ffffff;fill-opacity:1;stroke:#000000;stroke-width:3;stroke-linecap:butt;stroke-linejoin:miter;stroke-miterlimit:4;stroke-dasharray:none;stroke-opacity:1"
       d="m 329.2862,263.09055 a 40.562813,40.562813 0 0 1 -40.56281,40.56281 40.562813,40.562813 0 0 1 -40.56281,-40.56281 40.562813,40.562813 0 0 1 40.56281,-40.56282 40.562813,40.562813 0 0 1 40.56281,40.56282 z"
       id="path4479-5-02-0" />
    <path
       style="opacity:1;fill:#ffffff;fill-opacity:1;stroke:#000000;stroke-width:3;stroke-linecap:butt;stroke-linejoin:miter;stroke-miterlimit:4;stroke-dasharray:none;stroke-opacity:1"
       d="m 494.27097,263.09055 a 40.562813,40.562813 0 0 1 -40.56281,40.56281 40.562813,40.562813 0 0 1 -40.56281,-40.56281 40.562813,40.562813 0 0 1 40.56281,-40.56282 40.562813,40.562813 0 0 1 40.56281,40.56282 z"
       id="path4479-5-02-2" />
    <path
       style="opacity:1;fill:#ffffff;fill-opacity:1;stroke:#000000;stroke-width:3;stroke-linecap:butt;stroke-linejoin:miter;stroke-miterlimit:4;stroke-dasharray:none;stroke-opacity:1"
       d="m 659.25574,263.09055 a 40.562813,40.562813 0 0 1 -40.56281,40.56281 40.562813,40.562813 0 0 1 -40.56281,-40.56281 40.562813,40.562813 0 0 1 40.56281,-40.56282 40.562813,40.562813 0 0 1 40.56281,40.56282 z"
       id="path4479-5-02-8" />
    <path
       style="fill:none;fill-rule:evenodd;stroke:#000000;stroke-width:3;stroke-linecap:butt;stroke-linejoin:miter;stroke-miterlimit:4;stroke-dasharray:none;stroke-opacity:1"
       d="m 0,263.09055 82.492397,0 82.492393,0 82.4924,0 82.49239,0 82.4924,0 82.49239,0 82.49239,0 82.4924,0 82.4924,0"
       id="path4379"
       inkscape:connector-curvature="0"
       sodipodi:nodetypes="cccccccccc" />
    <path
       style="fill:none;fill-rule:evenodd;stroke:#000000;stroke-width:3;stroke-linecap:butt;stroke-linejoin:miter;stroke-miterlimit:4;stroke-dasharray:none;stroke-opacity:1"
       d="m 0,263.09055 0,526.1811"
       id="path4383"
       inkscape:connector-curvature="0"
       sodipodi:nodetypes="cc" />
    <path
       style="fill:none;fill-rule:evenodd;stroke:#000000;stroke-width:3;stroke-linecap:butt;stroke-linejoin:miter;stroke-miterlimit:4;stroke-dasharray:none;stroke-opacity:1"
       d="m 744.09449,789.27165 0,-526.1811"
       id="path4385"
       inkscape:connector-curvature="0"
       sodipodi:nodetypes="cc" />
    <path
       style="fill:none;fill-rule:evenodd;stroke:#000000;stroke-width:3;stroke-linecap:butt;stroke-linejoin:miter;stroke-miterlimit:4;stroke-dasharray:none;stroke-opacity:1"
       d="m 1.662942,789.27165 82.492392,0 82.492396,0 82.49239,0 82.49239,0 82.4924,0 82.49239,0 82.4924,0 82.49239,0 82.4924,0"
       id="path4379-3"
       inkscape:connector-curvature="0"
       sodipodi:nodetypes="cccccccccc" />
    <path
       style="opacity:1;fill:#ffffff;fill-opacity:1;stroke:#000000;stroke-width:3;stroke-linecap:butt;stroke-linejoin:miter;stroke-miterlimit:4;stroke-dasharray:none;stroke-opacity:1"
       d="m 165.96436,789.27167 a 40.562813,40.562813 0 0 1 -40.56282,40.56281 40.562813,40.562813 0 0 1 -40.56281,-40.56281 40.562813,40.562813 0 0 1 40.56281,-40.56282 40.562813,40.562813 0 0 1 40.56282,40.56282 z"
       id="path4479-5" />
    <path
       style="opacity:1;fill:#ffffff;fill-opacity:1;stroke:#000000;stroke-width:3;stroke-linecap:butt;stroke-linejoin:miter;stroke-miterlimit:4;stroke-dasharray:none;stroke-opacity:1"
       d="m 330.94913,789.27167 a 40.562813,40.562813 0 0 1 -40.56281,40.56281 40.562813,40.562813 0 0 1 -40.56281,-40.56281 40.562813,40.562813 0 0 1 40.56281,-40.56282 40.562813,40.562813 0 0 1 40.56281,40.56282 z"
       id="path4479-5-0" />
    <path
       style="opacity:1;fill:#ffffff;fill-opacity:1;stroke:#000000;stroke-width:3;stroke-linecap:butt;stroke-linejoin:miter;stroke-miterlimit:4;stroke-dasharray:none;stroke-opacity:1"
       d="m 495.93391,789.27167 a 40.562813,40.562813 0 0 1 -40.56282,40.56281 40.562813,40.562813 0 0 1 -40.56281,-40.56281 40.562813,40.562813 0 0 1 40.56281,-40.56282 40.562813,40.562813 0 0 1 40.56282,40.56282 z"
       id="path4479-5-0-0" />
    <path
       style="opacity:1;fill:#ffffff;fill-opacity:1;stroke:#000000;stroke-width:3;stroke-linecap:butt;stroke-linejoin:miter;stroke-miterlimit:4;stroke-dasharray:none;stroke-opacity:1"
       d="m 660.91871,789.27167 a 40.562813,40.562813 0 0 1 -40.56281,40.56281 40.562813,40.562813 0 0 1 -40.56282,-40.56281 40.562813,40.562813 0 0 1 40.56282,-40.56282 40.562813,40.562813 0 0 1 40.56281,40.56282 z"
       id="path4479-5-0-8" />
    <path
       style="opacity:1;fill:#ffffff;fill-opacity:1;stroke:#000000;stroke-width:3;stroke-linecap:butt;stroke-linejoin:miter;stroke-miterlimit:4;stroke-dasharray:none;stroke-opacity:1"
       d="M 246.79382,261.59055 A 40.562813,40.562813 0 0 1 206.231,302.15336 40.562813,40.562813 0 0 1 165.66819,261.59055 40.562813,40.562813 0 0 1 206.231,221.02773 40.562813,40.562813 0 0 1 246.79382,261.59055 Z"
       id="path4479-5-02" />
    <path
       style="opacity:1;fill:#ffffff;fill-opacity:1;stroke:#000000;stroke-width:3;stroke-linecap:butt;stroke-linejoin:miter;stroke-miterlimit:4;stroke-dasharray:none;stroke-opacity:1"
       d="m 245.69235,263.47073 a 40.650833,19.983046 0 0 1 -40.65083,19.98305 40.650833,19.983046 0 0 1 -40.65083,-19.98305 40.650833,19.983046 0 0 1 40.65083,-19.98304 40.650833,19.983046 0 0 1 40.65083,19.98304 z"
       id="path4479-5-02-5" />
    <path
       style="opacity:1;fill:#ffffff;fill-opacity:1;stroke:#000000;stroke-width:3;stroke-linecap:butt;stroke-linejoin:miter;stroke-miterlimit:4;stroke-dasharray:none;stroke-opacity:1"
       d="m 576.76337,261.59055 a 40.562813,40.562813 0 0 1 -40.56281,40.56281 40.562813,40.562813 0 0 1 -40.56281,-40.56281 40.562813,40.562813 0 0 1 40.56281,-40.56282 40.562813,40.562813 0 0 1 40.56281,40.56282 z"
       id="path4479-5-0-0-0" />
    <path
       style="opacity:1;fill:#ffffff;fill-opacity:1;stroke:#000000;stroke-width:3;stroke-linecap:butt;stroke-linejoin:miter;stroke-miterlimit:4;stroke-dasharray:none;stroke-opacity:1"
       d="m 576.37801,263.47073 a 40.650833,19.983046 0 0 1 -40.65084,19.98305 40.650833,19.983046 0 0 1 -40.65083,-19.98305 40.650833,19.983046 0 0 1 40.65083,-19.98304 40.650833,19.983046 0 0 1 40.65084,19.98304 z"
       id="path4479-5-0-0-0-4" />
    <path
       style="opacity:1;fill:#ffffff;fill-opacity:1;stroke:#000000;stroke-width:3;stroke-linecap:butt;stroke-linejoin:miter;stroke-miterlimit:4;stroke-dasharray:none;stroke-opacity:1"
       d="m 412.61005,263.09055 a 40.562813,40.562813 0 0 1 -40.56281,40.56281 40.562813,40.562813 0 0 1 -40.56281,-40.56281 40.562813,40.562813 0 0 1 40.56281,-40.56282 40.562813,40.562813 0 0 1 40.56281,40.56282 z"
       id="path4479-5-0-0-1" />
    <path
       style="opacity:1;fill:#ffffff;fill-opacity:1;stroke:#000000;stroke-width:3;stroke-linecap:butt;stroke-linejoin:miter;stroke-miterlimit:4;stroke-dasharray:none;stroke-opacity:1"
       d="m 411.86842,264.20969 a 40.650833,19.983046 0 0 1 -40.65083,19.98304 40.650833,19.983046 0 0 1 -40.65083,-19.98304 40.650833,19.983046 0 0 1 40.65083,-19.98305 40.650833,19.983046 0 0 1 40.65083,19.98305 z"
       id="path4479-5-0-0-1-1" />
    <path
       style="opacity:1;fill:#ffffff;fill-opacity:1;stroke:#000000;stroke-width:3;stroke-linecap:butt;stroke-linejoin:miter;stroke-miterlimit:4;stroke-dasharray:none;stroke-opacity:1"
       d="m 0,263.09055 744.09448,0 0,526.18109 -744.09448,0 z"
       id="rect4481" />
    <path
       style="opacity:1;fill:#ffffff;fill-opacity:1;stroke:#000000;stroke-width:3;stroke-linecap:butt;stroke-linejoin:miter;stroke-miterlimit:4;stroke-dasharray:none;stroke-opacity:1"
       d="m 40.866375,394.25601 662.361755,0 0,293.10892 -662.361755,0 z"
       id="rect4685" />
    <path
       style="opacity:1;fill:#ffffff;fill-opacity:1;stroke:#ffffff;stroke-width:2.42400336;stroke-linecap:butt;stroke-linejoin:miter;stroke-miterlimit:4;stroke-dasharray:none;stroke-opacity:1"
       d="m 365.57928,216.11693 12.93593,0 0,33.75466 -12.93593,0 z"
       id="rect4273" />
    <path
       style="opacity:1;fill:#ffffff;fill-opacity:1;stroke:#000000;stroke-width:3;stroke-linecap:butt;stroke-linejoin:miter;stroke-miterlimit:4;stroke-dasharray:none;stroke-opacity:1"
       d="M 84.83873,789.27165 82.492397,263.09055"
       id="path4437"
       inkscape:connector-curvature="0" />
    <path
       style="opacity:1;fill:#ffffff;fill-opacity:1;stroke:#000000;stroke-width:3;stroke-linecap:butt;stroke-linejoin:miter;stroke-miterlimit:4;stroke-dasharray:none;stroke-opacity:1"
       d="m 165.96436,789.27165 -2.34634,-526.1811"
       id="path4437-4"
       inkscape:connector-curvature="0" />
    <path
       style="opacity:1;fill:#ffffff;fill-opacity:1;stroke:#000000;stroke-width:3;stroke-linecap:butt;stroke-linejoin:miter;stroke-miterlimit:4;stroke-dasharray:none;stroke-opacity:1"
       d="m 249.82351,789.27164 -2.34633,-526.1811"
       id="path4437-3"
       inkscape:connector-curvature="0" />
    <path
       style="opacity:1;fill:#ffffff;fill-opacity:1;stroke:#000000;stroke-width:3;stroke-linecap:butt;stroke-linejoin:miter;stroke-miterlimit:4;stroke-dasharray:none;stroke-opacity:1"
       d="M 330.94913,789.27164 328.6028,263.09054"
       id="path4437-6"
       inkscape:connector-curvature="0" />
    <path
       style="opacity:1;fill:#ffffff;fill-opacity:1;stroke:#000000;stroke-width:3;stroke-linecap:butt;stroke-linejoin:miter;stroke-miterlimit:4;stroke-dasharray:none;stroke-opacity:1"
       d="m 414.80828,789.27164 -2.34633,-526.1811"
       id="path4437-0"
       inkscape:connector-curvature="0" />
    <path
       style="opacity:1;fill:#ffffff;fill-opacity:1;stroke:#000000;stroke-width:3;stroke-linecap:butt;stroke-linejoin:miter;stroke-miterlimit:4;stroke-dasharray:none;stroke-opacity:1"
       d="m 495.93391,789.27164 -2.34633,-526.1811"
       id="path4437-2"
       inkscape:connector-curvature="0" />
    <path
       style="opacity:1;fill:#ffffff;fill-opacity:1;stroke:#000000;stroke-width:3;stroke-linecap:butt;stroke-linejoin:miter;stroke-miterlimit:4;stroke-dasharray:none;stroke-opacity:1"
       d="M 579.08192,789.27167 576.73559,263.09055"
       id="path4437-49"
       inkscape:connector-curvature="0" />
    <path
       style="opacity:1;fill:#ffffff;fill-opacity:1;stroke:#000000;stroke-width:3;stroke-linecap:butt;stroke-linejoin:miter;stroke-miterlimit:4;stroke-dasharray:none;stroke-opacity:1"
       d="m 660.91871,789.27164 -2.34634,-526.1811"
       id="path4437-36"
       inkscape:connector-curvature="0" />
    <path
       style="opacity:1;fill:#ffffff;fill-opacity:1;stroke:#000000;stroke-width:3;stroke-linecap:butt;stroke-linejoin:miter;stroke-miterlimit:4;stroke-dasharray:none;stroke-opacity:1"
       d="M 0,263.09055 0,394.63582 0,526.1811 0,657.72637 0,789.27164"
       id="path4668"
       inkscape:connector-curvature="0"
       sodipodi:nodetypes="ccccc" />
    <g
       style="font-style:normal;font-variant:normal;font-weight:normal;font-stretch:normal;font-size:80px;line-height:100%;font-family:'Times New Roman';-inkscape-font-specification:'Times New Roman, Normal';text-align:start;letter-spacing:0px;word-spacing:0px;writing-mode:lr-tb;text-anchor:start;fill:#000000;fill-opacity:1;stroke:none;stroke-width:1px;stroke-linecap:butt;stroke-linejoin:miter;stroke-opacity:1"
       id="text4689">
      <path
         d="m 398.3949,552.66547 -14.14063,0 -17.92969,-24.76563 q -1.99218,0.0781 -3.24218,0.0781 -0.50782,0 -1.09375,0 -0.58594,-0.0391 -1.21094,-0.0781 l 0,15.39063 q 0,5 1.09375,6.21093 1.48437,1.71875 4.45312,1.71875 l 2.07032,0 0,1.44532 -22.69532,0 0,-1.44532 1.99219,0 q 3.35938,0 4.80469,-2.1875 0.82031,-1.21093 0.82031,-5.74218 l 0,-34.21875 q 0,-5 -1.09375,-6.21094 -1.52344,-1.71875 -4.53125,-1.71875 l -1.99219,0 0,-1.44531 19.29688,0 q 8.4375,0 12.42187,1.25 4.02344,1.21093 6.79688,4.53125 2.8125,3.28125 2.8125,7.85156 0,4.88281 -3.20313,8.47656 -3.16406,3.59375 -9.84375,5.07813 l 10.9375,15.19531 q 3.75,5.23437 6.44532,6.95312 2.69531,1.71875 7.03125,2.1875 l 0,1.44532 z M 360.77771,525.4389 q 0.74219,0 1.28906,0.0391 0.54688,0 0.89844,0 7.57812,0 11.40625,-3.28125 3.86719,-3.28125 3.86719,-8.35938 0,-4.96094 -3.125,-8.04687 -3.08594,-3.125 -8.20313,-3.125 -2.26562,0 -6.13281,0.74218 l 0,22.03125 z"
         style=""
         id="path4238" />
    </g>
    <g
       style="font-style:normal;font-variant:normal;font-weight:normal;font-stretch:normal;font-size:30px;line-height:100%;font-family:'Times New Roman';-inkscape-font-specification:'Times New Roman, Normal';text-align:start;letter-spacing:0px;word-spacing:0px;writing-mode:lr-tb;text-anchor:start;fill:#000000;fill-opacity:1;stroke:none;stroke-width:1px;stroke-linecap:butt;stroke-linejoin:miter;stroke-opacity:1"
       id="text4216-0">
      <path
         d="m 80.227112,186.85011 4.833984,-2.3584 0.483399,0 0,16.77247 q 0,1.66992 0.131836,2.08007 0.146484,0.41016 0.585937,0.62989 0.439453,0.21972 1.787109,0.24902 l 0,0.54199 -7.470703,0 0,-0.54199 q 1.40625,-0.0293 1.816407,-0.23438 0.410156,-0.21972 0.571289,-0.57128 0.161132,-0.36622 0.161132,-2.15332 l 0,-10.72266 q 0,-2.16797 -0.146484,-2.7832 -0.102539,-0.46875 -0.380859,-0.68848 -0.263672,-0.21973 -0.644532,-0.21973 -0.541992,0 -1.508789,0.4541 l -0.219726,-0.4541 z"
         style=""
         id="path4241" />
      <path
         d="m 165.46637,200.94191 -1.3916,3.82324 -11.71875,0 0,-0.54199 q 5.1709,-4.7168 7.28027,-7.70508 2.10938,-2.98828 2.10938,-5.46387 0,-1.88964 -1.15723,-3.10546 -1.15723,-1.21582 -2.76855,-1.21582 -1.46485,0 -2.63672,0.86425 -1.15723,0.84961 -1.71387,2.50489 l -0.54199,0 q 0.36621,-2.70996 1.875,-4.16016 1.52343,-1.4502 3.79394,-1.4502 2.41699,0 4.02832,1.55274 1.62598,1.55273 1.62598,3.66211 0,1.50879 -0.70313,3.01758 -1.08398,2.37304 -3.51562,5.02441 -3.64746,3.98438 -4.55566,4.80469 l 5.18554,0 q 1.58203,0 2.21192,-0.11719 0.64453,-0.11719 1.15722,-0.46875 0.5127,-0.36621 0.89356,-1.02539 l 0.54199,0 z"
         style=""
         id="path4243" />
      <path
         d="m 235.73492,188.68117 q 0.84961,-2.00684 2.13868,-3.09082 1.30371,-1.09864 3.2373,-1.09864 2.3877,0 3.66211,1.55274 0.9668,1.15723 0.9668,2.47558 0,2.16797 -2.72461,4.48243 1.83105,0.71777 2.76855,2.05078 0.9375,1.33301 0.9375,3.13476 0,2.57813 -1.64062,4.46778 -2.13867,2.46093 -6.19629,2.46093 -2.00684,0 -2.73926,-0.49804 -0.71777,-0.49805 -0.71777,-1.06934 0,-0.4248 0.33691,-0.74707 0.35156,-0.32226 0.83496,-0.32226 0.36621,0 0.74707,0.11718 0.24903,0.0733 1.12793,0.542 0.87891,0.4541 1.21582,0.54199 0.54199,0.16113 1.15723,0.16113 1.49414,0 2.59277,-1.15723 1.11328,-1.15722 1.11328,-2.73925 0,-1.15723 -0.51269,-2.25586 -0.38086,-0.82032 -0.83496,-1.24512 -0.62989,-0.58594 -1.72852,-1.05469 -1.09863,-0.4834 -2.24121,-0.4834 l -0.46875,0 0,-0.43945 q 1.15723,-0.14648 2.31445,-0.83496 1.17188,-0.68848 1.69922,-1.65527 0.52735,-0.9668 0.52735,-2.12403 0,-1.50879 -0.95215,-2.43164 -0.9375,-0.9375 -2.34375,-0.9375 -2.27051,0 -3.79395,2.43164 l -0.4834,-0.23437 z"
         style=""
         id="path4245" />
      <path
         d="m 365.46149,201.92336 q 0.68847,0 1.15722,0.48339 0.46875,0.46875 0.46875,1.14258 0,0.67383 -0.4834,1.15723 -0.46875,0.46875 -1.14257,0.46875 -0.67383,0 -1.15723,-0.46875 -0.46875,-0.4834 -0.46875,-1.15723 0,-0.68847 0.46875,-1.15722 0.4834,-0.46875 1.15723,-0.46875 z"
         style=""
         id="path4247" />
      <path
         d="m 372.96149,201.92336 q 0.68847,0 1.15722,0.48339 0.46875,0.46875 0.46875,1.14258 0,0.67383 -0.4834,1.15723 -0.46875,0.46875 -1.14257,0.46875 -0.67383,0 -1.15723,-0.46875 -0.46875,-0.4834 -0.46875,-1.15723 0,-0.68847 0.46875,-1.15722 0.4834,-0.46875 1.15723,-0.46875 z"
         style=""
         id="path4249" />
      <path
         d="m 380.46149,201.92336 q 0.68847,0 1.15722,0.48339 0.46875,0.46875 0.46875,1.14258 0,0.67383 -0.4834,1.15723 -0.46875,0.46875 -1.14257,0.46875 -0.67383,0 -1.15723,-0.46875 -0.46875,-0.4834 -0.46875,-1.15723 0,-0.68847 0.46875,-1.15722 0.4834,-0.46875 1.15723,-0.46875 z"
         style=""
         id="path4251" />
      <path
         d="m 453.52789,210.63918 0,0.54199 q -2.21191,-1.11328 -3.6914,-2.60742 -2.10938,-2.12403 -3.25196,-5.00977 -1.14257,-2.88574 -1.14257,-5.99121 0,-4.54102 2.24121,-8.27637 2.24121,-3.75 5.84472,-5.36133 l 0,0.61524 q -1.80175,0.99609 -2.95898,2.72461 -1.15723,1.72851 -1.72852,4.37988 -0.57129,2.65137 -0.57129,5.53711 0,3.13477 0.4834,5.69824 0.38086,2.02149 0.92285,3.23731 0.542,1.23047 1.4502,2.3584 0.92285,1.12792 2.40234,2.15332 z"
         style=""
         id="path4253" />
      <path
         d="m 467.9859,200.94191 -1.3916,3.82324 -11.71875,0 0,-0.54199 q 5.1709,-4.7168 7.28027,-7.70508 2.10938,-2.98828 2.10938,-5.46387 0,-1.88964 -1.15723,-3.10546 -1.15723,-1.21582 -2.76855,-1.21582 -1.46485,0 -2.63672,0.86425 -1.15723,0.84961 -1.71387,2.50489 l -0.54199,0 q 0.36621,-2.70996 1.875,-4.16016 1.52344,-1.4502 3.79394,-1.4502 2.417,0 4.02832,1.55274 1.62598,1.55273 1.62598,3.66211 0,1.50879 -0.70312,3.01758 -1.08399,2.37304 -3.51563,5.02441 -3.64746,3.98438 -4.55566,4.80469 l 5.18554,0 q 1.58203,0 2.21192,-0.11719 0.64453,-0.11719 1.15722,-0.46875 0.5127,-0.36621 0.89356,-1.02539 l 0.54199,0 z"
         style=""
         id="path4255" />
      <path
         d="m 474.07965,193.79347 q 2.3584,-2.84179 4.49707,-2.84179 1.09863,0 1.88965,0.55664 0.79102,0.54199 1.25977,1.80175 0.32226,0.87891 0.32226,2.69532 l 0,5.72754 q 0,1.27441 0.20508,1.72851 0.16113,0.36621 0.51269,0.57129 0.36622,0.20508 1.33301,0.20508 l 0,0.52734 -6.63574,0 0,-0.52734 0.27832,0 q 0.9375,0 1.30371,-0.27832 0.38086,-0.29297 0.52734,-0.84961 0.0586,-0.21973 0.0586,-1.37695 l 0,-5.49317 q 0,-1.83105 -0.4834,-2.65137 -0.46875,-0.83496 -1.59668,-0.83496 -1.74316,0 -3.47168,1.9043 l 0,7.0752 q 0,1.3623 0.16113,1.68457 0.20508,0.4248 0.55664,0.62988 0.36622,0.19043 1.46485,0.19043 l 0,0.52734 -6.63574,0 0,-0.52734 0.29296,0 q 1.0254,0 1.37696,-0.5127 0.36621,-0.52734 0.36621,-1.99218 l 0,-4.98047 q 0,-2.417 -0.11719,-2.94434 -0.10254,-0.52734 -0.33691,-0.71777 -0.21973,-0.19043 -0.60059,-0.19043 -0.41016,0 -0.98144,0.21972 l -0.21973,-0.52734 4.04297,-1.64062 0.62988,0 0,2.84179 z"
         style=""
         id="path4257" />
      <path
         d="m 485.44684,196.92824 7.57324,0 0,2.21191 -7.57324,0 0,-2.21191 z"
         style=""
         id="path4259" />
      <path
         d="m 508.00543,200.94191 -1.3916,3.82324 -11.71875,0 0,-0.54199 q 5.1709,-4.7168 7.28027,-7.70508 2.10938,-2.98828 2.10938,-5.46387 0,-1.88964 -1.15723,-3.10546 -1.15722,-1.21582 -2.76855,-1.21582 -1.46485,0 -2.63672,0.86425 -1.15723,0.84961 -1.71387,2.50489 l -0.54199,0 q 0.36621,-2.70996 1.875,-4.16016 1.52344,-1.4502 3.79394,-1.4502 2.417,0 4.02833,1.55274 1.62597,1.55273 1.62597,3.66211 0,1.50879 -0.70312,3.01758 -1.08399,2.37304 -3.51563,5.02441 -3.64746,3.98438 -4.55566,4.80469 l 5.18554,0 q 1.58204,0 2.21192,-0.11719 0.64453,-0.11719 1.15723,-0.46875 0.51269,-0.36621 0.89355,-1.02539 l 0.54199,0 z"
         style=""
         id="path4261" />
      <path
         d="m 509.92438,184.55031 0,-0.61524 q 2.22656,1.09864 3.70605,2.59278 2.09473,2.13867 3.23731,5.02441 1.14257,2.8711 1.14257,5.99121 0,4.54102 -2.24121,8.27637 -2.22656,3.75 -5.84472,5.36133 l 0,-0.54199 q 1.80176,-1.01075 2.95898,-2.73926 1.17188,-1.71387 1.72852,-4.36524 0.57129,-2.66601 0.57129,-5.55175 0,-3.12012 -0.4834,-5.69825 -0.36621,-2.02148 -0.92285,-3.2373 -0.542,-1.21582 -1.4502,-2.34375 -0.9082,-1.12793 -2.40234,-2.15332 z"
         style=""
         id="path4263" />
      <path
         d="m 551.08649,210.63918 0,0.54199 q -2.21192,-1.11328 -3.69141,-2.60742 -2.10937,-2.12403 -3.25195,-5.00977 -1.14258,-2.88574 -1.14258,-5.99121 0,-4.54102 2.24121,-8.27637 2.24121,-3.75 5.84473,-5.36133 l 0,0.61524 q -1.80176,0.99609 -2.95899,2.72461 -1.15722,1.72851 -1.72851,4.37988 -0.57129,2.65137 -0.57129,5.53711 0,3.13477 0.4834,5.69824 0.38086,2.02149 0.92285,3.23731 0.54199,1.23047 1.45019,2.3584 0.92285,1.12792 2.40235,2.15332 z"
         style=""
         id="path4265" />
      <path
         d="m 565.54449,200.94191 -1.3916,3.82324 -11.71875,0 0,-0.54199 q 5.1709,-4.7168 7.28028,-7.70508 2.10937,-2.98828 2.10937,-5.46387 0,-1.88964 -1.15723,-3.10546 -1.15722,-1.21582 -2.76855,-1.21582 -1.46484,0 -2.63672,0.86425 -1.15723,0.84961 -1.71387,2.50489 l -0.54199,0 q 0.36621,-2.70996 1.875,-4.16016 1.52344,-1.4502 3.79395,-1.4502 2.41699,0 4.02832,1.55274 1.62597,1.55273 1.62597,3.66211 0,1.50879 -0.70312,3.01758 -1.08399,2.37304 -3.51563,5.02441 -3.64746,3.98438 -4.55566,4.80469 l 5.18555,0 q 1.58203,0 2.21191,-0.11719 0.64453,-0.11719 1.15723,-0.46875 0.51269,-0.36621 0.89355,-1.02539 l 0.54199,0 z"
         style=""
         id="path4267" />
      <path
         d="m 571.63824,193.79347 q 2.3584,-2.84179 4.49707,-2.84179 1.09864,0 1.88965,0.55664 0.79102,0.54199 1.25977,1.80175 0.32226,0.87891 0.32226,2.69532 l 0,5.72754 q 0,1.27441 0.20508,1.72851 0.16114,0.36621 0.5127,0.57129 0.36621,0.20508 1.33301,0.20508 l 0,0.52734 -6.63575,0 0,-0.52734 0.27832,0 q 0.9375,0 1.30371,-0.27832 0.38086,-0.29297 0.52735,-0.84961 0.0586,-0.21973 0.0586,-1.37695 l 0,-5.49317 q 0,-1.83105 -0.4834,-2.65137 -0.46875,-0.83496 -1.59668,-0.83496 -1.74316,0 -3.47168,1.9043 l 0,7.0752 q 0,1.3623 0.16114,1.68457 0.20508,0.4248 0.55664,0.62988 0.36621,0.19043 1.46484,0.19043 l 0,0.52734 -6.63574,0 0,-0.52734 0.29297,0 q 1.02539,0 1.37695,-0.5127 0.36621,-0.52734 0.36621,-1.99218 l 0,-4.98047 q 0,-2.417 -0.11719,-2.94434 -0.10253,-0.52734 -0.33691,-0.71777 -0.21973,-0.19043 -0.60059,-0.19043 -0.41015,0 -0.98144,0.21972 l -0.21973,-0.52734 4.04297,-1.64062 0.62988,0 0,2.84179 z"
         style=""
         id="path4269" />
      <path
         d="m 583.00543,196.92824 7.57324,0 0,2.21191 -7.57324,0 0,-2.21191 z"
         style=""
         id="path4271" />
      <path
         d="m 595.32477,186.85011 4.83398,-2.3584 0.4834,0 0,16.77247 q 0,1.66992 0.13184,2.08007 0.14648,0.41016 0.58593,0.62989 0.43946,0.21972 1.78711,0.24902 l 0,0.54199 -7.4707,0 0,-0.54199 q 1.40625,-0.0293 1.81641,-0.23438 0.41015,-0.21972 0.57129,-0.57128 0.16113,-0.36622 0.16113,-2.15332 l 0,-10.72266 q 0,-2.16797 -0.14649,-2.7832 -0.10253,-0.46875 -0.38086,-0.68848 -0.26367,-0.21973 -0.64453,-0.21973 -0.54199,0 -1.50879,0.4541 l -0.21972,-0.4541 z"
         style=""
         id="path4273" />
      <path
         d="m 607.48297,184.55031 0,-0.61524 q 2.22656,1.09864 3.70606,2.59278 2.09472,2.13867 3.2373,5.02441 1.14258,2.8711 1.14258,5.99121 0,4.54102 -2.24121,8.27637 -2.22656,3.75 -5.84473,5.36133 l 0,-0.54199 q 1.80176,-1.01075 2.95899,-2.73926 1.17187,-1.71387 1.72851,-4.36524 0.57129,-2.66601 0.57129,-5.55175 0,-3.12012 -0.4834,-5.69825 -0.36621,-2.02148 -0.92285,-3.2373 -0.54199,-1.21582 -1.4502,-2.34375 -0.9082,-1.12793 -2.40234,-2.15332 z"
         style=""
         id="path4275" />
      <path
         d="m 641.14508,210.63918 0,0.54199 q -2.21191,-1.11328 -3.69141,-2.60742 -2.10937,-2.12403 -3.25195,-5.00977 -1.14258,-2.88574 -1.14258,-5.99121 0,-4.54102 2.24121,-8.27637 2.24121,-3.75 5.84473,-5.36133 l 0,0.61524 q -1.80176,0.99609 -2.95898,2.72461 -1.15723,1.72851 -1.72852,4.37988 -0.57129,2.65137 -0.57129,5.53711 0,3.13477 0.4834,5.69824 0.38086,2.02149 0.92285,3.23731 0.54199,1.23047 1.4502,2.3584 0.92285,1.12792 2.40234,2.15332 z"
         style=""
         id="path4277" />
      <path
         d="m 655.60309,200.94191 -1.3916,3.82324 -11.71875,0 0,-0.54199 q 5.1709,-4.7168 7.28027,-7.70508 2.10938,-2.98828 2.10938,-5.46387 0,-1.88964 -1.15723,-3.10546 -1.15723,-1.21582 -2.76856,-1.21582 -1.46484,0 -2.63671,0.86425 -1.15723,0.84961 -1.71387,2.50489 l -0.54199,0 q 0.36621,-2.70996 1.875,-4.16016 1.52343,-1.4502 3.79394,-1.4502 2.41699,0 4.02832,1.55274 1.62598,1.55273 1.62598,3.66211 0,1.50879 -0.70313,3.01758 -1.08398,2.37304 -3.51562,5.02441 -3.64746,3.98438 -4.55567,4.80469 l 5.18555,0 q 1.58203,0 2.21191,-0.11719 0.64454,-0.11719 1.15723,-0.46875 0.5127,-0.36621 0.89356,-1.02539 l 0.54199,0 z"
         style=""
         id="path4279" />
      <path
         d="m 661.69684,193.79347 q 2.3584,-2.84179 4.49707,-2.84179 1.09863,0 1.88965,0.55664 0.79101,0.54199 1.25976,1.80175 0.32227,0.87891 0.32227,2.69532 l 0,5.72754 q 0,1.27441 0.20508,1.72851 0.16113,0.36621 0.51269,0.57129 0.36621,0.20508 1.33301,0.20508 l 0,0.52734 -6.63574,0 0,-0.52734 0.27832,0 q 0.9375,0 1.30371,-0.27832 0.38086,-0.29297 0.52734,-0.84961 0.0586,-0.21973 0.0586,-1.37695 l 0,-5.49317 q 0,-1.83105 -0.4834,-2.65137 -0.46875,-0.83496 -1.59668,-0.83496 -1.74317,0 -3.47168,1.9043 l 0,7.0752 q 0,1.3623 0.16113,1.68457 0.20508,0.4248 0.55664,0.62988 0.36621,0.19043 1.46485,0.19043 l 0,0.52734 -6.63575,0 0,-0.52734 0.29297,0 q 1.02539,0 1.37696,-0.5127 0.36621,-0.52734 0.36621,-1.99218 l 0,-4.98047 q 0,-2.417 -0.11719,-2.94434 -0.10254,-0.52734 -0.33692,-0.71777 -0.21972,-0.19043 -0.60058,-0.19043 -0.41016,0 -0.98145,0.21972 l -0.21972,-0.52734 4.04297,-1.64062 0.62988,0 0,2.84179 z"
         style=""
         id="path4281" />
      <path
         d="m 672.52203,184.55031 0,-0.61524 q 2.22657,1.09864 3.70606,2.59278 2.09472,2.13867 3.2373,5.02441 1.14258,2.8711 1.14258,5.99121 0,4.54102 -2.24121,8.27637 -2.22656,3.75 -5.84473,5.36133 l 0,-0.54199 q 1.80176,-1.01075 2.95899,-2.73926 1.17187,-1.71387 1.72851,-4.36524 0.57129,-2.66601 0.57129,-5.55175 0,-3.12012 -0.4834,-5.69825 -0.36621,-2.02148 -0.92285,-3.2373 -0.54199,-1.21582 -1.45019,-2.34375 -0.90821,-1.12793 -2.40235,-2.15332 z"
         style=""
         id="path4283" />
    </g>
    <g
       style="font-style:normal;font-variant:normal;font-weight:normal;font-stretch:normal;font-size:20px;line-height:100%;font-family:'Times New Roman';-inkscape-font-specification:'Times New Roman, Normal';text-align:start;letter-spacing:0px;word-spacing:0px;writing-mode:lr-tb;text-anchor:start;fill:#000000;fill-opacity:1;stroke:none;stroke-width:1px;stroke-linecap:butt;stroke-linejoin:miter;stroke-opacity:1"
       id="text4216-5-69">
      <path
         d="m 94.658623,202.25891 0,2.93945 2.089843,0 0,0.6836 -2.089843,0 0,5.80078 q 0,0.86914 0.24414,1.17187 0.253907,0.30274 0.644532,0.30274 0.322265,0 0.625,-0.19531 0.302734,-0.20508 0.46875,-0.59571 l 0.380859,0 q -0.341797,0.95703 -0.966797,1.44532 -0.625,0.47851 -1.289062,0.47851 -0.449219,0 -0.878907,-0.24414 -0.429687,-0.25391 -0.634765,-0.71289 -0.205078,-0.46875 -0.205078,-1.43555 l 0,-6.01562 -1.416016,0 0,-0.32227 q 0.537109,-0.21484 1.09375,-0.72265 0.566406,-0.51758 1.005859,-1.22071 0.22461,-0.37109 0.625,-1.35742 l 0.302735,0 z"
         style=""
         id="path4286" />
      <path
         d="m 170.2055,202.25891 0,2.93945 2.08984,0 0,0.6836 -2.08984,0 0,5.80078 q 0,0.86914 0.24414,1.17187 0.2539,0.30274 0.64453,0.30274 0.32227,0 0.625,-0.19531 0.30273,-0.20508 0.46875,-0.59571 l 0.38086,0 q -0.3418,0.95703 -0.9668,1.44532 -0.625,0.47851 -1.28906,0.47851 -0.44922,0 -0.87891,-0.24414 -0.42968,-0.25391 -0.63476,-0.71289 -0.20508,-0.46875 -0.20508,-1.43555 l 0,-6.01562 -1.41602,0 0,-0.32227 q 0.53711,-0.21484 1.09375,-0.72265 0.56641,-0.51758 1.00586,-1.22071 0.22461,-0.37109 0.625,-1.35742 l 0.30274,0 z"
         style=""
         id="path4288" />
      <path
         d="m 250.75237,202.25891 0,2.93945 2.08985,0 0,0.6836 -2.08985,0 0,5.80078 q 0,0.86914 0.24414,1.17187 0.25391,0.30274 0.64453,0.30274 0.32227,0 0.625,-0.19531 0.30274,-0.20508 0.46875,-0.59571 l 0.38086,0 q -0.34179,0.95703 -0.96679,1.44532 -0.625,0.47851 -1.28907,0.47851 -0.44921,0 -0.8789,-0.24414 -0.42969,-0.25391 -0.63477,-0.71289 -0.20508,-0.46875 -0.20508,-1.43555 l 0,-6.01562 -1.41601,0 0,-0.32227 q 0.53711,-0.21484 1.09375,-0.72265 0.56641,-0.51758 1.00586,-1.22071 0.22461,-0.37109 0.625,-1.35742 l 0.30273,0 z"
         style=""
         id="path4290" />
      <path
         d="m 521.29925,202.25891 0,2.93945 2.08984,0 0,0.6836 -2.08984,0 0,5.80078 q 0,0.86914 0.24414,1.17187 0.2539,0.30274 0.64453,0.30274 0.32227,0 0.625,-0.19531 0.30273,-0.20508 0.46875,-0.59571 l 0.38086,0 q -0.3418,0.95703 -0.9668,1.44532 -0.625,0.47851 -1.28906,0.47851 -0.44922,0 -0.87891,-0.24414 -0.42968,-0.25391 -0.63476,-0.71289 -0.20508,-0.46875 -0.20508,-1.43555 l 0,-6.01562 -1.41602,0 0,-0.32227 q 0.53711,-0.21484 1.09375,-0.72265 0.56641,-0.51758 1.00586,-1.22071 0.22461,-0.37109 0.625,-1.35742 l 0.30274,0 z"
         style=""
         id="path4292" />
      <path
         d="m 621.84612,202.25891 0,2.93945 2.08985,0 0,0.6836 -2.08985,0 0,5.80078 q 0,0.86914 0.24414,1.17187 0.25391,0.30274 0.64453,0.30274 0.32227,0 0.625,-0.19531 0.30274,-0.20508 0.46875,-0.59571 l 0.38086,0 q -0.34179,0.95703 -0.96679,1.44532 -0.625,0.47851 -1.28907,0.47851 -0.44921,0 -0.8789,-0.24414 -0.42969,-0.25391 -0.63477,-0.71289 -0.20508,-0.46875 -0.20508,-1.43555 l 0,-6.01562 -1.41601,0 0,-0.32227 q 0.53711,-0.21484 1.09375,-0.72265 0.56641,-0.51758 1.00586,-1.22071 0.22461,-0.37109 0.625,-1.35742 l 0.30273,0 z"
         style=""
         id="path4294" />
      <path
         d="m 687.393,202.25891 0,2.93945 2.08984,0 0,0.6836 -2.08984,0 0,5.80078 q 0,0.86914 0.24414,1.17187 0.2539,0.30274 0.64453,0.30274 0.32227,0 0.625,-0.19531 0.30273,-0.20508 0.46875,-0.59571 l 0.38086,0 q -0.3418,0.95703 -0.9668,1.44532 -0.625,0.47851 -1.28906,0.47851 -0.44922,0 -0.87891,-0.24414 -0.42968,-0.25391 -0.63476,-0.71289 -0.20508,-0.46875 -0.20508,-1.43555 l 0,-6.01562 -1.41602,0 0,-0.32227 q 0.53711,-0.21484 1.09375,-0.72265 0.56641,-0.51758 1.00586,-1.22071 0.22461,-0.37109 0.625,-1.35742 l 0.30274,0 z"
         style=""
         id="path4296" />
    </g>
    <g
       style="font-style:normal;font-variant:normal;font-weight:normal;font-stretch:normal;font-size:30px;line-height:100%;font-family:'Times New Roman';-inkscape-font-specification:'Times New Roman, Normal';text-align:start;letter-spacing:0px;word-spacing:0px;writing-mode:lr-tb;text-anchor:start;fill:#000000;fill-opacity:1;stroke:none;stroke-width:1px;stroke-linecap:butt;stroke-linejoin:miter;stroke-opacity:1"
       id="text4216-6">
      <path
         d="m 78.338257,844.86011 4.833984,-2.3584 0.483399,0 0,16.77246 q 0,1.66992 0.131836,2.08008 0.146484,0.41015 0.585937,0.62988 0.439453,0.21973 1.787109,0.24902 l 0,0.542 -7.470703,0 0,-0.542 q 1.40625,-0.0293 1.816407,-0.23437 0.410156,-0.21973 0.571289,-0.57129 0.161132,-0.36621 0.161132,-2.15332 l 0,-10.72266 q 0,-2.16797 -0.146484,-2.7832 -0.102539,-0.46875 -0.380859,-0.68848 -0.263672,-0.21972 -0.644532,-0.21972 -0.541992,0 -1.508789,0.4541 l -0.219726,-0.4541 z"
         style=""
         id="path4299" />
      <path
         d="m 163.57751,858.9519 -1.3916,3.82325 -11.71875,0 0,-0.542 q 5.1709,-4.71679 7.28028,-7.70507 2.10937,-2.98829 2.10937,-5.46387 0,-1.88965 -1.15723,-3.10547 -1.15722,-1.21582 -2.76855,-1.21582 -1.46484,0 -2.63672,0.86426 -1.15723,0.84961 -1.71387,2.50488 l -0.54199,0 q 0.36621,-2.70996 1.875,-4.16016 1.52344,-1.45019 3.79395,-1.45019 2.41699,0 4.02832,1.55273 1.62597,1.55274 1.62597,3.66211 0,1.50879 -0.70312,3.01758 -1.08399,2.37305 -3.51563,5.02441 -3.64746,3.98438 -4.55566,4.80469 l 5.18555,0 q 1.58203,0 2.21191,-0.11719 0.64453,-0.11718 1.15723,-0.46875 0.51269,-0.36621 0.89355,-1.02539 l 0.54199,0 z"
         style=""
         id="path4301" />
      <path
         d="m 233.84607,846.69116 q 0.84961,-2.00683 2.13867,-3.09082 1.30371,-1.09863 3.23731,-1.09863 2.38769,0 3.66211,1.55273 0.96679,1.15723 0.96679,2.47559 0,2.16797 -2.72461,4.48242 1.83106,0.71777 2.76856,2.05078 0.9375,1.33301 0.9375,3.13477 0,2.57812 -1.64063,4.46777 -2.13867,2.46094 -6.19629,2.46094 -2.00683,0 -2.73925,-0.49805 -0.71778,-0.49804 -0.71778,-1.06933 0,-0.42481 0.33692,-0.74707 0.35156,-0.32227 0.83496,-0.32227 0.36621,0 0.74707,0.11719 0.24902,0.0732 1.12793,0.54199 0.8789,0.4541 1.21582,0.54199 0.54199,0.16113 1.15722,0.16113 1.49414,0 2.59278,-1.15722 1.11328,-1.15723 1.11328,-2.73926 0,-1.15723 -0.5127,-2.25586 -0.38086,-0.82031 -0.83496,-1.24512 -0.62988,-0.58593 -1.72851,-1.05468 -1.09864,-0.4834 -2.24121,-0.4834 l -0.46875,0 0,-0.43946 q 1.15722,-0.14648 2.31445,-0.83496 1.17187,-0.68847 1.69922,-1.65527 0.52734,-0.9668 0.52734,-2.12402 0,-1.50879 -0.95215,-2.43164 -0.9375,-0.9375 -2.34375,-0.9375 -2.2705,0 -3.79394,2.43164 l -0.4834,-0.23438 z"
         style=""
         id="path4303" />
      <path
         d="m 363.57263,859.93335 q 0.68848,0 1.15723,0.4834 0.46875,0.46875 0.46875,1.14258 0,0.67382 -0.4834,1.15722 -0.46875,0.46875 -1.14258,0.46875 -0.67383,0 -1.15722,-0.46875 -0.46875,-0.4834 -0.46875,-1.15722 0,-0.68848 0.46875,-1.15723 0.48339,-0.46875 1.15722,-0.46875 z"
         style=""
         id="path4305" />
      <path
         d="m 371.07263,859.93335 q 0.68848,0 1.15723,0.4834 0.46875,0.46875 0.46875,1.14258 0,0.67382 -0.4834,1.15722 -0.46875,0.46875 -1.14258,0.46875 -0.67383,0 -1.15722,-0.46875 -0.46875,-0.4834 -0.46875,-1.15722 0,-0.68848 0.46875,-1.15723 0.48339,-0.46875 1.15722,-0.46875 z"
         style=""
         id="path4307" />
      <path
         d="m 378.57263,859.93335 q 0.68848,0 1.15723,0.4834 0.46875,0.46875 0.46875,1.14258 0,0.67382 -0.4834,1.15722 -0.46875,0.46875 -1.14258,0.46875 -0.67383,0 -1.15722,-0.46875 -0.46875,-0.4834 -0.46875,-1.15722 0,-0.68848 0.46875,-1.15723 0.48339,-0.46875 1.15722,-0.46875 z"
         style=""
         id="path4309" />
      <path
         d="m 451.63904,868.64917 0,0.54199 q -2.21192,-1.11328 -3.69141,-2.60742 -2.10937,-2.12402 -3.25195,-5.00977 -1.14258,-2.88574 -1.14258,-5.99121 0,-4.54101 2.24121,-8.27636 2.24121,-3.75 5.84473,-5.36133 l 0,0.61523 q -1.80176,0.9961 -2.95899,2.72461 -1.15722,1.72852 -1.72851,4.37988 -0.57129,2.65137 -0.57129,5.53711 0,3.13477 0.4834,5.69825 0.38086,2.02148 0.92285,3.2373 0.54199,1.23047 1.45019,2.3584 0.92286,1.12793 2.40235,2.15332 z"
         style=""
         id="path4311" />
      <path
         d="m 466.09705,858.9519 -1.39161,3.82325 -11.71875,0 0,-0.542 q 5.1709,-4.71679 7.28028,-7.70507 2.10937,-2.98829 2.10937,-5.46387 0,-1.88965 -1.15722,-3.10547 -1.15723,-1.21582 -2.76856,-1.21582 -1.46484,0 -2.63672,0.86426 -1.15722,0.84961 -1.71386,2.50488 l -0.542,0 q 0.36621,-2.70996 1.875,-4.16016 1.52344,-1.45019 3.79395,-1.45019 2.41699,0 4.02832,1.55273 1.62598,1.55274 1.62598,3.66211 0,1.50879 -0.70313,3.01758 -1.08398,2.37305 -3.51562,5.02441 -3.64747,3.98438 -4.55567,4.80469 l 5.18555,0 q 1.58203,0 2.21191,-0.11719 0.64453,-0.11718 1.15723,-0.46875 0.51269,-0.36621 0.89355,-1.02539 l 0.542,0 z"
         style=""
         id="path4313" />
      <path
         d="m 472.1908,851.80347 q 2.35839,-2.8418 4.49707,-2.8418 1.09863,0 1.88964,0.55664 0.79102,0.54199 1.25977,1.80176 0.32227,0.8789 0.32227,2.69531 l 0,5.72754 q 0,1.27441 0.20507,1.72852 0.16114,0.36621 0.5127,0.57128 0.36621,0.20508 1.33301,0.20508 l 0,0.52735 -6.63575,0 0,-0.52735 0.27833,0 q 0.9375,0 1.30371,-0.27832 0.38086,-0.29297 0.52734,-0.84961 0.0586,-0.21972 0.0586,-1.37695 l 0,-5.49316 q 0,-1.83106 -0.48339,-2.65137 -0.46875,-0.83496 -1.59668,-0.83496 -1.74317,0 -3.47168,1.90429 l 0,7.0752 q 0,1.3623 0.16113,1.68457 0.20508,0.4248 0.55664,0.62988 0.36621,0.19043 1.46484,0.19043 l 0,0.52735 -6.63574,0 0,-0.52735 0.29297,0 q 1.02539,0 1.37695,-0.51269 0.36621,-0.52735 0.36621,-1.99219 l 0,-4.98047 q 0,-2.41699 -0.11718,-2.94433 -0.10254,-0.52735 -0.33692,-0.71778 -0.21972,-0.19043 -0.60058,-0.19043 -0.41016,0 -0.98145,0.21973 l -0.21973,-0.52735 4.04297,-1.64062 0.62989,0 0,2.8418 z"
         style=""
         id="path4315" />
      <path
         d="m 483.55798,854.93823 7.57325,0 0,2.21192 -7.57325,0 0,-2.21192 z"
         style=""
         id="path4317" />
      <path
         d="m 506.11658,858.9519 -1.3916,3.82325 -11.71875,0 0,-0.542 q 5.17089,-4.71679 7.28027,-7.70507 2.10937,-2.98829 2.10937,-5.46387 0,-1.88965 -1.15722,-3.10547 -1.15723,-1.21582 -2.76856,-1.21582 -1.46484,0 -2.63672,0.86426 -1.15722,0.84961 -1.71386,2.50488 l -0.542,0 q 0.36622,-2.70996 1.875,-4.16016 1.52344,-1.45019 3.79395,-1.45019 2.41699,0 4.02832,1.55273 1.62598,1.55274 1.62598,3.66211 0,1.50879 -0.70313,3.01758 -1.08398,2.37305 -3.51562,5.02441 -3.64746,3.98438 -4.55567,4.80469 l 5.18555,0 q 1.58203,0 2.21191,-0.11719 0.64453,-0.11718 1.15723,-0.46875 0.5127,-0.36621 0.89355,-1.02539 l 0.542,0 z"
         style=""
         id="path4319" />
      <path
         d="m 508.03552,842.5603 0,-0.61523 q 2.22656,1.09863 3.70606,2.59277 2.09472,2.13867 3.2373,5.02442 1.14258,2.87109 1.14258,5.99121 0,4.54101 -2.24121,8.27636 -2.22656,3.75 -5.84473,5.36133 l 0,-0.54199 q 1.80176,-1.01074 2.95899,-2.73926 1.17187,-1.71387 1.72851,-4.36523 0.57129,-2.66602 0.57129,-5.55176 0,-3.12012 -0.4834,-5.69824 -0.36621,-2.02149 -0.92285,-3.23731 -0.54199,-1.21582 -1.45019,-2.34375 -0.90821,-1.12793 -2.40235,-2.15332 z"
         style=""
         id="path4321" />
      <path
         d="m 549.19763,868.64917 0,0.54199 q -2.21191,-1.11328 -3.6914,-2.60742 -2.10938,-2.12402 -3.25196,-5.00977 -1.14258,-2.88574 -1.14258,-5.99121 0,-4.54101 2.24122,-8.27636 2.24121,-3.75 5.84472,-5.36133 l 0,0.61523 q -1.80176,0.9961 -2.95898,2.72461 -1.15723,1.72852 -1.72852,4.37988 -0.57129,2.65137 -0.57129,5.53711 0,3.13477 0.4834,5.69825 0.38086,2.02148 0.92285,3.2373 0.54199,1.23047 1.4502,2.3584 0.92285,1.12793 2.40234,2.15332 z"
         style=""
         id="path4323" />
      <path
         d="m 563.65564,858.9519 -1.3916,3.82325 -11.71875,0 0,-0.542 q 5.1709,-4.71679 7.28027,-7.70507 2.10938,-2.98829 2.10938,-5.46387 0,-1.88965 -1.15723,-3.10547 -1.15723,-1.21582 -2.76855,-1.21582 -1.46485,0 -2.63672,0.86426 -1.15723,0.84961 -1.71387,2.50488 l -0.54199,0 q 0.36621,-2.70996 1.875,-4.16016 1.52343,-1.45019 3.79394,-1.45019 2.41699,0 4.02832,1.55273 1.62598,1.55274 1.62598,3.66211 0,1.50879 -0.70313,3.01758 -1.08398,2.37305 -3.51562,5.02441 -3.64746,3.98438 -4.55566,4.80469 l 5.18554,0 q 1.58203,0 2.21192,-0.11719 0.64453,-0.11718 1.15722,-0.46875 0.5127,-0.36621 0.89356,-1.02539 l 0.54199,0 z"
         style=""
         id="path4325" />
      <path
         d="m 569.74939,851.80347 q 2.3584,-2.8418 4.49707,-2.8418 1.09863,0 1.88965,0.55664 0.79101,0.54199 1.25976,1.80176 0.32227,0.8789 0.32227,2.69531 l 0,5.72754 q 0,1.27441 0.20508,1.72852 0.16113,0.36621 0.51269,0.57128 0.36621,0.20508 1.33301,0.20508 l 0,0.52735 -6.63574,0 0,-0.52735 0.27832,0 q 0.9375,0 1.30371,-0.27832 0.38086,-0.29297 0.52734,-0.84961 0.0586,-0.21972 0.0586,-1.37695 l 0,-5.49316 q 0,-1.83106 -0.4834,-2.65137 -0.46875,-0.83496 -1.59668,-0.83496 -1.74316,0 -3.47168,1.90429 l 0,7.0752 q 0,1.3623 0.16113,1.68457 0.20508,0.4248 0.55664,0.62988 0.36621,0.19043 1.46485,0.19043 l 0,0.52735 -6.63575,0 0,-0.52735 0.29297,0 q 1.02539,0 1.37696,-0.51269 0.36621,-0.52735 0.36621,-1.99219 l 0,-4.98047 q 0,-2.41699 -0.11719,-2.94433 -0.10254,-0.52735 -0.33691,-0.71778 -0.21973,-0.19043 -0.60059,-0.19043 -0.41016,0 -0.98145,0.21973 l -0.21972,-0.52735 4.04297,-1.64062 0.62988,0 0,2.8418 z"
         style=""
         id="path4327" />
      <path
         d="m 581.11658,854.93823 7.57324,0 0,2.21192 -7.57324,0 0,-2.21192 z"
         style=""
         id="path4329" />
      <path
         d="m 593.43591,844.86011 4.83399,-2.3584 0.4834,0 0,16.77246 q 0,1.66992 0.13183,2.08008 0.14649,0.41015 0.58594,0.62988 0.43945,0.21973 1.78711,0.24902 l 0,0.542 -7.4707,0 0,-0.542 q 1.40625,-0.0293 1.8164,-0.23437 0.41016,-0.21973 0.57129,-0.57129 0.16113,-0.36621 0.16113,-2.15332 l 0,-10.72266 q 0,-2.16797 -0.14648,-2.7832 -0.10254,-0.46875 -0.38086,-0.68848 -0.26367,-0.21972 -0.64453,-0.21972 -0.54199,0 -1.50879,0.4541 l -0.21973,-0.4541 z"
         style=""
         id="path4331" />
      <path
         d="m 605.59412,842.5603 0,-0.61523 q 2.22656,1.09863 3.70605,2.59277 2.09473,2.13867 3.23731,5.02442 1.14257,2.87109 1.14257,5.99121 0,4.54101 -2.24121,8.27636 -2.22656,3.75 -5.84472,5.36133 l 0,-0.54199 q 1.80175,-1.01074 2.95898,-2.73926 1.17188,-1.71387 1.72852,-4.36523 0.57129,-2.66602 0.57129,-5.55176 0,-3.12012 -0.4834,-5.69824 -0.36621,-2.02149 -0.92285,-3.23731 -0.542,-1.21582 -1.4502,-2.34375 -0.9082,-1.12793 -2.40234,-2.15332 z"
         style=""
         id="path4333" />
      <path
         d="m 639.25623,868.64917 0,0.54199 q -2.21192,-1.11328 -3.69141,-2.60742 -2.10938,-2.12402 -3.25195,-5.00977 -1.14258,-2.88574 -1.14258,-5.99121 0,-4.54101 2.24121,-8.27636 2.24121,-3.75 5.84473,-5.36133 l 0,0.61523 q -1.80176,0.9961 -2.95899,2.72461 -1.15723,1.72852 -1.72851,4.37988 -0.57129,2.65137 -0.57129,5.53711 0,3.13477 0.48339,5.69825 0.38086,2.02148 0.92286,3.2373 0.54199,1.23047 1.45019,2.3584 0.92285,1.12793 2.40235,2.15332 z"
         style=""
         id="path4335" />
      <path
         d="m 653.71423,858.9519 -1.3916,3.82325 -11.71875,0 0,-0.542 q 5.1709,-4.71679 7.28028,-7.70507 2.10937,-2.98829 2.10937,-5.46387 0,-1.88965 -1.15723,-3.10547 -1.15722,-1.21582 -2.76855,-1.21582 -1.46484,0 -2.63672,0.86426 -1.15723,0.84961 -1.71387,2.50488 l -0.54199,0 q 0.36621,-2.70996 1.875,-4.16016 1.52344,-1.45019 3.79395,-1.45019 2.41699,0 4.02832,1.55273 1.62597,1.55274 1.62597,3.66211 0,1.50879 -0.70312,3.01758 -1.08399,2.37305 -3.51563,5.02441 -3.64746,3.98438 -4.55566,4.80469 l 5.18555,0 q 1.58203,0 2.21191,-0.11719 0.64453,-0.11718 1.15723,-0.46875 0.51269,-0.36621 0.89355,-1.02539 l 0.54199,0 z"
         style=""
         id="path4337" />
      <path
         d="m 659.80798,851.80347 q 2.3584,-2.8418 4.49707,-2.8418 1.09864,0 1.88965,0.55664 0.79102,0.54199 1.25977,1.80176 0.32226,0.8789 0.32226,2.69531 l 0,5.72754 q 0,1.27441 0.20508,1.72852 0.16113,0.36621 0.5127,0.57128 0.36621,0.20508 1.333,0.20508 l 0,0.52735 -6.63574,0 0,-0.52735 0.27832,0 q 0.9375,0 1.30371,-0.27832 0.38086,-0.29297 0.52735,-0.84961 0.0586,-0.21972 0.0586,-1.37695 l 0,-5.49316 q 0,-1.83106 -0.4834,-2.65137 -0.46875,-0.83496 -1.59668,-0.83496 -1.74316,0 -3.47168,1.90429 l 0,7.0752 q 0,1.3623 0.16114,1.68457 0.20507,0.4248 0.55664,0.62988 0.36621,0.19043 1.46484,0.19043 l 0,0.52735 -6.63574,0 0,-0.52735 0.29297,0 q 1.02539,0 1.37695,-0.51269 0.36621,-0.52735 0.36621,-1.99219 l 0,-4.98047 q 0,-2.41699 -0.11719,-2.94433 -0.10254,-0.52735 -0.33691,-0.71778 -0.21973,-0.19043 -0.60059,-0.19043 -0.41015,0 -0.98144,0.21973 l -0.21973,-0.52735 4.04297,-1.64062 0.62988,0 0,2.8418 z"
         style=""
         id="path4339" />
      <path
         d="m 670.63318,842.5603 0,-0.61523 q 2.22656,1.09863 3.70605,2.59277 2.09473,2.13867 3.23731,5.02442 1.14258,2.87109 1.14258,5.99121 0,4.54101 -2.24121,8.27636 -2.22657,3.75 -5.84473,5.36133 l 0,-0.54199 q 1.80176,-1.01074 2.95898,-2.73926 1.17188,-1.71387 1.72852,-4.36523 0.57129,-2.66602 0.57129,-5.55176 0,-3.12012 -0.4834,-5.69824 -0.36621,-2.02149 -0.92285,-3.23731 -0.54199,-1.21582 -1.4502,-2.34375 -0.9082,-1.12793 -2.40234,-2.15332 z"
         style=""
         id="path4341" />
    </g>
    <g
       style="font-style:normal;font-variant:normal;font-weight:normal;font-stretch:normal;font-size:20px;line-height:100%;font-family:'Times New Roman';-inkscape-font-specification:'Times New Roman, Normal';text-align:start;letter-spacing:0px;word-spacing:0px;writing-mode:lr-tb;text-anchor:start;fill:#000000;fill-opacity:1;stroke:none;stroke-width:1px;stroke-linecap:butt;stroke-linejoin:miter;stroke-opacity:1"
       id="text4216-5-4">
      <path
         d="m 92.62323,864.75134 q 1.298828,-1.80664 2.802734,-1.80664 1.376953,0 2.402344,1.18164 1.025391,1.17188 1.025391,3.21289 0,2.38282 -1.582032,3.83789 -1.357421,1.25 -3.027343,1.25 -0.78125,0 -1.591797,-0.2832 -0.800781,-0.2832 -1.640625,-0.84961 l 0,-9.26758 q 0,-1.52343 -0.07813,-1.875 -0.06836,-0.35156 -0.22461,-0.47851 -0.15625,-0.12696 -0.390625,-0.12696 -0.273437,0 -0.683593,0.15625 l -0.136719,-0.34179 2.685547,-1.09375 0.439453,0 0,6.48437 z m 0,0.625 0,5.35157 q 0.498047,0.48828 1.025391,0.74218 0.537109,0.24414 1.09375,0.24414 0.888671,0 1.65039,-0.97656 0.771485,-0.97656 0.771485,-2.8418 0,-1.71875 -0.771485,-2.63671 -0.761719,-0.92774 -1.738281,-0.92774 -0.517578,0 -1.035156,0.26367 -0.390625,0.19532 -0.996094,0.78125 z"
         style=""
         id="path4344" />
      <path
         d="m 167.62323,864.75134 q 1.29883,-1.80664 2.80273,-1.80664 1.37696,0 2.40235,1.18164 1.02539,1.17188 1.02539,3.21289 0,2.38282 -1.58203,3.83789 -1.35742,1.25 -3.02735,1.25 -0.78125,0 -1.59179,-0.2832 -0.80078,-0.2832 -1.64063,-0.84961 l 0,-9.26758 q 0,-1.52343 -0.0781,-1.875 -0.0684,-0.35156 -0.22461,-0.47851 -0.15625,-0.12696 -0.39063,-0.12696 -0.27344,0 -0.68359,0.15625 l -0.13672,-0.34179 2.68555,-1.09375 0.43945,0 0,6.48437 z m 0,0.625 0,5.35157 q 0.49805,0.48828 1.02539,0.74218 0.53711,0.24414 1.09375,0.24414 0.88867,0 1.65039,-0.97656 0.77149,-0.97656 0.77149,-2.8418 0,-1.71875 -0.77149,-2.63671 -0.76172,-0.92774 -1.73828,-0.92774 -0.51758,0 -1.03516,0.26367 -0.39062,0.19532 -0.99609,0.78125 z"
         style=""
         id="path4346" />
      <path
         d="m 252.62323,864.75134 q 1.29883,-1.80664 2.80273,-1.80664 1.37696,0 2.40235,1.18164 1.02539,1.17188 1.02539,3.21289 0,2.38282 -1.58203,3.83789 -1.35742,1.25 -3.02735,1.25 -0.78125,0 -1.59179,-0.2832 -0.80078,-0.2832 -1.64063,-0.84961 l 0,-9.26758 q 0,-1.52343 -0.0781,-1.875 -0.0684,-0.35156 -0.22461,-0.47851 -0.15625,-0.12696 -0.39063,-0.12696 -0.27344,0 -0.68359,0.15625 l -0.13672,-0.34179 2.68555,-1.09375 0.43945,0 0,6.48437 z m 0,0.625 0,5.35157 q 0.49805,0.48828 1.02539,0.74218 0.53711,0.24414 1.09375,0.24414 0.88867,0 1.65039,-0.97656 0.77149,-0.97656 0.77149,-2.8418 0,-1.71875 -0.77149,-2.63671 -0.76172,-0.92774 -1.73828,-0.92774 -0.51758,0 -1.03516,0.26367 -0.39062,0.19532 -0.99609,0.78125 z"
         style=""
         id="path4348" />
      <path
         d="m 522.62323,864.75134 q 1.29883,-1.80664 2.80273,-1.80664 1.37696,0 2.40235,1.18164 1.02539,1.17188 1.02539,3.21289 0,2.38282 -1.58203,3.83789 -1.35742,1.25 -3.02735,1.25 -0.78125,0 -1.59179,-0.2832 -0.80078,-0.2832 -1.64063,-0.84961 l 0,-9.26758 q 0,-1.52343 -0.0781,-1.875 -0.0684,-0.35156 -0.22461,-0.47851 -0.15625,-0.12696 -0.39063,-0.12696 -0.27344,0 -0.68359,0.15625 l -0.13672,-0.34179 2.68555,-1.09375 0.43945,0 0,6.48437 z m 0,0.625 0,5.35157 q 0.49805,0.48828 1.02539,0.74218 0.53711,0.24414 1.09375,0.24414 0.88867,0 1.65039,-0.97656 0.77149,-0.97656 0.77149,-2.8418 0,-1.71875 -0.77149,-2.63671 -0.76172,-0.92774 -1.73828,-0.92774 -0.51758,0 -1.03516,0.26367 -0.39062,0.19532 -0.99609,0.78125 z"
         style=""
         id="path4350" />
      <path
         d="m 617.62323,864.75134 q 1.29883,-1.80664 2.80273,-1.80664 1.37696,0 2.40235,1.18164 1.02539,1.17188 1.02539,3.21289 0,2.38282 -1.58203,3.83789 -1.35742,1.25 -3.02735,1.25 -0.78125,0 -1.59179,-0.2832 -0.80078,-0.2832 -1.64063,-0.84961 l 0,-9.26758 q 0,-1.52343 -0.0781,-1.875 -0.0684,-0.35156 -0.22461,-0.47851 -0.15625,-0.12696 -0.39063,-0.12696 -0.27344,0 -0.68359,0.15625 l -0.13672,-0.34179 2.68555,-1.09375 0.43945,0 0,6.48437 z m 0,0.625 0,5.35157 q 0.49805,0.48828 1.02539,0.74218 0.53711,0.24414 1.09375,0.24414 0.88867,0 1.65039,-0.97656 0.77149,-0.97656 0.77149,-2.8418 0,-1.71875 -0.77149,-2.63671 -0.76172,-0.92774 -1.73828,-0.92774 -0.51758,0 -1.03516,0.26367 -0.39062,0.19532 -0.99609,0.78125 z"
         style=""
         id="path4352" />
      <path
         d="m 682.62323,864.75134 q 1.29883,-1.80664 2.80273,-1.80664 1.37696,0 2.40235,1.18164 1.02539,1.17188 1.02539,3.21289 0,2.38282 -1.58203,3.83789 -1.35742,1.25 -3.02735,1.25 -0.78125,0 -1.59179,-0.2832 -0.80078,-0.2832 -1.64063,-0.84961 l 0,-9.26758 q 0,-1.52343 -0.0781,-1.875 -0.0684,-0.35156 -0.22461,-0.47851 -0.15625,-0.12696 -0.39063,-0.12696 -0.27344,0 -0.68359,0.15625 l -0.13672,-0.34179 2.68555,-1.09375 0.43945,0 0,6.48437 z m 0,0.625 0,5.35157 q 0.49805,0.48828 1.02539,0.74218 0.53711,0.24414 1.09375,0.24414 0.88867,0 1.65039,-0.97656 0.77149,-0.97656 0.77149,-2.8418 0,-1.71875 -0.77149,-2.63671 -0.76172,-0.92774 -1.73828,-0.92774 -0.51758,0 -1.03516,0.26367 -0.39062,0.19532 -0.99609,0.78125 z"
         style=""
         id="path4354" />
    </g>
  </g>
</svg>
