<?xml version="1.0" encoding="UTF-8" standalone="no"?>
<!-- Created with Inkscape (http://www.inkscape.org/) -->

<svg
   xmlns:dc="http://purl.org/dc/elements/1.1/"
   xmlns:cc="http://creativecommons.org/ns#"
   xmlns:rdf="http://www.w3.org/1999/02/22-rdf-syntax-ns#"
   xmlns:svg="http://www.w3.org/2000/svg"
   xmlns="http://www.w3.org/2000/svg"
   xmlns:sodipodi="http://sodipodi.sourceforge.net/DTD/sodipodi-0.dtd"
   xmlns:inkscape="http://www.inkscape.org/namespaces/inkscape"
   width="210mm"
   height="297mm"
   viewBox="0 0 744.09448819 1052.3622047"
   id="svg3423"
   version="1.1"
   inkscape:version="0.91 r13725"
   sodipodi:docname="questiontwo.svg">
  <defs
     id="defs3425" />
  <sodipodi:namedview
     id="base"
     pagecolor="#ffffff"
     bordercolor="#666666"
     borderopacity="1.0"
     inkscape:pageopacity="0.0"
     inkscape:pageshadow="2"
     inkscape:zoom="0.52548447"
     inkscape:cx="372.04724"
     inkscape:cy="526.1811"
     inkscape:document-units="px"
     inkscape:current-layer="layer1"
     showgrid="false"
     inkscape:snap-bbox="true"
     inkscape:bbox-paths="true"
     inkscape:bbox-nodes="true"
     inkscape:snap-bbox-midpoints="true"
     inkscape:object-paths="true"
     inkscape:object-nodes="true"
     inkscape:snap-smooth-nodes="true"
     inkscape:snap-midpoints="true"
     inkscape:snap-intersection-paths="true"
     inkscape:snap-center="true"
     inkscape:snap-text-baseline="true"
     inkscape:snap-object-midpoints="true"
     inkscape:snap-page="true"
     inkscape:window-width="1366"
     inkscape:window-height="705"
     inkscape:window-x="-8"
     inkscape:window-y="-8"
     inkscape:window-maximized="1"
     inkscape:snap-bbox-edge-midpoints="true"
     inkscape:snap-nodes="true" />
  <metadata
     id="metadata3428">
    <rdf:RDF>
      <cc:Work
         rdf:about="">
        <dc:format>image/svg+xml</dc:format>
        <dc:type
           rdf:resource="http://purl.org/dc/dcmitype/StillImage" />
        <dc:title></dc:title>
      </cc:Work>
    </rdf:RDF>
  </metadata>
  <g
     inkscape:label="Layer 1"
     inkscape:groupmode="layer"
     id="layer1">
    <circle
       style="opacity:1;fill:#ffffff;fill-opacity:1;stroke:#000000;stroke-width:10;stroke-linecap:butt;stroke-linejoin:miter;stroke-miterlimit:4;stroke-dasharray:none;stroke-opacity:1"
       id="path4778-7-9"
       cx="154.87592"
       cy="247.98785"
       r="69.90905" />
    <circle
       style="opacity:1;fill:#ffffff;fill-opacity:1;stroke:#000000;stroke-width:10;stroke-linecap:butt;stroke-linejoin:miter;stroke-miterlimit:4;stroke-dasharray:none;stroke-opacity:1"
       id="path4778-7-9-5"
       cx="594.21857"
       cy="247.98782"
       r="69.90905" />
    <ellipse
       style="opacity:1;fill:#ffffff;fill-opacity:1;stroke:#000000;stroke-width:0;stroke-linecap:butt;stroke-linejoin:miter;stroke-miterlimit:4;stroke-dasharray:none;stroke-opacity:1"
       id="path4778-7-9-6-3"
       cx="584.66919"
       cy="178.73405"
       rx="24.999998"
       ry="24.999996" />
    <ellipse
       style="opacity:1;fill:#ffffff;fill-opacity:1;stroke:#000000;stroke-width:0;stroke-linecap:butt;stroke-linejoin:miter;stroke-miterlimit:4;stroke-dasharray:none;stroke-opacity:1"
       id="path4778-7-9-6-3-7"
       cx="-164.42529"
       cy="178.73405"
       rx="24.999998"
       ry="24.999996"
       transform="scale(-1,1)" />
    <circle
       style="opacity:1;fill:none;fill-opacity:1;stroke:#000000;stroke-width:9.99953461;stroke-linecap:butt;stroke-linejoin:miter;stroke-miterlimit:4;stroke-dasharray:none;stroke-opacity:1"
       id="path4778"
       cx="374.54724"
       cy="242.98775"
       r="219.72823" />
    <circle
       style="opacity:1;fill:#ffffff;fill-opacity:1;stroke:#000000;stroke-width:9.99953461;stroke-linecap:butt;stroke-linejoin:miter;stroke-miterlimit:4;stroke-dasharray:none;stroke-opacity:1"
       id="path4778-0"
       cx="374.54724"
       cy="771.66882"
       r="219.72823" />
    <rect
       style="opacity:1;fill:#ffffff;fill-opacity:1;stroke:#000000;stroke-width:10;stroke-linecap:butt;stroke-linejoin:miter;stroke-miterlimit:4;stroke-dasharray:none;stroke-opacity:1"
       id="rect4161"
       width="739.09448"
       height="523.68109"
       x="5"
       y="247.98775" />
    <rect
       style="opacity:1;fill:#ffffff;fill-opacity:1;stroke:#000000;stroke-width:10;stroke-linecap:butt;stroke-linejoin:miter;stroke-miterlimit:4;stroke-dasharray:none;stroke-opacity:1"
       id="rect6073"
       width="294.69492"
       height="523.68103"
       x="5"
       y="247.98778" />
    <rect
       style="opacity:1;fill:#ffffff;fill-opacity:1;stroke:#000000;stroke-width:10;stroke-linecap:butt;stroke-linejoin:miter;stroke-miterlimit:4;stroke-dasharray:none;stroke-opacity:1"
       id="rect6073-1"
       width="294.69492"
       height="523.68103"
       x="449.39957"
       y="247.98779" />
    <g
       style="font-style:normal;font-variant:normal;font-weight:normal;font-stretch:normal;font-size:180px;line-height:100%;font-family:'Times New Roman';-inkscape-font-specification:'Times New Roman, Normal';text-align:center;letter-spacing:0px;word-spacing:0px;writing-mode:lr-tb;text-anchor:middle;fill:#000000;fill-opacity:1;stroke:none;stroke-width:1px;stroke-linecap:butt;stroke-linejoin:miter;stroke-opacity:1"
       id="text6090">
      <path
         d="m 211.62968,569.41815 -31.8164,0 -40.3418,-55.72265 q -4.48242,0.17578 -7.29492,0.17578 -1.14258,0 -2.46094,0 -1.31836,-0.0879 -2.72461,-0.17578 l 0,34.6289 q 0,11.25 2.46094,13.97461 3.33984,3.86719 10.01953,3.86719 l 4.6582,0 0,3.25195 -51.064449,0 0,-3.25195 4.482422,0 q 7.558597,0 10.810547,-4.92188 1.8457,-2.72461 1.8457,-12.91992 l 0,-76.99219 q 0,-11.25 -2.46093,-13.97461 -3.42774,-3.86718 -10.195317,-3.86718 l -4.482422,0 0,-3.25196 43.417969,0 q 18.98438,0 27.94922,2.8125 9.05273,2.72461 15.29297,10.19532 6.32812,7.38281 6.32812,17.66601 0,10.98633 -7.20703,19.07227 -7.11914,8.08594 -22.14844,11.42578 l 24.60938,34.18945 q 8.4375,11.77735 14.50195,15.64453 6.06446,3.86719 15.82031,4.92188 l 0,3.25195 z m -84.63867,-61.25976 q 1.66992,0 2.90039,0.0879 1.23047,0 2.02149,0 17.05078,0 25.66406,-7.38282 8.70117,-7.38281 8.70117,-18.80859 0,-11.16211 -7.03125,-18.10547 -6.94336,-7.03125 -18.45703,-7.03125 -5.09766,0 -13.79883,1.66992 l 0,49.57032 z"
         style=""
         id="path6133" />
    </g>
    <g
       transform="scale(-1,1)"
       style="font-style:normal;font-variant:normal;font-weight:normal;font-stretch:normal;font-size:180px;line-height:100%;font-family:'Times New Roman';-inkscape-font-specification:'Times New Roman, Normal';text-align:center;letter-spacing:0px;word-spacing:0px;writing-mode:lr-tb;text-anchor:middle;fill:#000000;fill-opacity:1;stroke:none;stroke-width:1px;stroke-linecap:butt;stroke-linejoin:miter;stroke-opacity:1"
       id="text6090-1">
      <path
         d="m -537.46478,569.41815 -31.81641,0 -40.3418,-55.72265 q -4.48242,0.17578 -7.29492,0.17578 -1.14258,0 -2.46094,0 -1.31835,-0.0879 -2.7246,-0.17578 l 0,34.6289 q 0,11.25 2.46093,13.97461 3.33985,3.86719 10.01953,3.86719 l 4.65821,0 0,3.25195 -51.06446,0 0,-3.25195 4.48243,0 q 7.55859,0 10.81054,-4.92188 1.84571,-2.72461 1.84571,-12.91992 l 0,-76.99219 q 0,-11.25 -2.46094,-13.97461 -3.42774,-3.86718 -10.19531,-3.86718 l -4.48243,0 0,-3.25196 43.41797,0 q 18.98438,0 27.94922,2.8125 9.05274,2.72461 15.29297,10.19532 6.32813,7.38281 6.32813,17.66601 0,10.98633 -7.20704,19.07227 -7.11914,8.08594 -22.14843,11.42578 l 24.60937,34.18945 q 8.4375,11.77735 14.50195,15.64453 6.06446,3.86719 15.82032,4.92188 l 0,3.25195 z m -84.63867,-61.25976 q 1.66992,0 2.90039,0.0879 1.23046,0 2.02148,0 17.05078,0 25.66406,-7.38282 8.70117,-7.38281 8.70117,-18.80859 0,-11.16211 -7.03125,-18.10547 -6.94335,-7.03125 -18.45703,-7.03125 -5.09765,0 -13.79882,1.66992 l 0,49.57032 z"
         style=""
         id="path6136" />
    </g>
    <g
       style="font-style:normal;font-variant:normal;font-weight:normal;font-stretch:normal;font-size:180px;line-height:100%;font-family:'Times New Roman';-inkscape-font-specification:'Times New Roman, Normal';text-align:center;letter-spacing:0px;word-spacing:0px;writing-mode:lr-tb;text-anchor:middle;fill:#000000;fill-opacity:1;stroke:none;stroke-width:1px;stroke-linecap:butt;stroke-linejoin:miter;stroke-opacity:1"
       id="text6090-9">
      <path
         d="m 383.42419,503.41229 25.57618,38.14453 q 10.63476,15.82032 15.73242,20.03907 5.18554,4.13086 13.0957,4.57031 l 0,3.25195 -51.15234,0 0,-3.25195 q 5.09765,-0.0879 7.55859,-1.05469 1.8457,-0.79101 2.98828,-2.37305 1.23047,-1.66992 1.23047,-3.33984 0,-2.02148 -0.79101,-4.04297 -0.61524,-1.49414 -4.83399,-7.73437 l -20.21484,-30.58594 -24.96094,31.99219 q -3.95508,5.09765 -4.74609,6.85547 -0.79102,1.66992 -0.79102,3.51562 0,2.8125 2.37305,4.6582 2.37304,1.84571 9.05273,2.10938 l 0,3.25195 -42.27539,0 0,-3.25195 q 4.48242,-0.43945 7.73438,-1.8457 5.44921,-2.28516 10.37109,-6.15235 4.92187,-3.86719 11.25,-11.86523 l 28.125,-35.50782 -23.4668,-34.36523 q -9.58008,-13.97461 -16.25976,-18.28125 -6.67969,-4.39453 -15.38086,-4.6582 l 0,-3.25196 55.10742,0 0,3.25196 q -7.03125,0.26367 -9.66797,2.28515 -2.54883,2.02149 -2.54883,4.48243 0,3.25195 4.21875,9.49218 l 18.28125,27.33399 21.18164,-26.80664 q 3.69141,-4.7461 4.48243,-6.50391 0.8789,-1.75781 0.8789,-3.60352 0,-1.8457 -1.05469,-3.25195 -1.31836,-1.8457 -3.33984,-2.54883 -2.02148,-0.79101 -8.34961,-0.8789 l 0,-3.25196 42.27539,0 0,3.25196 q -5.00976,0.26367 -8.17383,1.58203 -4.74609,2.02148 -8.70117,5.44922 -3.95508,3.42773 -11.16211,12.65625 l -23.64258,30.23437 z"
         style=""
         id="path6139" />
    </g>
  </g>
</svg>
