<?xml version="1.0" encoding="UTF-8" standalone="no"?>
<!-- Created with Inkscape (http://www.inkscape.org/) -->

<svg
   xmlns:dc="http://purl.org/dc/elements/1.1/"
   xmlns:cc="http://creativecommons.org/ns#"
   xmlns:rdf="http://www.w3.org/1999/02/22-rdf-syntax-ns#"
   xmlns:svg="http://www.w3.org/2000/svg"
   xmlns="http://www.w3.org/2000/svg"
   xmlns:sodipodi="http://sodipodi.sourceforge.net/DTD/sodipodi-0.dtd"
   xmlns:inkscape="http://www.inkscape.org/namespaces/inkscape"
   width="210mm"
   height="297mm"
   viewBox="0 0 744.09448819 1052.3622047"
   id="svg2"
   version="1.1"
   inkscape:version="0.91 r13725"
   sodipodi:docname="twisted.svg">
  <defs
     id="defs4" />
  <sodipodi:namedview
     id="base"
     pagecolor="#ffffff"
     bordercolor="#666666"
     borderopacity="1.0"
     inkscape:pageopacity="0.0"
     inkscape:pageshadow="2"
     inkscape:zoom="1.3758347"
     inkscape:cx="372.04724"
     inkscape:cy="461.55946"
     inkscape:document-units="px"
     inkscape:current-layer="layer1"
     showgrid="false"
     inkscape:snap-page="true"
     inkscape:snap-text-baseline="true"
     inkscape:snap-others="true"
     inkscape:snap-bbox="true"
     inkscape:bbox-paths="true"
     inkscape:bbox-nodes="true"
     inkscape:snap-bbox-edge-midpoints="true"
     inkscape:snap-bbox-midpoints="true"
     inkscape:object-paths="true"
     inkscape:object-nodes="true"
     inkscape:snap-midpoints="true"
     inkscape:snap-center="true"
     inkscape:snap-object-midpoints="true"
     inkscape:snap-smooth-nodes="true"
     inkscape:snap-intersection-paths="true"
     inkscape:window-width="1366"
     inkscape:window-height="705"
     inkscape:window-x="-8"
     inkscape:window-y="-8"
     inkscape:window-maximized="1"
     showguides="false"
     inkscape:snap-global="true" />
  <metadata
     id="metadata7">
    <rdf:RDF>
      <cc:Work
         rdf:about="">
        <dc:format>image/svg+xml</dc:format>
        <dc:type
           rdf:resource="http://purl.org/dc/dcmitype/StillImage" />
        <dc:title></dc:title>
      </cc:Work>
    </rdf:RDF>
  </metadata>
  <g
     inkscape:label="Layer 1"
     inkscape:groupmode="layer"
     id="layer1">
    <path
       style="opacity:1;fill:#ffffff;fill-opacity:1;stroke:#000000;stroke-width:5;stroke-linecap:butt;stroke-linejoin:miter;stroke-miterlimit:4;stroke-dasharray:none;stroke-opacity:1"
       d="m 531.68463,395.56598 105.54498,0 0,262.47046 -105.54498,0"
       id="path4430"
       inkscape:connector-curvature="0" />
    <path
       style="opacity:1;fill:#ffffff;fill-opacity:1;stroke:#000000;stroke-width:5;stroke-linecap:butt;stroke-linejoin:miter;stroke-miterlimit:4;stroke-dasharray:none;stroke-opacity:1"
       d="m 319.89479,395.56598 104.92491,0"
       id="path4426"
       inkscape:connector-curvature="0" />
    <path
       style="opacity:1;fill:none;fill-opacity:1;stroke:#000000;stroke-width:5;stroke-linecap:butt;stroke-linejoin:miter;stroke-miterlimit:4;stroke-dasharray:none;stroke-opacity:1"
       d="M 256.03984,437.81106 Z"
       id="path4277"
       inkscape:connector-curvature="0" />
    <path
       style="opacity:1;fill:#ffffff;fill-opacity:1;stroke:#000000;stroke-width:5;stroke-linecap:butt;stroke-linejoin:miter;stroke-miterlimit:4;stroke-dasharray:5,5;stroke-opacity:1;stroke-dashoffset:0"
       d="m 319.27475,658.03644 105.54495,0"
       id="path4428"
       inkscape:connector-curvature="0" />
    <path
       style="opacity:1;fill:#ffffff;fill-opacity:1;stroke:#000000;stroke-width:5;stroke-linecap:butt;stroke-linejoin:miter;stroke-miterlimit:4;stroke-dasharray:none;stroke-opacity:1"
       d="m 211.96988,395.56598 -105.54496,0 0,262.47046 105.54496,0"
       id="path4424"
       inkscape:connector-curvature="0" />
    <path
       style="opacity:1;fill:#ffffff;fill-opacity:1;stroke:#000000;stroke-width:5;stroke-linecap:butt;stroke-linejoin:miter;stroke-miterlimit:4;stroke-dasharray:none;stroke-opacity:1"
       d="m 211.96988,658.03644 -1.5,-211.47637 22.78498,0.24987 0,52.74396 63.85495,1.40052 0,-53.44422 22.78498,0.24987 -0.62004,210.27637"
       id="path4488"
       inkscape:connector-curvature="0" />
    <path
       style="opacity:1;fill:#ffffff;fill-opacity:1;stroke:#000000;stroke-width:5;stroke-linecap:butt;stroke-linejoin:miter;stroke-miterlimit:4;stroke-dasharray:none;stroke-opacity:1"
       d="m 211.96988,395.56598 -1.5,24.74705 44.06996,0.24164 0,52.97738 21.28499,0.35014 0,-53.2108 44.06996,0.24164 0,-25.34705"
       id="path4490"
       inkscape:connector-curvature="0" />
    <path
       style="opacity:1;fill:#ffffff;fill-opacity:1;stroke:#000000;stroke-width:5;stroke-linecap:butt;stroke-linejoin:miter;stroke-miterlimit:4;stroke-dasharray:none;stroke-opacity:1"
       d="m 422.25972,656.62719 -1.5,-211.47637 22.78498,0.24987 0,52.74396 63.85495,1.40052 0,-53.44422 22.78498,0.24987 -0.62004,210.27637"
       id="path4488-4"
       inkscape:connector-curvature="0" />
    <path
       style="opacity:1;fill:#ffffff;fill-opacity:1;stroke:#000000;stroke-width:5;stroke-linecap:butt;stroke-linejoin:miter;stroke-miterlimit:4;stroke-dasharray:none;stroke-opacity:1"
       d="m 422.25972,394.15673 -1.5,24.74705 44.06996,0.24164 0,52.97738 21.28499,0.35014 0,-53.2108 44.06996,0.24164 0,-25.34705"
       id="path4490-7"
       inkscape:connector-curvature="0" />
    <rect
       style="opacity:1;fill:#ffffff;fill-opacity:1;stroke:#000000;stroke-width:5;stroke-linecap:butt;stroke-linejoin:miter;stroke-miterlimit:4;stroke-dasharray:none;stroke-opacity:1"
       id="rect4154"
       width="744.09448"
       height="263.09055"
       x="0"
       y="526.18109" />
    <path
       style="opacity:1;fill:none;fill-opacity:1;stroke:#000000;stroke-width:5;stroke-linecap:butt;stroke-linejoin:miter;stroke-miterlimit:4;stroke-dasharray:5,5;stroke-dashoffset:0;stroke-opacity:1"
       d="m 106.42492,526.18109 0,131.85535 105.54496,0 -0.93525,-131.85535 108.62892,0 -0.3888,131.85535 102.98497,-1.40925 -0.92525,-130.4461 108.61477,0 1.73539,131.85535 105.54498,0 0,-131.85535"
       id="path3348"
       inkscape:connector-curvature="0" />
    <rect
       style="opacity:1;fill:#ffffff;fill-opacity:1;stroke:none;stroke-width:2.53517556;stroke-linecap:butt;stroke-linejoin:miter;stroke-miterlimit:4;stroke-dasharray:none;stroke-opacity:1"
       id="rect4400"
       width="20"
       height="280.69452"
       x="362.04724"
       y="389.83383" />
    <g
       style="font-style:normal;font-variant:normal;font-weight:normal;font-stretch:normal;font-size:60px;line-height:100%;font-family:'Times New Roman';-inkscape-font-specification:'Times New Roman, Normal';text-align:center;letter-spacing:0px;word-spacing:0px;writing-mode:lr-tb;text-anchor:middle;fill:#000000;fill-opacity:1;stroke:none;stroke-width:1px;stroke-linecap:butt;stroke-linejoin:miter;stroke-opacity:1"
       id="text3347">
      <path
         d="m 387.9115,743.97144 -10.60547,0 -13.44727,-18.57422 q -1.49414,0.0586 -2.43164,0.0586 -0.38086,0 -0.82031,0 -0.43945,-0.0293 -0.9082,-0.0586 l 0,11.54297 q 0,3.75 0.82031,4.6582 1.11328,1.28906 3.33984,1.28906 l 1.55274,0 0,1.08399 -17.02149,0 0,-1.08399 1.49415,0 q 2.51953,0 3.60351,-1.64062 0.61524,-0.90821 0.61524,-4.30664 l 0,-25.66407 q 0,-3.75 -0.82032,-4.6582 -1.14258,-1.28906 -3.39843,-1.28906 l -1.49415,0 0,-1.08399 14.47266,0 q 6.32813,0 9.31641,0.9375 3.01758,0.90821 5.09765,3.39844 2.10938,2.46094 2.10938,5.88867 0,3.66211 -2.40235,6.35742 -2.37304,2.69532 -7.38281,3.8086 l 8.20313,11.39648 q 2.8125,3.92578 4.83398,5.21485 2.02149,1.28906 5.27344,1.64062 l 0,1.08399 z m -28.21289,-20.41993 q 0.55664,0 0.9668,0.0293 0.41015,0 0.67382,0 5.6836,0 8.55469,-2.46094 2.90039,-2.46093 2.90039,-6.26953 0,-3.7207 -2.34375,-6.03515 -2.31445,-2.34375 -6.15234,-2.34375 -1.69922,0 -4.59961,0.55664 l 0,16.52343 z"
         style=""
         id="path3352" />
      <path
         d="m 392.07166,720.44604 -1.58204,-8.67187 q -0.67382,-3.60352 -0.67382,-4.86328 0,-1.875 0.76171,-2.72461 0.76172,-0.84961 2.08008,-0.84961 1.31836,0 2.16797,0.87891 0.87891,0.84961 0.87891,2.25586 0,1.08398 -0.76172,5.33203 l -1.58203,8.64257 -1.28906,0 z"
         style=""
         id="path3354" />
    </g>
  </g>
</svg>
