<?xml version="1.0" encoding="UTF-8" standalone="no"?>
<!-- Created with Inkscape (http://www.inkscape.org/) -->

<svg
   xmlns:dc="http://purl.org/dc/elements/1.1/"
   xmlns:cc="http://creativecommons.org/ns#"
   xmlns:rdf="http://www.w3.org/1999/02/22-rdf-syntax-ns#"
   xmlns:svg="http://www.w3.org/2000/svg"
   xmlns="http://www.w3.org/2000/svg"
   xmlns:sodipodi="http://sodipodi.sourceforge.net/DTD/sodipodi-0.dtd"
   xmlns:inkscape="http://www.inkscape.org/namespaces/inkscape"
   width="210mm"
   height="297mm"
   viewBox="0 0 744.09448819 1052.3622047"
   id="svg2"
   version="1.1"
   inkscape:version="0.91 r13725"
   sodipodi:docname="twisted.svg">
  <defs
     id="defs4" />
  <sodipodi:namedview
     id="base"
     pagecolor="#ffffff"
     bordercolor="#666666"
     borderopacity="1.0"
     inkscape:pageopacity="0.0"
     inkscape:pageshadow="2"
     inkscape:zoom="0.52548447"
     inkscape:cx="372.04724"
     inkscape:cy="526.1811"
     inkscape:document-units="px"
     inkscape:current-layer="layer1"
     showgrid="false"
     inkscape:snap-page="true"
     inkscape:snap-text-baseline="true"
     inkscape:snap-others="true"
     inkscape:snap-bbox="true"
     inkscape:bbox-paths="true"
     inkscape:bbox-nodes="true"
     inkscape:snap-bbox-edge-midpoints="true"
     inkscape:snap-bbox-midpoints="true"
     inkscape:object-paths="true"
     inkscape:object-nodes="true"
     inkscape:snap-midpoints="true"
     inkscape:snap-center="true"
     inkscape:snap-object-midpoints="true"
     inkscape:snap-smooth-nodes="true"
     inkscape:snap-intersection-paths="true"
     inkscape:window-width="1366"
     inkscape:window-height="705"
     inkscape:window-x="-8"
     inkscape:window-y="-8"
     inkscape:window-maximized="1"
     showguides="false"
     inkscape:snap-global="true" />
  <metadata
     id="metadata7">
    <rdf:RDF>
      <cc:Work
         rdf:about="">
        <dc:format>image/svg+xml</dc:format>
        <dc:type
           rdf:resource="http://purl.org/dc/dcmitype/StillImage" />
        <dc:title />
      </cc:Work>
    </rdf:RDF>
  </metadata>
  <g
     inkscape:label="Layer 1"
     inkscape:groupmode="layer"
     id="layer1">
    <path
       style="opacity:1;fill:#ffffff;fill-opacity:1;stroke:#000000;stroke-width:5;stroke-linecap:butt;stroke-linejoin:miter;stroke-miterlimit:4;stroke-dasharray:none;stroke-opacity:1"
       d="m 531.68463,395.56598 105.54498,0 0,262.47046 -105.54498,0"
       id="path4430"
       inkscape:connector-curvature="0" />
    <path
       style="opacity:1;fill:#ffffff;fill-opacity:1;stroke:#000000;stroke-width:5;stroke-linecap:butt;stroke-linejoin:miter;stroke-miterlimit:4;stroke-dasharray:none;stroke-opacity:1"
       d="m 319.89479,395.56598 104.92491,0"
       id="path4426"
       inkscape:connector-curvature="0" />
    <path
       style="opacity:1;fill:none;fill-opacity:1;stroke:#000000;stroke-width:5;stroke-linecap:butt;stroke-linejoin:miter;stroke-miterlimit:4;stroke-dasharray:none;stroke-opacity:1"
       d="M 256.03984,437.81106 Z"
       id="path4277"
       inkscape:connector-curvature="0" />
    <path
       style="opacity:1;fill:#ffffff;fill-opacity:1;stroke:#000000;stroke-width:5;stroke-linecap:butt;stroke-linejoin:miter;stroke-miterlimit:4;stroke-dasharray:5,5;stroke-opacity:1;stroke-dashoffset:0"
       d="m 319.27475,658.03644 105.54495,0"
       id="path4428"
       inkscape:connector-curvature="0" />
    <path
       style="opacity:1;fill:#ffffff;fill-opacity:1;stroke:#000000;stroke-width:5;stroke-linecap:butt;stroke-linejoin:miter;stroke-miterlimit:4;stroke-dasharray:none;stroke-opacity:1"
       d="m 211.96988,395.56598 -105.54496,0 0,262.47046 105.54496,0"
       id="path4424"
       inkscape:connector-curvature="0" />
    <path
       style="opacity:1;fill:#ffffff;fill-opacity:1;stroke:#000000;stroke-width:5;stroke-linecap:butt;stroke-linejoin:miter;stroke-miterlimit:4;stroke-dasharray:none;stroke-opacity:1"
       d="m 211.96988,658.03644 -1.5,-211.47637 22.78498,0.24987 0,52.74396 63.85495,1.40052 0,-53.44422 22.78498,0.24987 -0.62004,210.27637"
       id="path4488"
       inkscape:connector-curvature="0" />
    <path
       style="opacity:1;fill:#ffffff;fill-opacity:1;stroke:#000000;stroke-width:5;stroke-linecap:butt;stroke-linejoin:miter;stroke-miterlimit:4;stroke-dasharray:none;stroke-opacity:1"
       d="m 211.96988,395.56598 -1.5,24.74705 44.06996,0.24164 0,52.97738 21.28499,0.35014 0,-53.2108 44.06996,0.24164 0,-25.34705"
       id="path4490"
       inkscape:connector-curvature="0" />
    <path
       style="opacity:1;fill:#ffffff;fill-opacity:1;stroke:#000000;stroke-width:5;stroke-linecap:butt;stroke-linejoin:miter;stroke-miterlimit:4;stroke-dasharray:none;stroke-opacity:1"
       d="m 422.25972,656.62719 -1.5,-211.47637 22.78498,0.24987 0,52.74396 63.85495,1.40052 0,-53.44422 22.78498,0.24987 -0.62004,210.27637"
       id="path4488-4"
       inkscape:connector-curvature="0" />
    <path
       style="opacity:1;fill:#ffffff;fill-opacity:1;stroke:#000000;stroke-width:5;stroke-linecap:butt;stroke-linejoin:miter;stroke-miterlimit:4;stroke-dasharray:none;stroke-opacity:1"
       d="m 422.25972,394.15673 -1.5,24.74705 44.06996,0.24164 0,52.97738 21.28499,0.35014 0,-53.2108 44.06996,0.24164 0,-25.34705"
       id="path4490-7"
       inkscape:connector-curvature="0" />
    <rect
       style="opacity:1;fill:#ffffff;fill-opacity:1;stroke:none;stroke-width:2.53517556;stroke-linecap:butt;stroke-linejoin:miter;stroke-miterlimit:4;stroke-dasharray:none;stroke-opacity:1"
       id="rect4400"
       width="20"
       height="280.69452"
       x="362.04724"
       y="389.83383" />
    <rect
       style="opacity:1;fill:#ffffff;fill-opacity:1;stroke:#000000;stroke-width:5;stroke-linecap:butt;stroke-linejoin:miter;stroke-miterlimit:4;stroke-dasharray:none;stroke-opacity:1"
       id="rect4154"
       width="744.09448"
       height="263.09055"
       x="0"
       y="526.18109" />
    <path
       style="opacity:1;fill:none;fill-opacity:1;stroke:#000000;stroke-width:5;stroke-linecap:butt;stroke-linejoin:miter;stroke-miterlimit:4;stroke-dasharray:5,5;stroke-dashoffset:0;stroke-opacity:1"
       d="m 106.42492,526.18109 0,131.85535 105.54496,0 -0.93525,-131.85535 108.62892,0 -0.3888,131.85535 102.98497,-1.40925 -0.92525,-130.4461 108.61477,0 1.73539,131.85535 105.54498,0 0,-131.85535"
       id="path3348"
       inkscape:connector-curvature="0" />
    <g
       style="font-style:normal;font-variant:normal;font-weight:normal;font-stretch:normal;font-size:60px;line-height:100%;font-family:'Times New Roman';-inkscape-font-specification:'Times New Roman, Normal';text-align:start;letter-spacing:0px;word-spacing:0px;writing-mode:lr-tb;text-anchor:start;opacity:1;fill:#000000;fill-opacity:1;stroke:none;stroke-width:1px;stroke-linecap:butt;stroke-linejoin:miter;stroke-opacity:1"
       id="text4404">
      <path
         d="m 391.80798,743.51733 -10.60547,0 -13.44726,-18.57421 q -1.49414,0.0586 -2.43164,0.0586 -0.38086,0 -0.82031,0 -0.43946,-0.0293 -0.90821,-0.0586 l 0,11.54296 q 0,3.75 0.82032,4.65821 1.11328,1.28906 3.33984,1.28906 l 1.55273,0 0,1.08398 -17.02148,0 0,-1.08398 1.49414,0 q 2.51953,0 3.60352,-1.64063 0.61523,-0.9082 0.61523,-4.30664 l 0,-25.66406 q 0,-3.75 -0.82031,-4.6582 -1.14258,-1.28906 -3.39844,-1.28906 l -1.49414,0 0,-1.08399 14.47266,0 q 6.32812,0 9.3164,0.9375 3.01758,0.9082 5.09766,3.39844 2.10937,2.46094 2.10937,5.88867 0,3.66211 -2.40234,6.35742 -2.37305,2.69532 -7.38281,3.8086 l 8.20312,11.39648 q 2.8125,3.92578 4.83399,5.21484 2.02148,1.28907 5.27343,1.64063 l 0,1.08398 z m -28.21289,-20.41992 q 0.55664,0 0.9668,0.0293 0.41016,0 0.67383,0 5.68359,0 8.55469,-2.46094 2.90039,-2.46094 2.90039,-6.26953 0,-3.7207 -2.34375,-6.03516 -2.31446,-2.34375 -6.15235,-2.34375 -1.69922,0 -4.59961,0.55664 l 0,16.52344 z"
         style=""
         id="path4157" />
    </g>
  </g>
</svg>
